SplineFontDB: 3.2
FontName: Vazirmatn-UI-Medium
FullName: Vazirmatn UI Medium
FamilyName: Vazirmatn UI Medium
Weight: Medium
Copyright: Copyright 2015 The Vazirmatn Project Authors (https://github.com/rastikerdar/vazirmatn)
Version: 33.003
ItalicAngle: 0
UnderlinePosition: -780
UnderlineWidth: 100
Ascent: 1638
Descent: 410
InvalidEm: 0
sfntRevision: 0x002100c5
LayerCount: 2
Layer: 0 1 "Back" 1
Layer: 1 1 "Fore" 0
XUID: [1021 361 -1614679662 2427242]
StyleMap: 0x0040
FSType: 0
OS2Version: 4
OS2_WeightWidthSlopeOnly: 0
OS2_UseTypoMetrics: 1
CreationTime: 1431850356
ModificationTime: 1724682706
PfmFamily: 81
TTFWeight: 500
TTFWidth: 5
LineGap: 0
VLineGap: 0
Panose: 0 0 0 0 0 0 0 0 0 0
OS2TypoAscent: 1950
OS2TypoAOffset: 0
OS2TypoDescent: -970
OS2TypoDOffset: 0
OS2TypoLinegap: 0
OS2WinAscent: 1950
OS2WinAOffset: 0
OS2WinDescent: 970
OS2WinDOffset: 0
HheadAscent: 2100
HheadAOffset: 0
HheadDescent: -1100
HheadDOffset: 0
OS2SubXSize: 1331
OS2SubYSize: 1433
OS2SubXOff: 0
OS2SubYOff: 286
OS2SupXSize: 1331
OS2SupYSize: 1433
OS2SupXOff: 0
OS2SupYOff: 983
OS2StrikeYSize: 102
OS2StrikeYPos: 530
OS2CapHeight: 1638
OS2XHeight: 1082
OS2Vendor: '    '
OS2CodePages: 00000041.20080000
OS2UnicodeRanges: 80002003.80000000.00000008.00000000
Lookup: 1 0 0 "'c2sc' Capitals to Small Capitals lookup 0" { "'c2sc' Capitals to Small Capitals lookup 0 subtable"  } ['c2sc' ('DFLT' <'dflt' > 'cyrl' <'dflt' > 'grek' <'dflt' > 'latn' <'AZE ' 'CRT ' 'FRA ' 'MOL ' 'NAV ' 'ROM ' 'TRK ' 'dflt' > ) ]
Lookup: 1 0 0 "'smcp' Lowercase to Small Capitals lookup 1" { "'smcp' Lowercase to Small Capitals lookup 1 subtable"  } ['smcp' ('DFLT' <'dflt' > 'cyrl' <'dflt' > 'grek' <'dflt' > 'latn' <'AZE ' 'CRT ' 'FRA ' 'MOL ' 'NAV ' 'ROM ' 'TRK ' 'dflt' > ) ]
Lookup: 1 0 0 "'unic' Unicase lookup 2" { "'unic' Unicase lookup 2 subtable"  } ['unic' ('DFLT' <'dflt' > 'cyrl' <'dflt' > 'grek' <'dflt' > 'latn' <'AZE ' 'CRT ' 'FRA ' 'MOL ' 'NAV ' 'ROM ' 'TRK ' 'dflt' > ) ]

StartChar: A
Encoding: 65 65 2
Width: 1358
VWidth: 1798
GlyphClass: 2
Flags: W
AnchorPoint: "Anchor-1" 686 -250 basechar 0
AnchorPoint: "Anchor-0" 672 1351 basechar 0
LayerCount: 2
Fore
SplineSet
1079 -250 m 1,0,-1
 961 91 l 1,1,-1
 398 91 l 1,2,-1
 280 -250 l 1,3,-1
 17 -250 l 1,4,-1
 565 1206 l 1,5,-1
 793 1206 l 1,6,-1
 1343 -250 l 1,7,-1
 1079 -250 l 1,0,-1
466 290 m 1,8,-1
 892 290 l 1,9,-1
 679 908 l 1,10,-1
 466 290 l 1,8,-1
EndSplineSet
Substitution2: "'unic' Unicase lookup 2 subtable" A.unic
Substitution2: "'c2sc' Capitals to Small Capitals lookup 0 subtable" A.smcp
Position2: "'cpsp' Capital Spacing lookup 0 subtable" dx=36 dy=0 dh=72 dv=0
EndChar

StartChar: A.smcp
Encoding: 65537 -1 3
Width: 1178
GlyphClass: 2
Flags: W
AnchorPoint: "Anchor-1" 592 0 basechar 0
AnchorPoint: "Anchor-0" 581 1320 basechar 0
LayerCount: 2
Fore
SplineSet
925 0 m 1,0,-1
 830 251 l 1,1,-1
 347 251 l 1,2,-1
 252 0 l 1,3,-1
 8 0 l 1,4,-1
 477 1165 l 1,5,-1
 701 1165 l 1,6,-1
 1169 0 l 1,7,-1
 925 0 l 1,0,-1
415 432 m 1,8,-1
 761 432 l 1,9,-1
 588 889 l 1,10,-1
 415 432 l 1,8,-1
EndSplineSet
EndChar

StartChar: A.unic
Encoding: 65538 -1 4
Width: 1390
GlyphClass: 2
Flags: W
AnchorPoint: "Anchor-1" 682 0 basechar 0
AnchorPoint: "Anchor-0" 701 1632 basechar 0
LayerCount: 2
Fore
SplineSet
1033 0 m 1,0,1
 1022 25 1022 25 1014.5 60.5 c 128,-1,2
 1007 96 1007 96 1003 135 c 1,3,4
 939 74 939 74 832.5 27 c 128,-1,5
 726 -20 726 -20 573 -20 c 0,6,7
 436 -20 436 -20 329 32.5 c 128,-1,8
 222 85 222 85 160.5 181.5 c 128,-1,9
 99 278 99 278 99 408 c 0,10,11
 99 629 99 629 255.5 738.5 c 128,-1,12
 412 848 412 848 744 848 c 2,13,-1
 997 848 l 1,14,-1
 997 979 l 2,15,16
 997 1114 997 1114 922 1194 c 128,-1,17
 847 1274 847 1274 689 1274 c 0,18,19
 544 1274 544 1274 461 1212 c 128,-1,20
 378 1150 378 1150 378 1022 c 1,21,-1
 130 1022 l 1,22,23
 130 1154 130 1154 198 1256.5 c 128,-1,24
 266 1359 266 1359 394 1417.5 c 128,-1,25
 522 1476 522 1476 700 1476 c 0,26,27
 859 1476 859 1476 982 1421 c 128,-1,28
 1105 1366 1105 1366 1175.5 1255 c 128,-1,29
 1246 1144 1246 1144 1246 977 c 2,30,-1
 1246 270 l 2,31,32
 1246 189 1246 189 1257 126 c 128,-1,33
 1268 63 1268 63 1287 16 c 1,34,-1
 1287 0 l 1,35,-1
 1033 0 l 1,0,1
618 183 m 0,36,37
 711 183 711 183 788 210 c 128,-1,38
 865 237 865 237 919 278 c 128,-1,39
 973 319 973 319 997 363 c 1,40,-1
 997 653 l 1,41,-1
 762 653 l 2,42,43
 541 653 541 653 445 596 c 128,-1,44
 349 539 349 539 349 417 c 0,45,46
 349 312 349 312 419.5 247.5 c 128,-1,47
 490 183 490 183 618 183 c 0,36,37
EndSplineSet
EndChar

StartChar: AE
Encoding: 198 198 5
Width: 1918
VWidth: 1798
GlyphClass: 2
Flags: W
AnchorPoint: "Anchor-0" 939 1362 basechar 0
LayerCount: 2
Fore
SplineSet
1870 -57 m 1,0,-1
 1870 -250 l 1,1,-1
 981 -250 l 1,2,-1
 967 94 l 1,3,-1
 468 94 l 1,4,-1
 283 -250 l 1,5,-1
 -4 -250 l 1,6,-1
 824 1206 l 1,7,-1
 1808 1206 l 1,8,-1
 1808 1013 l 1,9,-1
 1169 1013 l 1,10,-1
 1186 599 l 1,11,-1
 1727 599 l 1,12,-1
 1727 406 l 1,13,-1
 1195 406 l 1,14,-1
 1214 -57 l 1,15,-1
 1870 -57 l 1,0,-1
581 304 m 1,16,-1
 958 304 l 1,17,-1
 931 955 l 1,18,-1
 581 304 l 1,16,-1
EndSplineSet
Substitution2: "'c2sc' Capitals to Small Capitals lookup 0 subtable" AE.smcp
Position2: "'cpsp' Capital Spacing lookup 0 subtable" dx=36 dy=0 dh=72 dv=0
EndChar

StartChar: AE.smcp
Encoding: 65539 -1 6
Width: 1606
GlyphClass: 2
Flags: W
AnchorPoint: "Anchor-1" 896 0 basechar 0
AnchorPoint: "Anchor-0" 896 1290 basechar 0
LayerCount: 2
Fore
SplineSet
1540 190 m 1,0,-1
 1540 0 l 1,1,-1
 761 0 l 1,2,-1
 751 264 l 1,3,-1
 373 264 l 1,4,-1
 241 0 l 1,5,-1
 -20 0 l 1,6,-1
 601 1165 l 1,7,-1
 1497 1165 l 1,8,-1
 1497 975 l 1,9,-1
 965 975 l 1,10,-1
 975 702 l 1,11,-1
 1434 702 l 1,12,-1
 1434 512 l 1,13,-1
 982 512 l 1,14,-1
 993 190 l 1,15,-1
 1540 190 l 1,0,-1
467 452 m 1,16,-1
 744 452 l 1,17,-1
 725 969 l 1,18,-1
 467 452 l 1,16,-1
EndSplineSet
EndChar

StartChar: Aogonek
Encoding: 260 260 27
Width: 1358
VWidth: 1798
GlyphClass: 2
Flags: W
AnchorPoint: "Anchor-1" 686 -250 basechar 0
AnchorPoint: "Anchor-0" 672 1351 basechar 0
LayerCount: 2
Fore
SplineSet
17 -250 m 1,0,-1
 565 1206 l 1,1,-1
 793 1206 l 1,2,-1
 1343 -250 l 1,3,-1
 1279 -250 l 1,4,5
 1209 -295 1209 -295 1163.5 -342.5 c 128,-1,6
 1118 -390 1118 -390 1118 -450 c 0,7,8
 1118 -480 1118 -480 1133.5 -499.5 c 128,-1,9
 1149 -519 1149 -519 1189 -519 c 0,10,11
 1219 -519 1219 -519 1241.5 -510.5 c 128,-1,12
 1264 -502 1264 -502 1278 -495 c 1,13,-1
 1301 -634 l 1,14,15
 1276 -649 1276 -649 1237 -663.5 c 128,-1,16
 1198 -678 1198 -678 1138 -678 c 0,17,18
 1050 -678 1050 -678 988.5 -627 c 128,-1,19
 927 -576 927 -576 927 -478 c 0,20,21
 927 -416 927 -416 961 -355 c 128,-1,22
 995 -294 995 -294 1076 -240 c 1,23,-1
 961 91 l 1,24,-1
 398 91 l 1,25,-1
 280 -250 l 1,26,-1
 17 -250 l 1,0,-1
466 290 m 1,27,-1
 892 290 l 1,28,-1
 679 908 l 1,29,-1
 466 290 l 1,27,-1
EndSplineSet
Substitution2: "'locl' Localized Forms in Latin lookup 8 subtable" Aogonek.NAV
Substitution2: "'unic' Unicase lookup 2 subtable" Aogonek.unic
Substitution2: "'c2sc' Capitals to Small Capitals lookup 0 subtable" Aogonek.smcp
Position2: "'cpsp' Capital Spacing lookup 0 subtable" dx=36 dy=0 dh=72 dv=0
EndChar

StartChar: Aogonek.smcp
Encoding: 65554 -1 29
Width: 1178
GlyphClass: 2
Flags: W
AnchorPoint: "Anchor-1" 592 0 basechar 0
AnchorPoint: "Anchor-0" 581 1320 basechar 0
LayerCount: 2
Fore
SplineSet
8 0 m 1,0,-1
 477 1165 l 1,1,-1
 701 1165 l 1,2,-1
 1169 0 l 1,3,-1
 1116 0 l 1,4,5
 1046 -45 1046 -45 1000.5 -92.5 c 128,-1,6
 955 -140 955 -140 955 -200 c 0,7,8
 955 -230 955 -230 970.5 -249.5 c 128,-1,9
 986 -269 986 -269 1026 -269 c 0,10,11
 1056 -269 1056 -269 1078.5 -260.5 c 128,-1,12
 1101 -252 1101 -252 1115 -245 c 1,13,-1
 1138 -384 l 1,14,15
 1113 -399 1113 -399 1074 -413.5 c 128,-1,16
 1035 -428 1035 -428 975 -428 c 0,17,18
 887 -428 887 -428 825.5 -377 c 128,-1,19
 764 -326 764 -326 764 -228 c 0,20,21
 764 -164 764 -164 799.5 -102 c 128,-1,22
 835 -40 835 -40 920 14 c 1,23,-1
 830 251 l 1,24,-1
 347 251 l 1,25,-1
 252 0 l 1,26,-1
 8 0 l 1,0,-1
415 432 m 1,27,-1
 761 432 l 1,28,-1
 588 889 l 1,29,-1
 415 432 l 1,27,-1
EndSplineSet
Substitution2: "'locl' Localized Forms in Latin lookup 8 subtable" Aogonek.smcp.NAV
EndChar

StartChar: B
Encoding: 66 66 41
Width: 1293
VWidth: 1798
GlyphClass: 2
Flags: W
AnchorPoint: "Anchor-1" 613 -240 basechar 0
AnchorPoint: "Anchor-0" 606 1362 basechar 0
LayerCount: 2
Fore
SplineSet
683 -250 m 2,0,-1
 148 -250 l 1,1,-1
 148 1206 l 1,2,-1
 642 1206 l 2,3,4
 882 1206 882 1206 1017.5 1111 c 128,-1,5
 1153 1016 1153 1016 1153 813 c 0,6,7
 1153 712 1153 712 1099.5 631 c 128,-1,8
 1046 550 1046 550 941 508 c 1,9,10
 1068 474 1068 474 1128.5 381 c 128,-1,11
 1189 288 1189 288 1189 174 c 0,12,13
 1189 -34 1189 -34 1055 -142 c 128,-1,14
 921 -250 921 -250 683 -250 c 2,0,-1
642 1006 m 2,15,-1
 399 1006 l 1,16,-1
 399 591 l 1,17,-1
 645 591 l 2,18,19
 769 591 769 591 835.5 645 c 128,-1,20
 902 699 902 699 902 799 c 0,21,22
 902 909 902 909 839 957.5 c 128,-1,23
 776 1006 776 1006 642 1006 c 2,15,-1
939 175 m 0,24,25
 939 282 939 282 881.5 345 c 128,-1,26
 824 408 824 408 694 408 c 2,27,-1
 399 408 l 1,28,-1
 399 -51 l 1,29,-1
 683 -51 l 2,30,31
 810 -51 810 -51 874.5 11.5 c 128,-1,32
 939 74 939 74 939 175 c 0,24,25
EndSplineSet
Substitution2: "'c2sc' Capitals to Small Capitals lookup 0 subtable" B.smcp
Position2: "'cpsp' Capital Spacing lookup 0 subtable" dx=36 dy=0 dh=72 dv=0
EndChar

StartChar: B.smcp
Encoding: 65563 -1 42
Width: 1120
GlyphClass: 2
Flags: W
AnchorPoint: "Anchor-1" 536 10 basechar 0
AnchorPoint: "Anchor-0" 529 1320 basechar 0
LayerCount: 2
Fore
SplineSet
589 0 m 2,0,-1
 118 0 l 1,1,-1
 118 1165 l 1,2,-1
 546 1165 l 2,3,4
 761 1165 761 1165 883.5 1087 c 128,-1,5
 1006 1009 1006 1009 1006 845 c 0,6,7
 1006 766 1006 766 962.5 699.5 c 128,-1,8
 919 633 919 633 827 599 c 1,9,10
 936 573 936 573 986 496 c 128,-1,11
 1036 419 1036 419 1036 334 c 0,12,13
 1036 165 1036 165 919 82.5 c 128,-1,14
 802 0 802 0 589 0 c 2,0,-1
559 973 m 2,15,-1
 359 973 l 1,16,-1
 359 675 l 1,17,-1
 563 675 l 2,18,19
 661 675 661 675 713 712.5 c 128,-1,20
 765 750 765 750 765 821 c 0,21,22
 765 901 765 901 712.5 937 c 128,-1,23
 660 973 660 973 559 973 c 2,15,-1
794 345 m 0,24,25
 794 419 794 419 749 464 c 128,-1,26
 704 509 704 509 600 509 c 2,27,-1
 359 509 l 1,28,-1
 359 191 l 1,29,-1
 589 191 l 2,30,31
 693 191 693 191 743.5 234.5 c 128,-1,32
 794 278 794 278 794 345 c 0,24,25
EndSplineSet
EndChar

StartChar: C
Encoding: 67 67 43
Width: 1337
VWidth: 1798
GlyphClass: 2
Flags: W
AnchorPoint: "Anchor-1" 680 -260 basechar 0
AnchorPoint: "Anchor-0" 680 1383 basechar 0
LayerCount: 2
Fore
SplineSet
1008 224 m 1,0,-1
 1258 224 l 1,1,2
 1246 81 1246 81 1178 -31 c 128,-1,3
 1110 -143 1110 -143 987.5 -206.5 c 128,-1,4
 865 -270 865 -270 688 -270 c 0,5,6
 508 -270 508 -270 376.5 -185.5 c 128,-1,7
 245 -101 245 -101 173.5 53.5 c 128,-1,8
 102 208 102 208 102 417 c 2,9,-1
 102 538 l 2,10,11
 102 748 102 748 175 902.5 c 128,-1,12
 248 1057 248 1057 381.5 1141.5 c 128,-1,13
 515 1226 515 1226 697 1226 c 0,14,15
 871 1226 871 1226 991 1162 c 128,-1,16
 1111 1098 1111 1098 1178 985 c 128,-1,17
 1245 872 1245 872 1259 726 c 1,18,-1
 1009 726 l 1,19,20
 994 867 994 867 924.5 946 c 128,-1,21
 855 1025 855 1025 697 1025 c 0,22,23
 527 1025 527 1025 440.5 898.5 c 128,-1,24
 354 772 354 772 354 540 c 2,25,-1
 354 417 l 2,26,27
 354 197 354 197 433.5 63.5 c 128,-1,28
 513 -70 513 -70 688 -70 c 0,29,30
 849 -70 849 -70 920 6 c 128,-1,31
 991 82 991 82 1008 224 c 1,0,-1
EndSplineSet
Substitution2: "'c2sc' Capitals to Small Capitals lookup 0 subtable" C.smcp
Position2: "'cpsp' Capital Spacing lookup 0 subtable" dx=36 dy=0 dh=72 dv=0
EndChar

StartChar: C.smcp
Encoding: 65564 -1 44
Width: 1152
GlyphClass: 2
Flags: W
AnchorPoint: "Anchor-1" 586 -4 basechar 0
AnchorPoint: "Anchor-0" 587 1320 basechar 0
LayerCount: 2
Fore
SplineSet
848 388 m 1,0,-1
 1090 388 l 1,1,2
 1076 210 1076 210 948 97 c 128,-1,3
 820 -16 820 -16 591 -16 c 0,4,5
 433 -16 433 -16 318 52 c 128,-1,6
 203 120 203 120 141 245.5 c 128,-1,7
 79 371 79 371 79 543 c 2,8,-1
 79 621 l 2,9,10
 79 793 79 793 142.5 918.5 c 128,-1,11
 206 1044 206 1044 322 1112.5 c 128,-1,12
 438 1181 438 1181 594 1181 c 0,13,14
 826 1181 826 1181 949.5 1065 c 128,-1,15
 1073 949 1073 949 1091 770 c 1,16,-1
 850 770 l 1,17,18
 840 868 840 868 783 929 c 128,-1,19
 726 990 726 990 594 990 c 0,20,21
 459 990 459 990 389.5 895.5 c 128,-1,22
 320 801 320 801 320 622 c 2,23,-1
 320 543 l 2,24,25
 320 367 320 367 384.5 271 c 128,-1,26
 449 175 449 175 591 175 c 0,27,28
 718 175 718 175 778 228.5 c 128,-1,29
 838 282 838 282 848 388 c 1,0,-1
EndSplineSet
EndChar

StartChar: D
Encoding: 68 68 54
Width: 1337
VWidth: 1798
GlyphClass: 2
Flags: W
AnchorPoint: "Anchor-1" 613 -240 basechar 0
AnchorPoint: "Anchor-0" 609 1362 basechar 0
LayerCount: 2
Fore
SplineSet
571 -250 m 2,0,-1
 148 -250 l 1,1,-1
 148 1206 l 1,2,-1
 580 1206 l 2,3,4
 774 1206 774 1206 921 1120.5 c 128,-1,5
 1068 1035 1068 1035 1151 880 c 128,-1,6
 1234 725 1234 725 1234 516 c 2,7,-1
 1234 439 l 2,8,9
 1234 230 1234 230 1151.5 75 c 128,-1,10
 1069 -80 1069 -80 920 -165 c 128,-1,11
 771 -250 771 -250 571 -250 c 2,0,-1
580 1006 m 2,12,-1
 399 1006 l 1,13,-1
 399 -51 l 1,14,-1
 571 -51 l 2,15,16
 774 -51 774 -51 878 79.5 c 128,-1,17
 982 210 982 210 982 439 c 2,18,-1
 982 518 l 2,19,20
 982 754 982 754 878 880 c 128,-1,21
 774 1006 774 1006 580 1006 c 2,12,-1
EndSplineSet
Substitution2: "'c2sc' Capitals to Small Capitals lookup 0 subtable" D.smcp
Position2: "'cpsp' Capital Spacing lookup 0 subtable" dx=36 dy=0 dh=72 dv=0
EndChar

StartChar: D.smcp
Encoding: 65569 -1 55
Width: 1146
GlyphClass: 2
Flags: W
AnchorPoint: "Anchor-1" 500 10 basechar 0
AnchorPoint: "Anchor-0" 500 1320 basechar 0
LayerCount: 2
Fore
SplineSet
495 0 m 2,0,-1
 118 0 l 1,1,-1
 118 1165 l 1,2,-1
 499 1165 l 2,3,4
 667 1165 667 1165 795 1095 c 128,-1,5
 923 1025 923 1025 995 900.5 c 128,-1,6
 1067 776 1067 776 1067 610 c 2,7,-1
 1067 554 l 2,8,9
 1067 389 1067 389 995 264 c 128,-1,10
 923 139 923 139 794 69.5 c 128,-1,11
 665 0 665 0 495 0 c 2,0,-1
499 973 m 2,12,-1
 359 973 l 1,13,-1
 359 191 l 1,14,-1
 495 191 l 2,15,16
 667 191 667 191 746 285 c 128,-1,17
 825 379 825 379 825 554 c 2,18,-1
 825 612 l 2,19,20
 825 788 825 788 746.5 880.5 c 128,-1,21
 668 973 668 973 499 973 c 2,12,-1
EndSplineSet
EndChar

StartChar: Dcroat
Encoding: 272 272 58
Width: 1367
VWidth: 1798
GlyphClass: 2
Flags: W
AnchorPoint: "Anchor-1" 613 -240 basechar 0
AnchorPoint: "Anchor-0" 609 1362 basechar 0
LayerCount: 2
Fore
SplineSet
601 -250 m 2,0,-1
 178 -250 l 1,1,-1
 178 404 l 1,2,-1
 23 404 l 1,3,-1
 23 570 l 1,4,-1
 178 570 l 1,5,-1
 178 1206 l 1,6,-1
 610 1206 l 2,7,8
 804 1206 804 1206 951 1120.5 c 128,-1,9
 1098 1035 1098 1035 1181 880 c 128,-1,10
 1264 725 1264 725 1264 516 c 2,11,-1
 1264 439 l 2,12,13
 1264 230 1264 230 1181.5 75 c 128,-1,14
 1099 -80 1099 -80 950 -165 c 128,-1,15
 801 -250 801 -250 601 -250 c 2,0,-1
695 570 m 1,16,-1
 695 404 l 1,17,-1
 429 404 l 1,18,-1
 429 -51 l 1,19,-1
 601 -51 l 2,20,21
 804 -51 804 -51 908 79.5 c 128,-1,22
 1012 210 1012 210 1012 439 c 2,23,-1
 1012 518 l 2,24,25
 1012 754 1012 754 908 880 c 128,-1,26
 804 1006 804 1006 610 1006 c 2,27,-1
 429 1006 l 1,28,-1
 429 570 l 1,29,-1
 695 570 l 1,16,-1
EndSplineSet
Substitution2: "'c2sc' Capitals to Small Capitals lookup 0 subtable" Dcroat.smcp
Position2: "'cpsp' Capital Spacing lookup 0 subtable" dx=36 dy=0 dh=72 dv=0
EndChar

StartChar: Delta
Encoding: 8710 8710 60
Width: 1474
GlyphClass: 2
Flags: W
LayerCount: 2
Fore
SplineSet
26 0 m 1,0,-1
 621 1456 l 1,1,-1
 869 1456 l 1,2,-1
 1446 0 l 1,3,-1
 26 0 l 1,0,-1
366 199 m 1,4,-1
 1109 199 l 1,5,-1
 744 1163 l 1,6,-1
 366 199 l 1,4,-1
EndSplineSet
Substitution2: "'c2sc' Capitals to Small Capitals lookup 0 subtable" Delta.smcp
Position2: "'cpsp' Capital Spacing lookup 0 subtable" dx=36 dy=0 dh=72 dv=0
EndChar

StartChar: Delta.smcp
Encoding: 65572 -1 61
Width: 1145
GlyphClass: 2
Flags: W
LayerCount: 2
Fore
SplineSet
8 0 m 1,0,-1
 447 1165 l 1,1,-1
 697 1165 l 1,2,-1
 1137 0 l 1,3,-1
 8 0 l 1,0,-1
589 863 m 1,4,-1
 572 936 l 1,5,-1
 554 861 l 1,6,-1
 329 192 l 1,7,-1
 817 192 l 1,8,-1
 589 863 l 1,4,-1
EndSplineSet
EndChar

StartChar: E
Encoding: 69 69 62
Width: 1157
VWidth: 1798
GlyphClass: 2
Flags: W
AnchorPoint: "Anchor-1" 619 -240 basechar 0
AnchorPoint: "Anchor-0" 619 1362 basechar 0
LayerCount: 2
Fore
SplineSet
1101 -51 m 1,0,-1
 1101 -250 l 1,1,-1
 148 -250 l 1,2,-1
 148 1206 l 1,3,-1
 1096 1206 l 1,4,-1
 1096 1006 l 1,5,-1
 399 1006 l 1,6,-1
 399 598 l 1,7,-1
 1000 598 l 1,8,-1
 1000 402 l 1,9,-1
 399 402 l 1,10,-1
 399 -51 l 1,11,-1
 1101 -51 l 1,0,-1
EndSplineSet
Substitution2: "'unic' Unicase lookup 2 subtable" E.unic
Substitution2: "'c2sc' Capitals to Small Capitals lookup 0 subtable" E.smcp
Position2: "'cpsp' Capital Spacing lookup 0 subtable" dx=36 dy=0 dh=72 dv=0
EndChar

StartChar: E.smcp
Encoding: 65573 -1 63
Width: 992
GlyphClass: 2
Flags: W
AnchorPoint: "Anchor-1" 537 8 basechar 0
AnchorPoint: "Anchor-0" 537 1320 basechar 0
LayerCount: 2
Fore
SplineSet
950 191 m 1,0,-1
 950 0 l 1,1,-1
 118 0 l 1,2,-1
 118 1165 l 1,3,-1
 948 1165 l 1,4,-1
 948 973 l 1,5,-1
 359 973 l 1,6,-1
 359 698 l 1,7,-1
 864 698 l 1,8,-1
 864 507 l 1,9,-1
 359 507 l 1,10,-1
 359 191 l 1,11,-1
 950 191 l 1,0,-1
EndSplineSet
EndChar

StartChar: E.unic
Encoding: 65574 -1 64
Width: 1426
GlyphClass: 2
Flags: W
AnchorPoint: "Anchor-1" 743 10 basechar 0
AnchorPoint: "Anchor-0" 735 1643 basechar 0
LayerCount: 2
Fore
SplineSet
749 -22 m 0,0,1
 539 -22 539 -22 394 66.5 c 128,-1,2
 249 155 249 155 174 310.5 c 128,-1,3
 99 466 99 466 99 668 c 2,4,-1
 99 789 l 2,5,6
 99 992 99 992 180.5 1147 c 128,-1,7
 262 1302 262 1302 402.5 1389 c 128,-1,8
 543 1476 543 1476 718 1475 c 0,9,10
 1016 1474 1016 1474 1169 1297 c 128,-1,11
 1322 1120 1322 1120 1322 803 c 2,12,-1
 1322 650 l 1,13,-1
 349 650 l 1,14,15
 352 522 352 522 395.5 417.5 c 128,-1,16
 439 313 439 313 528.5 251.5 c 128,-1,17
 618 190 618 190 758 190 c 0,18,19
 887 190 887 190 977 239 c 128,-1,20
 1067 288 1067 288 1126 342 c 1,21,-1
 1265 191 l 1,22,23
 1153 94 1153 94 1035.5 36 c 128,-1,24
 918 -22 918 -22 749 -22 c 0,0,1
718 1264 m 0,25,26
 605 1264 605 1264 526 1208.5 c 128,-1,27
 447 1153 447 1153 403 1058.5 c 128,-1,28
 359 964 359 964 351 845 c 1,29,-1
 1072 845 l 1,30,-1
 1072 888 l 2,31,32
 1072 995 1072 995 1036.5 1080 c 128,-1,33
 1001 1165 1001 1165 923.5 1214.5 c 128,-1,34
 846 1264 846 1264 718 1264 c 0,25,26
EndSplineSet
EndChar

StartChar: Eng
Encoding: 330 330 89
Width: 1431
VWidth: 1798
GlyphClass: 2
Flags: W
AnchorPoint: "Anchor-1" 720 -240 basechar 0
AnchorPoint: "Anchor-0" 726 1351 basechar 0
LayerCount: 2
Fore
SplineSet
144 1206 m 1,0,-1
 395 1206 l 1,1,-1
 1041 155 l 1,2,-1
 1041 1206 l 1,3,-1
 1292 1206 l 1,4,-1
 1292 -306 l 2,5,6
 1292 -490 1292 -490 1196 -588.5 c 128,-1,7
 1100 -687 1100 -687 931 -687 c 0,8,9
 896 -687 896 -687 864.5 -683.5 c 128,-1,10
 833 -680 833 -680 798 -670 c 1,11,-1
 812 -475 l 1,12,13
 832 -481 832 -481 860 -484 c 128,-1,14
 888 -487 888 -487 911 -487 c 0,15,16
 973 -487 973 -487 1007 -440 c 128,-1,17
 1041 -393 1041 -393 1041 -306 c 2,18,-1
 1041 -250 l 1,19,-1
 395 802 l 1,20,-1
 395 -250 l 1,21,-1
 144 -250 l 1,22,-1
 144 1206 l 1,0,-1
EndSplineSet
Substitution2: "'c2sc' Capitals to Small Capitals lookup 0 subtable" Eng.smcp
Position2: "'cpsp' Capital Spacing lookup 0 subtable" dx=36 dy=0 dh=72 dv=0
EndChar

StartChar: Eng.smcp
Encoding: 65591 -1 90
Width: 1244
GlyphClass: 2
Flags: W
AnchorPoint: "Anchor-1" 619 4 basechar 0
AnchorPoint: "Anchor-0" 624 1320 basechar 0
LayerCount: 2
Fore
SplineSet
1127 1165 m 1,0,-1
 1127 -62 l 2,1,2
 1127 -243 1127 -243 1033 -340 c 128,-1,3
 939 -437 939 -437 772 -437 c 0,4,5
 738 -437 738 -437 707.5 -433.5 c 128,-1,6
 677 -430 677 -430 643 -420 c 1,7,-1
 657 -227 l 1,8,9
 676 -233 676 -233 704.5 -236 c 128,-1,10
 733 -239 733 -239 755 -239 c 0,11,12
 885 -239 885 -239 885 -62 c 2,13,-1
 885 0 l 1,14,-1
 359 803 l 1,15,-1
 359 0 l 1,16,-1
 118 0 l 1,17,-1
 118 1165 l 1,18,-1
 359 1165 l 1,19,-1
 885 362 l 1,20,-1
 885 1165 l 1,21,-1
 1127 1165 l 1,0,-1
EndSplineSet
EndChar

StartChar: Eogonek
Encoding: 280 280 91
Width: 1157
VWidth: 1798
GlyphClass: 2
Flags: W
AnchorPoint: "Anchor-1" 619 -240 basechar 0
AnchorPoint: "Anchor-0" 619 1362 basechar 0
LayerCount: 2
Fore
SplineSet
1101 -51 m 1,0,-1
 1101 -250 l 1,1,-1
 984 -250 l 1,2,3
 914 -295 914 -295 868 -342.5 c 128,-1,4
 822 -390 822 -390 822 -450 c 0,5,6
 822 -480 822 -480 838 -499.5 c 128,-1,7
 854 -519 854 -519 894 -519 c 0,8,9
 924 -519 924 -519 946 -510.5 c 128,-1,10
 968 -502 968 -502 982 -495 c 1,11,-1
 1006 -634 l 1,12,13
 981 -649 981 -649 941.5 -663.5 c 128,-1,14
 902 -678 902 -678 843 -678 c 0,15,16
 755 -678 755 -678 693.5 -627 c 128,-1,17
 632 -576 632 -576 632 -478 c 0,18,19
 632 -418 632 -418 663 -360 c 128,-1,20
 694 -302 694 -302 767 -250 c 1,21,-1
 148 -250 l 1,22,-1
 148 1206 l 1,23,-1
 1096 1206 l 1,24,-1
 1096 1006 l 1,25,-1
 399 1006 l 1,26,-1
 399 598 l 1,27,-1
 1000 598 l 1,28,-1
 1000 402 l 1,29,-1
 399 402 l 1,30,-1
 399 -51 l 1,31,-1
 1101 -51 l 1,0,-1
EndSplineSet
Substitution2: "'locl' Localized Forms in Latin lookup 8 subtable" Eogonek.NAV
Substitution2: "'unic' Unicase lookup 2 subtable" Eogonek.unic
Substitution2: "'c2sc' Capitals to Small Capitals lookup 0 subtable" Eogonek.smcp
Position2: "'cpsp' Capital Spacing lookup 0 subtable" dx=36 dy=0 dh=72 dv=0
EndChar

StartChar: Eogonek.smcp
Encoding: 65593 -1 93
Width: 992
GlyphClass: 2
Flags: W
AnchorPoint: "Anchor-1" 537 8 basechar 0
AnchorPoint: "Anchor-0" 537 1320 basechar 0
LayerCount: 2
Fore
SplineSet
950 191 m 1,0,-1
 950 0 l 1,1,-1
 851 0 l 1,2,3
 781 -45 781 -45 735 -92.5 c 128,-1,4
 689 -140 689 -140 689 -200 c 0,5,6
 689 -230 689 -230 705 -249.5 c 128,-1,7
 721 -269 721 -269 761 -269 c 0,8,9
 791 -269 791 -269 813 -260.5 c 128,-1,10
 835 -252 835 -252 849 -245 c 1,11,-1
 873 -384 l 1,12,13
 848 -399 848 -399 808.5 -413.5 c 128,-1,14
 769 -428 769 -428 710 -428 c 0,15,16
 622 -428 622 -428 560.5 -377 c 128,-1,17
 499 -326 499 -326 499 -228 c 0,18,19
 499 -168 499 -168 530 -110 c 128,-1,20
 561 -52 561 -52 634 0 c 1,21,-1
 118 0 l 1,22,-1
 118 1165 l 1,23,-1
 948 1165 l 1,24,-1
 948 973 l 1,25,-1
 359 973 l 1,26,-1
 359 698 l 1,27,-1
 864 698 l 1,28,-1
 864 507 l 1,29,-1
 359 507 l 1,30,-1
 359 191 l 1,31,-1
 950 191 l 1,0,-1
EndSplineSet
Substitution2: "'locl' Localized Forms in Latin lookup 8 subtable" Eogonek.smcp.NAV
EndChar

StartChar: Eth
Encoding: 208 208 96
Width: 1367
VWidth: 1798
GlyphClass: 2
Flags: W
AnchorPoint: "Anchor-1" 613 -240 basechar 0
AnchorPoint: "Anchor-0" 609 1362 basechar 0
LayerCount: 2
Fore
SplineSet
601 -250 m 2,0,-1
 178 -250 l 1,1,-1
 178 404 l 1,2,-1
 23 404 l 1,3,-1
 23 570 l 1,4,-1
 178 570 l 1,5,-1
 178 1206 l 1,6,-1
 610 1206 l 2,7,8
 804 1206 804 1206 951 1120.5 c 128,-1,9
 1098 1035 1098 1035 1181 880 c 128,-1,10
 1264 725 1264 725 1264 516 c 2,11,-1
 1264 439 l 2,12,13
 1264 230 1264 230 1181.5 75 c 128,-1,14
 1099 -80 1099 -80 950 -165 c 128,-1,15
 801 -250 801 -250 601 -250 c 2,0,-1
695 570 m 1,16,-1
 695 404 l 1,17,-1
 429 404 l 1,18,-1
 429 -51 l 1,19,-1
 601 -51 l 2,20,21
 804 -51 804 -51 908 79.5 c 128,-1,22
 1012 210 1012 210 1012 439 c 2,23,-1
 1012 518 l 2,24,25
 1012 754 1012 754 908 880 c 128,-1,26
 804 1006 804 1006 610 1006 c 2,27,-1
 429 1006 l 1,28,-1
 429 570 l 1,29,-1
 695 570 l 1,16,-1
EndSplineSet
Substitution2: "'c2sc' Capitals to Small Capitals lookup 0 subtable" Eth.smcp
Position2: "'cpsp' Capital Spacing lookup 0 subtable" dx=36 dy=0 dh=72 dv=0
EndChar

StartChar: Euro
Encoding: 8364 8364 98
Width: 1164
GlyphClass: 2
Flags: W
LayerCount: 2
Fore
SplineSet
844 178 m 0,0,1
 952 178 952 178 1046 210 c 1,2,-1
 1075 10 l 1,3,4
 1017 -4 1017 -4 954 -12 c 128,-1,5
 891 -20 891 -20 826 -20 c 0,6,7
 665 -20 665 -20 540 41.5 c 128,-1,8
 415 103 415 103 342 225 c 128,-1,9
 269 347 269 347 265 530 c 1,10,-1
 92 530 l 1,11,-1
 92 667 l 1,12,-1
 265 667 l 1,13,-1
 265 798 l 1,14,-1
 92 798 l 1,15,-1
 92 935 l 1,16,-1
 266 935 l 1,17,18
 275 1114 275 1114 349.5 1234.5 c 128,-1,19
 424 1355 424 1355 549.5 1415.5 c 128,-1,20
 675 1476 675 1476 837 1476 c 0,21,22
 899 1476 899 1476 957 1467.5 c 128,-1,23
 1015 1459 1015 1459 1075 1445 c 1,24,-1
 1046 1244 l 1,25,26
 1002 1258 1002 1258 950.5 1267.5 c 128,-1,27
 899 1277 899 1277 847 1277 c 0,28,29
 701 1277 701 1277 614 1195 c 128,-1,30
 527 1113 527 1113 517 935 c 1,31,-1
 874 935 l 1,32,-1
 874 798 l 1,33,-1
 516 798 l 1,34,-1
 516 667 l 1,35,-1
 874 667 l 1,36,-1
 874 530 l 1,37,-1
 516 530 l 1,38,39
 521 341 521 341 610 259.5 c 128,-1,40
 699 178 699 178 844 178 c 0,0,1
EndSplineSet
Substitution2: "'c2sc' Capitals to Small Capitals lookup 0 subtable" Euro.smcp
Position2: "'cpsp' Capital Spacing lookup 0 subtable" dx=36 dy=0 dh=72 dv=0
EndChar

StartChar: Euro.smcp
Encoding: 65597 -1 99
Width: 1012
GlyphClass: 2
Flags: W
LayerCount: 2
Fore
SplineSet
716 175 m 0,0,1
 775 175 775 175 820.5 182.5 c 128,-1,2
 866 190 866 190 917 203 c 1,3,-1
 942 15 l 1,4,5
 886 0 886 0 832 -8 c 128,-1,6
 778 -16 778 -16 716 -16 c 0,7,8
 505 -16 505 -16 376.5 89 c 128,-1,9
 248 194 248 194 223 389 c 1,10,-1
 69 389 l 1,11,-1
 69 533 l 1,12,-1
 217 533 l 1,13,-1
 217 626 l 1,14,-1
 69 626 l 1,15,-1
 69 771 l 1,16,-1
 223 771 l 1,17,18
 249 968 249 968 376.5 1075 c 128,-1,19
 504 1182 504 1182 714 1182 c 0,20,21
 777 1182 777 1182 829 1174 c 128,-1,22
 881 1166 881 1166 942 1150 c 1,23,-1
 921 963 l 1,24,25
 869 979 869 979 821 985 c 128,-1,26
 773 991 773 991 714 991 c 0,27,28
 603 991 603 991 542.5 935 c 128,-1,29
 482 879 482 879 465 771 c 1,30,-1
 845 771 l 1,31,-1
 845 626 l 1,32,-1
 458 626 l 1,33,-1
 458 533 l 1,34,-1
 845 533 l 1,35,-1
 845 389 l 1,36,-1
 465 389 l 1,37,38
 499 175 499 175 716 175 c 0,0,1
EndSplineSet
EndChar

StartChar: F
Encoding: 70 70 100
Width: 1128
VWidth: 1798
GlyphClass: 2
Flags: W
AnchorPoint: "Anchor-1" 619 -240 basechar 0
AnchorPoint: "Anchor-0" 619 1362 basechar 0
LayerCount: 2
Fore
SplineSet
993 569 m 1,0,-1
 993 370 l 1,1,-1
 399 370 l 1,2,-1
 399 -250 l 1,3,-1
 148 -250 l 1,4,-1
 148 1206 l 1,5,-1
 1076 1206 l 1,6,-1
 1076 1006 l 1,7,-1
 399 1006 l 1,8,-1
 399 569 l 1,9,-1
 993 569 l 1,0,-1
EndSplineSet
Substitution2: "'c2sc' Capitals to Small Capitals lookup 0 subtable" F.smcp
Position2: "'cpsp' Capital Spacing lookup 0 subtable" dx=36 dy=0 dh=72 dv=0
EndChar

StartChar: F.smcp
Encoding: 65598 -1 101
Width: 968
GlyphClass: 2
Flags: W
AnchorPoint: "Anchor-1" 489 10 basechar 0
AnchorPoint: "Anchor-0" 541 1320 basechar 0
LayerCount: 2
Fore
SplineSet
864 670 m 1,0,-1
 864 478 l 1,1,-1
 359 478 l 1,2,-1
 359 0 l 1,3,-1
 118 0 l 1,4,-1
 118 1165 l 1,5,-1
 929 1165 l 1,6,-1
 929 973 l 1,7,-1
 359 973 l 1,8,-1
 359 670 l 1,9,-1
 864 670 l 1,0,-1
EndSplineSet
EndChar

StartChar: G
Encoding: 71 71 102
Width: 1395
VWidth: 1798
GlyphClass: 2
Flags: W
AnchorPoint: "Anchor-1" 730 -259 basechar 0
AnchorPoint: "Anchor-0" 672 1383 basechar 0
LayerCount: 2
Fore
SplineSet
1266 494 m 1,0,-1
 1266 -62 l 1,1,2
 1235 -102 1235 -102 1170 -151 c 128,-1,3
 1105 -200 1105 -200 996.5 -235 c 128,-1,4
 888 -270 888 -270 727 -270 c 0,5,6
 544 -270 544 -270 404.5 -188 c 128,-1,7
 265 -106 265 -106 186 50.5 c 128,-1,8
 107 207 107 207 107 428 c 2,9,-1
 107 529 l 2,10,11
 107 750 107 750 179.5 905.5 c 128,-1,12
 252 1061 252 1061 387 1143.5 c 128,-1,13
 522 1226 522 1226 707 1226 c 0,14,15
 886 1226 886 1226 1004 1166.5 c 128,-1,16
 1122 1107 1122 1107 1185.5 1002 c 128,-1,17
 1249 897 1249 897 1266 762 c 1,18,-1
 1020 762 l 1,19,20
 1001 876 1001 876 931.5 951.5 c 128,-1,21
 862 1027 862 1027 711 1027 c 0,22,23
 536 1027 536 1027 448.5 897 c 128,-1,24
 361 767 361 767 361 531 c 2,25,-1
 361 428 l 2,26,27
 361 188 361 188 460.5 58.5 c 128,-1,28
 560 -71 560 -71 737 -71 c 0,29,30
 866 -71 866 -71 928 -40.5 c 128,-1,31
 990 -10 990 -10 1016 18 c 1,32,-1
 1016 307 l 1,33,-1
 713 307 l 1,34,-1
 713 494 l 1,35,-1
 1266 494 l 1,0,-1
EndSplineSet
Substitution2: "'c2sc' Capitals to Small Capitals lookup 0 subtable" G.smcp
Position2: "'cpsp' Capital Spacing lookup 0 subtable" dx=36 dy=0 dh=72 dv=0
EndChar

StartChar: G.smcp
Encoding: 65599 -1 103
Width: 1191
GlyphClass: 2
Flags: W
AnchorPoint: "Anchor-1" 591 -4 basechar 0
AnchorPoint: "Anchor-0" 584 1320 basechar 0
LayerCount: 2
Fore
SplineSet
1099 610 m 1,0,-1
 1099 146 l 1,1,2
 1070 113 1070 113 1011 75 c 128,-1,3
 952 37 952 37 857 10.5 c 128,-1,4
 762 -16 762 -16 624 -16 c 0,5,6
 464 -16 464 -16 343 50 c 128,-1,7
 222 116 222 116 154 241.5 c 128,-1,8
 86 367 86 367 86 546 c 2,9,-1
 86 619 l 2,10,11
 86 887 86 887 228 1034 c 128,-1,12
 370 1181 370 1181 607 1181 c 0,13,14
 767 1181 767 1181 870.5 1131.5 c 128,-1,15
 974 1082 974 1082 1029 995 c 128,-1,16
 1084 908 1084 908 1098 795 c 1,17,-1
 863 795 l 1,18,19
 848 884 848 884 791.5 937 c 128,-1,20
 735 990 735 990 613 990 c 0,21,22
 476 990 476 990 402 896 c 128,-1,23
 328 802 328 802 328 621 c 2,24,-1
 328 546 l 2,25,26
 328 364 328 364 408.5 269.5 c 128,-1,27
 489 175 489 175 637 175 c 0,28,29
 735 175 735 175 785 195 c 128,-1,30
 835 215 835 215 857 234 c 1,31,-1
 857 437 l 1,32,-1
 605 437 l 1,33,-1
 605 610 l 1,34,-1
 1099 610 l 1,0,-1
EndSplineSet
EndChar

StartChar: Germandbls.smcp
Encoding: 65604 -1 111
Width: 1120
GlyphClass: 2
Flags: W
LayerCount: 2
Fore
SplineSet
424 34 m 1,0,-1
 493 216 l 1,1,2
 518 199 518 199 555.5 183 c 128,-1,3
 593 167 593 167 639 167 c 0,4,5
 720 167 720 167 765.5 218.5 c 128,-1,6
 811 270 811 270 811 353 c 0,7,8
 811 442 811 442 749 479 c 128,-1,9
 687 516 687 516 568 516 c 2,10,-1
 486 516 l 1,11,-1
 486 674 l 1,12,-1
 690 932 l 1,13,14
 662 956 662 956 623.5 974.5 c 128,-1,15
 585 993 585 993 532 993 c 0,16,17
 438 993 438 993 396 924.5 c 128,-1,18
 354 856 354 856 354 747 c 2,19,-1
 354 0 l 1,20,-1
 118 0 l 1,21,-1
 118 749 l 1,22,-1
 118 749 l 1,23,24
 120 1181 120 1181 535 1181 c 0,25,26
 672 1181 672 1181 775 1123 c 128,-1,27
 878 1065 878 1065 964 970 c 1,28,-1
 715 672 l 1,29,30
 872 651 872 651 960.5 570 c 128,-1,31
 1049 489 1049 489 1049 355 c 0,32,33
 1049 233 1049 233 997.5 149 c 128,-1,34
 946 65 946 65 857 22 c 128,-1,35
 768 -21 768 -21 657 -21 c 0,36,37
 590 -21 590 -21 532 -6.5 c 128,-1,38
 474 8 474 8 424 34 c 1,0,-1
EndSplineSet
EndChar

StartChar: H
Encoding: 72 72 112
Width: 1453
VWidth: 1798
GlyphClass: 2
Flags: W
AnchorPoint: "Anchor-1" 714 -240 basechar 0
AnchorPoint: "Anchor-0" 712 1362 basechar 0
LayerCount: 2
Fore
SplineSet
399 1206 m 1,0,-1
 399 598 l 1,1,-1
 1053 598 l 1,2,-1
 1053 1206 l 1,3,-1
 1303 1206 l 1,4,-1
 1303 -250 l 1,5,-1
 1053 -250 l 1,6,-1
 1053 399 l 1,7,-1
 399 399 l 1,8,-1
 399 -250 l 1,9,-1
 148 -250 l 1,10,-1
 148 1206 l 1,11,-1
 399 1206 l 1,0,-1
EndSplineSet
Substitution2: "'c2sc' Capitals to Small Capitals lookup 0 subtable" H.smcp
Position2: "'cpsp' Capital Spacing lookup 0 subtable" dx=36 dy=0 dh=72 dv=0
EndChar

StartChar: H.smcp
Encoding: 65605 -1 113
Width: 1245
GlyphClass: 2
Flags: W
AnchorPoint: "Anchor-1" 615 10 basechar 0
AnchorPoint: "Anchor-0" 615 1320 basechar 0
LayerCount: 2
Fore
SplineSet
359 1165 m 1,0,-1
 359 669 l 1,1,-1
 886 669 l 1,2,-1
 886 1165 l 1,3,-1
 1127 1165 l 1,4,-1
 1127 0 l 1,5,-1
 886 0 l 1,6,-1
 886 477 l 1,7,-1
 359 477 l 1,8,-1
 359 0 l 1,9,-1
 118 0 l 1,10,-1
 118 1165 l 1,11,-1
 359 1165 l 1,0,-1
EndSplineSet
EndChar

StartChar: Hbar
Encoding: 294 294 114
Width: 1456
VWidth: 1798
GlyphClass: 2
Flags: W
AnchorPoint: "Anchor-1" 724 -240 basechar 0
AnchorPoint: "Anchor-0" 724 1362 basechar 0
LayerCount: 2
Fore
SplineSet
404 1206 m 1,0,-1
 404 945 l 1,1,-1
 1058 945 l 1,2,-1
 1058 1206 l 1,3,-1
 1309 1206 l 1,4,-1
 1309 945 l 1,5,-1
 1436 945 l 1,6,-1
 1436 787 l 1,7,-1
 1309 787 l 1,8,-1
 1309 -250 l 1,9,-1
 1058 -250 l 1,10,-1
 1058 399 l 1,11,-1
 404 399 l 1,12,-1
 404 -250 l 1,13,-1
 154 -250 l 1,14,-1
 154 787 l 1,15,-1
 31 787 l 1,16,-1
 31 945 l 1,17,-1
 154 945 l 1,18,-1
 154 1206 l 1,19,-1
 404 1206 l 1,0,-1
404 598 m 1,20,-1
 1058 598 l 1,21,-1
 1058 787 l 1,22,-1
 404 787 l 1,23,-1
 404 598 l 1,20,-1
EndSplineSet
Substitution2: "'c2sc' Capitals to Small Capitals lookup 0 subtable" Hbar.smcp
Position2: "'cpsp' Capital Spacing lookup 0 subtable" dx=36 dy=0 dh=72 dv=0
EndChar

StartChar: Hbar.smcp
Encoding: 65606 -1 115
Width: 1294
GlyphClass: 2
Flags: W
AnchorPoint: "Anchor-1" 615 10 basechar 0
AnchorPoint: "Anchor-0" 615 1320 basechar 0
LayerCount: 2
Fore
SplineSet
384 1165 m 1,0,-1
 384 1015 l 1,1,-1
 911 1015 l 1,2,-1
 911 1165 l 1,3,-1
 1152 1165 l 1,4,-1
 1152 1015 l 1,5,-1
 1242 1015 l 1,6,-1
 1242 848 l 1,7,-1
 1152 848 l 1,8,-1
 1152 0 l 1,9,-1
 911 0 l 1,10,-1
 911 477 l 1,11,-1
 384 477 l 1,12,-1
 384 0 l 1,13,-1
 143 0 l 1,14,-1
 143 848 l 1,15,-1
 52 848 l 1,16,-1
 52 1015 l 1,17,-1
 143 1015 l 1,18,-1
 143 1165 l 1,19,-1
 384 1165 l 1,0,-1
384 669 m 1,20,-1
 911 669 l 1,21,-1
 911 848 l 1,22,-1
 384 848 l 1,23,-1
 384 669 l 1,20,-1
EndSplineSet
EndChar

StartChar: I
Encoding: 73 73 118
Width: 580
VWidth: 1798
GlyphClass: 2
Flags: W
AnchorPoint: "Anchor-1" 279 -241 basechar 0
AnchorPoint: "Anchor-0" 279 1362 basechar 0
LayerCount: 2
Fore
SplineSet
416 1206 m 1,0,-1
 416 -250 l 1,1,-1
 165 -250 l 1,2,-1
 165 1206 l 1,3,-1
 416 1206 l 1,0,-1
EndSplineSet
Substitution2: "'c2sc' Capitals to Small Capitals lookup 0 subtable" I.smcp
Position2: "'cpsp' Capital Spacing lookup 0 subtable" dx=36 dy=0 dh=72 dv=0
EndChar

StartChar: I.smcp
Encoding: 65608 -1 119
Width: 510
GlyphClass: 2
Flags: W
AnchorPoint: "Anchor-1" 244 4 basechar 0
AnchorPoint: "Anchor-0" 244 1320 basechar 0
LayerCount: 2
Fore
SplineSet
376 1165 m 1,0,-1
 376 0 l 1,1,-1
 134 0 l 1,2,-1
 134 1165 l 1,3,-1
 376 1165 l 1,0,-1
EndSplineSet
EndChar

StartChar: J
Encoding: 74 74 140
Width: 1138
VWidth: 1798
GlyphClass: 2
Flags: W
AnchorPoint: "Anchor-1" 512 -260 basechar 0
AnchorPoint: "Anchor-0" 852 1349 basechar 0
LayerCount: 2
Fore
SplineSet
747 187 m 2,0,-1
 747 1206 l 1,1,-1
 997 1206 l 1,2,-1
 997 187 l 2,3,4
 997 42 997 42 935 -60 c 128,-1,5
 873 -162 873 -162 766 -216 c 128,-1,6
 659 -270 659 -270 523 -270 c 0,7,8
 384 -270 384 -270 276.5 -223 c 128,-1,9
 169 -176 169 -176 108 -79 c 128,-1,10
 47 18 47 18 47 167 c 1,11,-1
 299 167 l 1,12,13
 299 39 299 39 360 -16 c 128,-1,14
 421 -71 421 -71 523 -71 c 0,15,16
 621 -71 621 -71 684 -5 c 128,-1,17
 747 61 747 61 747 187 c 2,0,-1
EndSplineSet
Substitution2: "'c2sc' Capitals to Small Capitals lookup 0 subtable" J.smcp
Position2: "'cpsp' Capital Spacing lookup 0 subtable" dx=36 dy=0 dh=72 dv=0
EndChar

StartChar: J.smcp
Encoding: 65619 -1 141
Width: 982
GlyphClass: 2
Flags: W
AnchorPoint: "Anchor-1" 457 -10 basechar 0
AnchorPoint: "Anchor-0" 734 1320 basechar 0
LayerCount: 2
Fore
SplineSet
627 367 m 2,0,-1
 627 1165 l 1,1,-1
 869 1165 l 1,2,-1
 869 367 l 2,3,4
 869 247 869 247 815.5 161 c 128,-1,5
 762 75 762 75 670 29.5 c 128,-1,6
 578 -16 578 -16 464 -16 c 0,7,8
 277 -16 277 -16 157.5 73.5 c 128,-1,9
 38 163 38 163 38 352 c 1,10,-1
 280 352 l 1,11,12
 280 259 280 259 328.5 217 c 128,-1,13
 377 175 377 175 464 175 c 0,14,15
 540 175 540 175 583.5 224 c 128,-1,16
 627 273 627 273 627 367 c 2,0,-1
EndSplineSet
EndChar

StartChar: K
Encoding: 75 75 144
Width: 1294
VWidth: 1798
GlyphClass: 2
Flags: W
AnchorPoint: "Anchor-1" 660 -160 basechar 0
AnchorPoint: "Anchor-0" 605 1345 basechar 0
LayerCount: 2
Fore
SplineSet
1004 -250 m 1,0,-1
 566 380 l 1,1,-1
 399 203 l 1,2,-1
 399 -250 l 1,3,-1
 148 -250 l 1,4,-1
 148 1206 l 1,5,-1
 399 1206 l 1,6,-1
 399 515 l 1,7,-1
 544 694 l 1,8,-1
 968 1206 l 1,9,-1
 1274 1206 l 1,10,-1
 732 562 l 1,11,-1
 1302 -250 l 1,12,-1
 1004 -250 l 1,0,-1
EndSplineSet
Substitution2: "'salt' Stylistic Alternatives lookup 13 subtable" K.alt
Substitution2: "'c2sc' Capitals to Small Capitals lookup 0 subtable" K.smcp
Position2: "'cpsp' Capital Spacing lookup 0 subtable" dx=36 dy=0 dh=72 dv=0
EndChar

StartChar: K.alt
Encoding: 65621 -1 145
Width: 1320
GlyphClass: 2
Flags: W
LayerCount: 2
Fore
SplineSet
1023 0 m 1,0,-1
 579 626 l 1,1,-1
 403 626 l 1,2,-1
 403 0 l 1,3,-1
 153 0 l 1,4,-1
 153 1456 l 1,5,-1
 403 1456 l 1,6,-1
 403 844 l 1,7,-1
 548 844 l 1,8,-1
 972 1456 l 1,9,-1
 1279 1456 l 1,10,-1
 783 760 l 1,11,-1
 1324 0 l 1,12,-1
 1023 0 l 1,0,-1
EndSplineSet
EndChar

StartChar: K.smcp
Encoding: 65622 -1 146
Width: 1118
GlyphClass: 2
Flags: W
AnchorPoint: "Anchor-1" 532 6 basechar 0
AnchorPoint: "Anchor-0" 518 1320 basechar 0
LayerCount: 2
Fore
SplineSet
839 0 m 1,0,-1
 497 477 l 1,1,-1
 359 342 l 1,2,-1
 359 0 l 1,3,-1
 118 0 l 1,4,-1
 118 1165 l 1,5,-1
 359 1165 l 1,6,-1
 359 644 l 1,7,-1
 472 782 l 1,8,-1
 806 1165 l 1,9,-1
 1106 1165 l 1,10,-1
 660 645 l 1,11,-1
 1127 0 l 1,12,-1
 839 0 l 1,0,-1
EndSplineSet
EndChar

StartChar: L
Encoding: 76 76 149
Width: 1106
VWidth: 1798
GlyphClass: 2
Flags: W
AnchorPoint: "Anchor-1" 620 -240 basechar 0
AnchorPoint: "Anchor-0" 264 1346 basechar 0
LayerCount: 2
Fore
SplineSet
1060 -51 m 1,0,-1
 1060 -250 l 1,1,-1
 148 -250 l 1,2,-1
 148 1206 l 1,3,-1
 399 1206 l 1,4,-1
 399 -51 l 1,5,-1
 1060 -51 l 1,0,-1
EndSplineSet
Substitution2: "'c2sc' Capitals to Small Capitals lookup 0 subtable" L.smcp
Position2: "'cpsp' Capital Spacing lookup 0 subtable" dx=36 dy=0 dh=72 dv=0
EndChar

StartChar: L.smcp
Encoding: 65624 -1 150
Width: 951
GlyphClass: 2
Flags: W
AnchorPoint: "Anchor-1" 527 8 basechar 0
AnchorPoint: "Anchor-0" 233 1320 basechar 0
LayerCount: 2
Fore
SplineSet
914 191 m 1,0,-1
 914 0 l 1,1,-1
 118 0 l 1,2,-1
 118 1165 l 1,3,-1
 359 1165 l 1,4,-1
 359 191 l 1,5,-1
 914 191 l 1,0,-1
EndSplineSet
EndChar

StartChar: Lslash
Encoding: 321 321 161
Width: 1124
VWidth: 1798
GlyphClass: 2
Flags: W
AnchorPoint: "Anchor-1" 618 -240 basechar 0
AnchorPoint: "Anchor-0" 262 1346 basechar 0
LayerCount: 2
Fore
SplineSet
1078 -51 m 1,0,-1
 1078 -250 l 1,1,-1
 166 -250 l 1,2,-1
 166 401 l 1,3,-1
 32 361 l 1,4,-1
 32 505 l 1,5,-1
 166 545 l 1,6,-1
 166 1206 l 1,7,-1
 416 1206 l 1,8,-1
 416 620 l 1,9,-1
 654 692 l 1,10,-1
 654 548 l 1,11,-1
 416 476 l 1,12,-1
 416 -51 l 1,13,-1
 1078 -51 l 1,0,-1
EndSplineSet
Substitution2: "'c2sc' Capitals to Small Capitals lookup 0 subtable" Lslash.smcp
Position2: "'cpsp' Capital Spacing lookup 0 subtable" dx=36 dy=0 dh=72 dv=0
EndChar

StartChar: Lslash.smcp
Encoding: 65631 -1 162
Width: 964
GlyphClass: 2
Flags: W
AnchorPoint: "Anchor-1" 527 8 basechar 0
AnchorPoint: "Anchor-0" 233 1320 basechar 0
LayerCount: 2
Fore
SplineSet
926 191 m 1,0,-1
 926 0 l 1,1,-1
 130 0 l 1,2,-1
 130 520 l 1,3,-1
 5 482 l 1,4,-1
 5 627 l 1,5,-1
 130 665 l 1,6,-1
 130 1165 l 1,7,-1
 371 1165 l 1,8,-1
 371 737 l 1,9,-1
 628 814 l 1,10,-1
 628 669 l 1,11,-1
 371 592 l 1,12,-1
 371 191 l 1,13,-1
 926 191 l 1,0,-1
EndSplineSet
EndChar

StartChar: M
Encoding: 77 77 163
Width: 1791
VWidth: 1798
GlyphClass: 2
Flags: W
AnchorPoint: "Anchor-1" 893 -240 basechar 0
AnchorPoint: "Anchor-0" 890 1351 basechar 0
LayerCount: 2
Fore
SplineSet
148 1206 m 1,0,-1
 474 1206 l 1,1,-1
 895 83 l 1,2,-1
 1315 1206 l 1,3,-1
 1642 1206 l 1,4,-1
 1642 -250 l 1,5,-1
 1391 -250 l 1,6,-1
 1391 234 l 1,7,-1
 1416 883 l 1,8,-1
 983 -250 l 1,9,-1
 805 -250 l 1,10,-1
 373 882 l 1,11,-1
 398 234 l 1,12,-1
 398 -250 l 1,13,-1
 148 -250 l 1,14,-1
 148 1206 l 1,0,-1
EndSplineSet
Substitution2: "'unic' Unicase lookup 2 subtable" M.unic
Substitution2: "'c2sc' Capitals to Small Capitals lookup 0 subtable" M.smcp
Position2: "'cpsp' Capital Spacing lookup 0 subtable" dx=36 dy=0 dh=72 dv=0
EndChar

StartChar: M.smcp
Encoding: 65632 -1 164
Width: 1541
GlyphClass: 2
Flags: W
AnchorPoint: "Anchor-1" 765 10 basechar 0
AnchorPoint: "Anchor-0" 765 1320 basechar 0
LayerCount: 2
Fore
SplineSet
118 1165 m 1,0,-1
 433 1165 l 1,1,-1
 770 316 l 1,2,-1
 1106 1165 l 1,3,-1
 1423 1165 l 1,4,-1
 1423 0 l 1,5,-1
 1182 0 l 1,6,-1
 1182 320 l 1,7,-1
 1206 894 l 1,8,-1
 852 0 l 1,9,-1
 687 0 l 1,10,-1
 334 890 l 1,11,-1
 359 320 l 1,12,-1
 359 0 l 1,13,-1
 118 0 l 1,14,-1
 118 1165 l 1,0,-1
EndSplineSet
EndChar

StartChar: M.unic
Encoding: 65633 -1 165
Width: 2219
GlyphClass: 2
Flags: W
AnchorPoint: "Anchor-1" 1118 10 basechar 0
AnchorPoint: "Anchor-0" 1114 1632 basechar 0
LayerCount: 2
Fore
SplineSet
730 1269 m 0,0,1
 611 1269 611 1269 523 1195.5 c 128,-1,2
 435 1122 435 1122 399 1010 c 1,3,-1
 399 0 l 1,4,-1
 148 0 l 1,5,-1
 148 1456 l 1,6,-1
 385 1456 l 1,7,-1
 395 1287 l 1,8,9
 468 1374 468 1374 573.5 1425 c 128,-1,10
 679 1476 679 1476 809 1476 c 0,11,12
 943 1476 943 1476 1040 1422 c 128,-1,13
 1137 1368 1137 1368 1187 1254 c 1,14,15
 1263 1354 1263 1354 1381.5 1415 c 128,-1,16
 1500 1476 1500 1476 1644 1476 c 0,17,18
 1844 1476 1844 1476 1958.5 1362 c 128,-1,19
 2073 1248 2073 1248 2073 976 c 2,20,-1
 2073 0 l 1,21,-1
 1823 0 l 1,22,-1
 1823 960 l 2,23,24
 1823 1130 1823 1130 1756 1199.5 c 128,-1,25
 1689 1269 1689 1269 1567 1269 c 0,26,27
 1447 1269 1447 1269 1359 1195 c 128,-1,28
 1271 1121 1271 1121 1236 1008 c 1,29,30
 1236 992 1236 992 1236 976 c 2,31,-1
 1236 0 l 1,32,-1
 986 0 l 1,33,-1
 986 960 l 2,34,35
 986 1130 986 1130 919 1199.5 c 128,-1,36
 852 1269 852 1269 730 1269 c 0,0,1
EndSplineSet
EndChar

StartChar: N
Encoding: 78 78 166
Width: 1453
VWidth: 1798
GlyphClass: 2
Flags: W
AnchorPoint: "Anchor-1" 720 -240 basechar 0
AnchorPoint: "Anchor-0" 726 1351 basechar 0
LayerCount: 2
Fore
SplineSet
1303 1206 m 1,0,-1
 1303 -250 l 1,1,-1
 1052 -250 l 1,2,-1
 399 793 l 1,3,-1
 399 -250 l 1,4,-1
 148 -250 l 1,5,-1
 148 1206 l 1,6,-1
 399 1206 l 1,7,-1
 1054 161 l 1,8,-1
 1054 1206 l 1,9,-1
 1303 1206 l 1,0,-1
EndSplineSet
Substitution2: "'unic' Unicase lookup 2 subtable" N.unic
Substitution2: "'c2sc' Capitals to Small Capitals lookup 0 subtable" N.smcp
Position2: "'cpsp' Capital Spacing lookup 0 subtable" dx=36 dy=0 dh=72 dv=0
EndChar

StartChar: N.smcp
Encoding: 65634 -1 167
Width: 1244
GlyphClass: 2
Flags: W
AnchorPoint: "Anchor-1" 619 4 basechar 0
AnchorPoint: "Anchor-0" 624 1320 basechar 0
LayerCount: 2
Fore
SplineSet
1127 1165 m 1,0,-1
 1127 0 l 1,1,-1
 885 0 l 1,2,-1
 359 803 l 1,3,-1
 359 0 l 1,4,-1
 118 0 l 1,5,-1
 118 1165 l 1,6,-1
 359 1165 l 1,7,-1
 885 362 l 1,8,-1
 885 1165 l 1,9,-1
 1127 1165 l 1,0,-1
EndSplineSet
EndChar

StartChar: N.unic
Encoding: 65635 -1 168
Width: 1453
GlyphClass: 2
Flags: W
AnchorPoint: "Anchor-1" 720 10 basechar 0
AnchorPoint: "Anchor-0" 726 1632 basechar 0
LayerCount: 2
Fore
SplineSet
766 1269 m 0,0,1
 633 1269 633 1269 535 1190.5 c 128,-1,2
 437 1112 437 1112 399 992 c 1,3,-1
 399 0 l 1,4,-1
 148 0 l 1,5,-1
 148 1456 l 1,6,-1
 385 1456 l 1,7,-1
 396 1273 l 1,8,9
 473 1366 473 1366 588 1421 c 128,-1,10
 703 1476 703 1476 845 1476 c 0,11,12
 1057 1476 1057 1476 1180 1359 c 128,-1,13
 1303 1242 1303 1242 1303 964 c 2,14,-1
 1303 0 l 1,15,-1
 1053 0 l 1,16,-1
 1053 948 l 2,17,18
 1053 1124 1053 1124 978 1196.5 c 128,-1,19
 903 1269 903 1269 766 1269 c 0,0,1
EndSplineSet
EndChar

StartChar: NameMe.65564
Encoding: 65638 -1 172
Width: 551
GlyphClass: 1
Flags: W
LayerCount: 2
Fore
SplineSet
146 1258 m 1,0,-1
 359 1258 l 1,1,-1
 359 450 l 2,2,3
 359 325 359 325 401.5 277 c 128,-1,4
 444 229 444 229 546 229 c 2,5,-1
 571 229 l 1,6,-1
 571 0 l 1,7,-1
 546 0 l 2,8,9
 343 0 343 0 244.5 107.5 c 128,-1,10
 146 215 146 215 146 439 c 2,11,-1
 146 1258 l 1,0,-1
EndSplineSet
EndChar

StartChar: NameMe.65565
Encoding: 65639 -1 173
Width: 711
GlyphClass: 1
Flags: W
LayerCount: 2
Fore
SplineSet
518 221 m 0,0,1
 534 221 534 221 564.5 217 c 128,-1,2
 595 213 595 213 622 202 c 1,3,-1
 601 100 l 1,4,5
 554 114 554 114 518 114 c 0,6,7
 453 114 453 114 414 74 c 128,-1,8
 375 34 375 34 375 -10 c 0,9,10
 375 -31 375 -31 381.5 -38 c 128,-1,11
 388 -45 388 -45 410 -45 c 2,12,-1
 504 -45 l 2,13,14
 563 -45 563 -45 593.5 -76 c 128,-1,15
 624 -107 624 -107 624 -154 c 0,16,17
 624 -287 624 -287 524 -354 c 128,-1,18
 424 -421 424 -421 274 -421 c 0,19,20
 217 -421 217 -421 170 -411 c 128,-1,21
 123 -401 123 -401 84 -383 c 1,22,-1
 132 -283 l 1,23,24
 161 -297 161 -297 195 -305.5 c 128,-1,25
 229 -314 229 -314 276 -314 c 0,26,27
 332 -314 332 -314 389 -298 c 128,-1,28
 446 -282 446 -282 484.5 -251 c 128,-1,29
 523 -220 523 -220 523 -175 c 0,30,31
 523 -163 523 -163 510 -158.5 c 128,-1,32
 497 -154 497 -154 479 -154 c 2,33,-1
 405 -154 l 2,34,35
 269 -154 269 -154 269 -18 c 0,36,37
 269 55 269 55 304.5 108.5 c 128,-1,38
 340 162 340 162 397 191.5 c 128,-1,39
 454 221 454 221 518 221 c 0,0,1
EndSplineSet
EndChar

StartChar: NameMe.65583
Encoding: 65641 -1 175
Width: 471
GlyphClass: 1
Flags: W
LayerCount: 2
Fore
SplineSet
-50 1332 m 1,0,-1
 -30 1419 l 1,1,2
 -16 1407 -16 1407 5 1392 c 128,-1,3
 26 1377 26 1377 45 1369 c 1,4,5
 125 1504 125 1504 191 1564 c 128,-1,6
 257 1624 257 1624 337 1624 c 0,7,8
 419 1624 419 1624 471 1573 c 128,-1,9
 523 1522 523 1522 523 1445 c 0,10,11
 523 1342 523 1342 451 1301.5 c 128,-1,12
 379 1261 379 1261 207 1261 c 2,13,-1
 182 1261 l 2,14,15
 91 1261 91 1261 32 1278 c 128,-1,16
 -27 1295 -27 1295 -50 1332 c 1,0,-1
205 1355 m 2,17,18
 335 1355 335 1355 383 1372 c 128,-1,19
 431 1389 431 1389 431 1441 c 0,20,21
 431 1479 431 1479 407 1503.5 c 128,-1,22
 383 1528 383 1528 342 1528 c 0,23,24
 290 1528 290 1528 247 1489 c 128,-1,25
 204 1450 204 1450 142 1355 c 1,26,-1
 205 1355 l 2,17,18
EndSplineSet
EndChar

StartChar: NameMe.65703
Encoding: 65642 -1 176
Width: 505
GlyphClass: 1
Flags: W
LayerCount: 2
Fore
SplineSet
359 1257 m 1,0,-1
 359 1 l 1,1,-1
 146 1 l 1,2,-1
 146 1257 l 1,3,-1
 359 1257 l 1,0,-1
EndSplineSet
EndChar

StartChar: O
Encoding: 79 79 186
Width: 1411
VWidth: 1798
GlyphClass: 2
Flags: W
AnchorPoint: "Anchor-1" 707 -250 basechar 0
AnchorPoint: "Anchor-0" 707 1353 basechar 0
LayerCount: 2
Fore
SplineSet
1309 518 m 2,0,-1
 1309 438 l 2,1,2
 1309 218 1309 218 1233.5 59.5 c 128,-1,3
 1158 -99 1158 -99 1022.5 -184.5 c 128,-1,4
 887 -270 887 -270 707 -270 c 0,5,6
 529 -270 529 -270 392.5 -184.5 c 128,-1,7
 256 -99 256 -99 178.5 59.5 c 128,-1,8
 101 218 101 218 101 438 c 2,9,-1
 101 518 l 2,10,11
 101 738 101 738 178 896.5 c 128,-1,12
 255 1055 255 1055 391 1140.5 c 128,-1,13
 527 1226 527 1226 705 1226 c 0,14,15
 885 1226 885 1226 1021 1140.5 c 128,-1,16
 1157 1055 1157 1055 1233 896.5 c 128,-1,17
 1309 738 1309 738 1309 518 c 2,0,-1
1058 438 m 2,18,-1
 1058 520 l 2,19,20
 1058 763 1058 763 965 892 c 128,-1,21
 872 1021 872 1021 705 1021 c 0,22,23
 540 1021 540 1021 446.5 892 c 128,-1,24
 353 763 353 763 353 520 c 2,25,-1
 353 438 l 2,26,27
 353 194 353 194 447.5 64 c 128,-1,28
 542 -66 542 -66 707 -66 c 0,29,30
 875 -66 875 -66 966.5 64 c 128,-1,31
 1058 194 1058 194 1058 438 c 2,18,-1
EndSplineSet
Substitution2: "'c2sc' Capitals to Small Capitals lookup 0 subtable" O.smcp
Position2: "'cpsp' Capital Spacing lookup 0 subtable" dx=36 dy=0 dh=72 dv=0
EndChar

StartChar: O.smcp
Encoding: 65649 -1 187
Width: 1213
GlyphClass: 2
Flags: W
AnchorPoint: "Anchor-1" 631 0 basechar 0
AnchorPoint: "Anchor-0" 606 1320 basechar 0
LayerCount: 2
Fore
SplineSet
1134 610 m 2,0,-1
 1134 554 l 2,1,2
 1134 377 1134 377 1067.5 249.5 c 128,-1,3
 1001 122 1001 122 883 53 c 128,-1,4
 765 -16 765 -16 608 -16 c 0,5,6
 452 -16 452 -16 332.5 53 c 128,-1,7
 213 122 213 122 145.5 249.5 c 128,-1,8
 78 377 78 377 78 554 c 2,9,-1
 78 610 l 2,10,11
 78 787 78 787 145 915 c 128,-1,12
 212 1043 212 1043 331 1112 c 128,-1,13
 450 1181 450 1181 606 1181 c 0,14,15
 763 1181 763 1181 882 1112 c 128,-1,16
 1001 1043 1001 1043 1067.5 915 c 128,-1,17
 1134 787 1134 787 1134 610 c 2,0,-1
893 554 m 2,18,-1
 893 612 l 2,19,20
 893 793 893 793 817.5 891 c 128,-1,21
 742 989 742 989 606 989 c 0,22,23
 471 989 471 989 395.5 891 c 128,-1,24
 320 793 320 793 320 612 c 2,25,-1
 320 554 l 2,26,27
 320 373 320 373 396.5 274 c 128,-1,28
 473 175 473 175 608 175 c 0,29,30
 744 175 744 175 818.5 274 c 128,-1,31
 893 373 893 373 893 554 c 2,18,-1
EndSplineSet
EndChar

StartChar: OE
Encoding: 338 338 188
Width: 1968
VWidth: 1798
GlyphClass: 2
Flags: W
AnchorPoint: "Anchor-1" 953 -250 basechar 0
AnchorPoint: "Anchor-0" 953 1353 basechar 0
LayerCount: 2
Fore
SplineSet
682 1227 m 0,0,1
 759 1227 759 1227 833.5 1220.5 c 128,-1,2
 908 1214 908 1214 975 1206 c 1,3,-1
 1839 1206 l 1,4,-1
 1839 1006 l 1,5,-1
 1142 1006 l 1,6,-1
 1142 598 l 1,7,-1
 1743 598 l 1,8,-1
 1743 402 l 1,9,-1
 1142 402 l 1,10,-1
 1142 -51 l 1,11,-1
 1844 -51 l 1,12,-1
 1844 -250 l 1,13,-1
 975 -250 l 1,14,15
 908 -257 908 -257 834.5 -264 c 128,-1,16
 761 -271 761 -271 684 -271 c 0,17,18
 511 -271 511 -271 379.5 -195.5 c 128,-1,19
 248 -120 248 -120 174.5 15 c 128,-1,20
 101 150 101 150 101 326 c 2,21,-1
 101 630 l 2,22,23
 101 807 101 807 174 941.5 c 128,-1,24
 247 1076 247 1076 378 1151.5 c 128,-1,25
 509 1227 509 1227 682 1227 c 0,0,1
341 326 m 2,26,27
 341 127 341 127 434 24 c 128,-1,28
 527 -79 527 -79 684 -79 c 0,29,30
 738 -79 738 -79 790 -75.5 c 128,-1,31
 842 -72 842 -72 891 -65 c 1,32,-1
 891 1021 l 1,33,34
 842 1028 842 1028 789.5 1031.5 c 128,-1,35
 737 1035 737 1035 682 1035 c 0,36,37
 525 1035 525 1035 433 933.5 c 128,-1,38
 341 832 341 832 341 632 c 2,39,-1
 341 326 l 2,26,27
EndSplineSet
Substitution2: "'c2sc' Capitals to Small Capitals lookup 0 subtable" OE.smcp
Position2: "'cpsp' Capital Spacing lookup 0 subtable" dx=36 dy=0 dh=72 dv=0
EndChar

StartChar: OE.smcp
Encoding: 65650 -1 189
Width: 1688
GlyphClass: 2
Flags: W
LayerCount: 2
Fore
SplineSet
999 1165 m 2,0,-1
 1645 1165 l 1,1,-1
 1645 973 l 1,2,-1
 1055 973 l 1,3,-1
 1055 698 l 1,4,-1
 1560 698 l 1,5,-1
 1560 507 l 1,6,-1
 1055 507 l 1,7,-1
 1055 191 l 1,8,-1
 1646 191 l 1,9,-1
 1646 0 l 1,10,-1
 1001 0 l 2,11,12
 883 0 883 0 777 -8 c 128,-1,13
 671 -16 671 -16 608 -16 c 0,14,15
 452 -16 452 -16 332.5 53 c 128,-1,16
 213 122 213 122 145.5 249.5 c 128,-1,17
 78 377 78 377 78 554 c 2,18,-1
 78 610 l 2,19,20
 78 787 78 787 145 915 c 128,-1,21
 212 1043 212 1043 331 1112 c 128,-1,22
 450 1181 450 1181 606 1181 c 0,23,24
 669 1181 669 1181 777.5 1173 c 128,-1,25
 886 1165 886 1165 999 1165 c 2,0,-1
320 554 m 2,26,27
 320 373 320 373 396.5 274 c 128,-1,28
 473 175 473 175 608 175 c 0,29,30
 634 175 634 175 692.5 177.5 c 128,-1,31
 751 180 751 180 814 184 c 1,32,-1
 814 979 l 1,33,34
 750 983 750 983 690.5 986 c 128,-1,35
 631 989 631 989 606 989 c 0,36,37
 471 989 471 989 395.5 891 c 128,-1,38
 320 793 320 793 320 612 c 2,39,-1
 320 554 l 2,26,27
EndSplineSet
EndChar

StartChar: Ohorn
Encoding: 416 416 200
Width: 1425
VWidth: 1798
GlyphClass: 2
Flags: W
AnchorPoint: "Anchor-1" 692 -250 basechar 0
AnchorPoint: "Anchor-0" 703 1345 basechar 0
LayerCount: 2
Fore
SplineSet
1300 518 m 2,0,-1
 1300 438 l 2,1,2
 1300 218 1300 218 1224.5 59.5 c 128,-1,3
 1149 -99 1149 -99 1013.5 -184.5 c 128,-1,4
 878 -270 878 -270 697 -270 c 0,5,6
 519 -270 519 -270 382.5 -184.5 c 128,-1,7
 246 -99 246 -99 168.5 59.5 c 128,-1,8
 91 218 91 218 91 438 c 2,9,-1
 91 518 l 2,10,11
 91 738 91 738 168 896.5 c 128,-1,12
 245 1055 245 1055 381 1140.5 c 128,-1,13
 517 1226 517 1226 695 1226 c 0,14,15
 955 1226 955 1226 1118 1053 c 1,16,17
 1207 1066 1207 1066 1240.5 1138 c 128,-1,18
 1274 1210 1274 1210 1274 1329 c 1,19,-1
 1455 1329 l 1,20,21
 1455 1165 1455 1165 1395 1060.5 c 128,-1,22
 1335 956 1335 956 1211 922 c 1,23,24
 1254 840 1254 840 1277 738.5 c 128,-1,25
 1300 637 1300 637 1300 518 c 2,0,-1
1048 438 m 2,26,-1
 1048 520 l 2,27,28
 1048 763 1048 763 955 892 c 128,-1,29
 862 1021 862 1021 695 1021 c 0,30,31
 531 1021 531 1021 437 892 c 128,-1,32
 343 763 343 763 343 520 c 2,33,-1
 343 438 l 2,34,35
 343 194 343 194 438 64 c 128,-1,36
 533 -66 533 -66 697 -66 c 0,37,38
 866 -66 866 -66 957 64 c 128,-1,39
 1048 194 1048 194 1048 438 c 2,26,-1
EndSplineSet
EndChar

StartChar: Omega
Encoding: 8486 8486 205
Width: 1369
GlyphClass: 2
Flags: W
AnchorPoint: "Anchor-1" 679 10 basechar 0
LayerCount: 2
Fore
SplineSet
119 0 m 1,0,-1
 119 200 l 1,1,-1
 343 200 l 1,2,3
 239 296 239 296 173.5 441 c 128,-1,4
 108 586 108 586 108 751 c 2,5,-1
 108 851 l 2,6,7
 108 1036 108 1036 179.5 1176.5 c 128,-1,8
 251 1317 251 1317 378.5 1396.5 c 128,-1,9
 506 1476 506 1476 674 1476 c 0,10,11
 843 1476 843 1476 971 1396.5 c 128,-1,12
 1099 1317 1099 1317 1171 1176.5 c 128,-1,13
 1243 1036 1243 1036 1243 851 c 2,14,-1
 1243 751 l 2,15,16
 1243 586 1243 586 1178 441 c 128,-1,17
 1113 296 1113 296 1010 200 c 1,18,-1
 1231 200 l 1,19,-1
 1231 0 l 1,20,-1
 737 0 l 1,21,-1
 737 205 l 1,22,23
 841 237 841 237 907 369 c 128,-1,24
 973 501 973 501 973 751 c 2,25,-1
 973 853 l 2,26,27
 973 1060 973 1060 893 1168 c 128,-1,28
 813 1276 813 1276 674 1276 c 0,29,30
 538 1276 538 1276 458.5 1168 c 128,-1,31
 379 1060 379 1060 379 853 c 2,32,-1
 379 751 l 2,33,34
 379 499 379 499 446.5 367.5 c 128,-1,35
 514 236 514 236 621 205 c 1,36,-1
 621 0 l 1,37,-1
 119 0 l 1,0,-1
EndSplineSet
Substitution2: "'c2sc' Capitals to Small Capitals lookup 0 subtable" Omega.smcp
Position2: "'cpsp' Capital Spacing lookup 0 subtable" dx=36 dy=0 dh=72 dv=0
EndChar

StartChar: Omega.smcp
Encoding: 65658 -1 206
Width: 1248
GlyphClass: 2
Flags: W
AnchorPoint: "Anchor-1" 637 10 basechar 0
LayerCount: 2
Fore
SplineSet
108 0 m 1,0,-1
 108 193 l 1,1,-1
 292 193 l 1,2,3
 200 266 200 266 147 379 c 128,-1,4
 94 492 94 492 94 635 c 2,5,-1
 94 669 l 2,6,7
 94 809 94 809 156.5 925 c 128,-1,8
 219 1041 219 1041 337 1111 c 128,-1,9
 455 1181 455 1181 622 1181 c 0,10,11
 790 1181 790 1181 909 1111 c 128,-1,12
 1028 1041 1028 1041 1090.5 925 c 128,-1,13
 1153 809 1153 809 1153 670 c 2,14,-1
 1153 635 l 2,15,16
 1153 492 1153 492 1100.5 379 c 128,-1,17
 1048 266 1048 266 956 193 c 1,18,-1
 1146 193 l 1,19,-1
 1146 0 l 1,20,-1
 685 0 l 1,21,-1
 685 198 l 1,22,23
 801 235 801 235 856 334.5 c 128,-1,24
 911 434 911 434 911 612 c 2,25,-1
 911 654 l 2,26,27
 911 800 911 800 842.5 894.5 c 128,-1,28
 774 989 774 989 622 989 c 0,29,30
 472 989 472 989 404 894.5 c 128,-1,31
 336 800 336 800 336 654 c 2,32,-1
 336 612 l 2,33,34
 336 434 336 434 395.5 334.5 c 128,-1,35
 455 235 455 235 567 198 c 1,36,-1
 567 0 l 1,37,-1
 108 0 l 1,0,-1
EndSplineSet
EndChar

StartChar: Oslash
Encoding: 216 216 207
Width: 1409
VWidth: 1798
GlyphClass: 2
Flags: W
AnchorPoint: "Anchor-0" 715 1424 basechar 0
LayerCount: 2
Fore
SplineSet
1314 518 m 2,0,-1
 1314 438 l 2,1,2
 1314 218 1314 218 1238 59.5 c 128,-1,3
 1162 -99 1162 -99 1026.5 -184.5 c 128,-1,4
 891 -270 891 -270 711 -270 c 0,5,6
 544 -270 544 -270 413 -194 c 1,7,-1
 322 -344 l 1,8,-1
 155 -344 l 1,9,-1
 299 -107 l 1,10,11
 207 -15 207 -15 156 123 c 128,-1,12
 105 261 105 261 105 438 c 2,13,-1
 105 518 l 2,14,15
 105 738 105 738 182 896.5 c 128,-1,16
 259 1055 259 1055 395 1140.5 c 128,-1,17
 531 1226 531 1226 709 1226 c 0,18,19
 902 1226 902 1226 1046 1127 c 1,20,-1
 1131 1267 l 1,21,-1
 1296 1267 l 1,22,-1
 1152 1030 l 1,23,24
 1229 938 1229 938 1271.5 809 c 128,-1,25
 1314 680 1314 680 1314 518 c 2,0,-1
357 438 m 2,26,27
 357 232 357 232 426 104 c 1,28,-1
 931 937 l 1,29,30
 844 1021 844 1021 709 1021 c 0,31,32
 544 1021 544 1021 450.5 892 c 128,-1,33
 357 763 357 763 357 520 c 2,34,-1
 357 438 l 2,26,27
1062 438 m 2,35,-1
 1062 520 l 2,36,37
 1062 688 1062 688 1016 804 c 1,38,-1
 524 -10 l 1,39,40
 603 -66 603 -66 711 -66 c 0,41,42
 879 -66 879 -66 970.5 64 c 128,-1,43
 1062 194 1062 194 1062 438 c 2,35,-1
EndSplineSet
Substitution2: "'c2sc' Capitals to Small Capitals lookup 0 subtable" Oslash.smcp
Position2: "'cpsp' Capital Spacing lookup 0 subtable" dx=36 dy=0 dh=72 dv=0
EndChar

StartChar: Oslash.smcp
Encoding: 65659 -1 208
Width: 1213
GlyphClass: 2
Flags: W
AnchorPoint: "Anchor-1" 631 0 basechar 0
AnchorPoint: "Anchor-0" 606 1320 basechar 0
LayerCount: 2
Fore
SplineSet
1134 610 m 2,0,-1
 1134 554 l 2,1,2
 1134 377 1134 377 1067.5 249.5 c 128,-1,3
 1001 122 1001 122 883 53 c 128,-1,4
 765 -16 765 -16 608 -16 c 0,5,6
 448 -16 448 -16 326 57 c 1,7,-1
 247 -57 l 1,8,-1
 88 -57 l 1,9,-1
 224 138 l 1,10,11
 155 212 155 212 116.5 317 c 128,-1,12
 78 422 78 422 78 554 c 2,13,-1
 78 610 l 2,14,15
 78 787 78 787 145 915 c 128,-1,16
 212 1043 212 1043 331 1112 c 128,-1,17
 450 1181 450 1181 606 1181 c 0,18,19
 772 1181 772 1181 897 1103 c 1,20,-1
 972 1211 l 1,21,-1
 1129 1211 l 1,22,-1
 996 1019 l 1,23,24
 1062 946 1062 946 1098 842.5 c 128,-1,25
 1134 739 1134 739 1134 610 c 2,0,-1
320 554 m 2,26,27
 320 424 320 424 361 334 c 1,28,-1
 778 932 l 1,29,30
 709 989 709 989 606 989 c 0,31,32
 471 989 471 989 395.5 891 c 128,-1,33
 320 793 320 793 320 612 c 2,34,-1
 320 554 l 2,26,27
893 554 m 2,35,-1
 893 612 l 2,36,37
 893 734 893 734 857 820 c 1,38,-1
 444 226 l 1,39,40
 512 175 512 175 608 175 c 0,41,42
 744 175 744 175 818.5 274 c 128,-1,43
 893 373 893 373 893 554 c 2,35,-1
EndSplineSet
EndChar

StartChar: P
Encoding: 80 80 213
Width: 1307
VWidth: 1798
GlyphClass: 2
Flags: W
AnchorPoint: "Anchor-1" 613 -240 basechar 0
AnchorPoint: "Anchor-0" 606 1362 basechar 0
LayerCount: 2
Fore
SplineSet
701 293 m 2,0,-1
 399 293 l 1,1,-1
 399 -250 l 1,2,-1
 148 -250 l 1,3,-1
 148 1206 l 1,4,-1
 701 1206 l 2,5,6
 870 1206 870 1206 988 1146.5 c 128,-1,7
 1106 1087 1106 1087 1168.5 982.5 c 128,-1,8
 1231 878 1231 878 1231 744 c 0,9,10
 1231 533 1231 533 1092.5 413 c 128,-1,11
 954 293 954 293 701 293 c 2,0,-1
701 1006 m 2,12,-1
 399 1006 l 1,13,-1
 399 492 l 1,14,-1
 701 492 l 2,15,16
 849 492 849 492 914 562.5 c 128,-1,17
 979 633 979 633 979 742 c 0,18,19
 979 811 979 811 950.5 871.5 c 128,-1,20
 922 932 922 932 861 969 c 128,-1,21
 800 1006 800 1006 701 1006 c 2,12,-1
EndSplineSet
Substitution2: "'c2sc' Capitals to Small Capitals lookup 0 subtable" P.smcp
Position2: "'cpsp' Capital Spacing lookup 0 subtable" dx=36 dy=0 dh=72 dv=0
EndChar

StartChar: P.smcp
Encoding: 65662 -1 214
Width: 1131
GlyphClass: 2
Flags: W
AnchorPoint: "Anchor-1" 574 0 basechar 0
AnchorPoint: "Anchor-0" 576 1320 basechar 0
LayerCount: 2
Fore
SplineSet
600 411 m 2,0,-1
 359 411 l 1,1,-1
 359 0 l 1,2,-1
 118 0 l 1,3,-1
 118 1165 l 1,4,-1
 600 1165 l 2,5,6
 747 1165 747 1165 850.5 1115 c 128,-1,7
 954 1065 954 1065 1009 978.5 c 128,-1,8
 1064 892 1064 892 1064 780 c 0,9,10
 1064 612 1064 612 942 511.5 c 128,-1,11
 820 411 820 411 600 411 c 2,0,-1
600 973 m 2,12,-1
 359 973 l 1,13,-1
 359 603 l 1,14,-1
 600 603 l 2,15,16
 717 603 717 603 770.5 652.5 c 128,-1,17
 824 702 824 702 824 778 c 0,18,19
 824 855 824 855 770.5 914 c 128,-1,20
 717 973 717 973 600 973 c 2,12,-1
EndSplineSet
EndChar

StartChar: Q
Encoding: 81 81 215
Width: 1411
VWidth: 1798
GlyphClass: 2
Flags: W
AnchorPoint: "Anchor-1" 698 -260 basechar 0
AnchorPoint: "Anchor-0" 700 1350 basechar 0
LayerCount: 2
Fore
SplineSet
1305 518 m 2,0,-1
 1305 438 l 2,1,2
 1305 232 1305 232 1238 79 c 128,-1,3
 1171 -74 1171 -74 1052 -162 c 1,4,-1
 1302 -360 l 1,5,-1
 1139 -503 l 1,6,-1
 832 -257 l 1,7,8
 770 -270 770 -270 702 -270 c 0,9,10
 524 -270 524 -270 387.5 -184.5 c 128,-1,11
 251 -99 251 -99 173.5 59.5 c 128,-1,12
 96 218 96 218 96 438 c 2,13,-1
 96 518 l 2,14,15
 96 738 96 738 173 896.5 c 128,-1,16
 250 1055 250 1055 386 1140.5 c 128,-1,17
 522 1226 522 1226 700 1226 c 0,18,19
 881 1226 881 1226 1017 1140.5 c 128,-1,20
 1153 1055 1153 1055 1229 896.5 c 128,-1,21
 1305 738 1305 738 1305 518 c 2,0,-1
1053 438 m 2,22,-1
 1053 520 l 2,23,24
 1053 763 1053 763 960.5 892 c 128,-1,25
 868 1021 868 1021 700 1021 c 0,26,27
 536 1021 536 1021 442 892 c 128,-1,28
 348 763 348 763 348 520 c 2,29,-1
 348 438 l 2,30,31
 348 194 348 194 443 64 c 128,-1,32
 538 -66 538 -66 702 -66 c 0,33,34
 870 -66 870 -66 961.5 64 c 128,-1,35
 1053 194 1053 194 1053 438 c 2,22,-1
EndSplineSet
Substitution2: "'c2sc' Capitals to Small Capitals lookup 0 subtable" Q.smcp
Position2: "'cpsp' Capital Spacing lookup 0 subtable" dx=36 dy=0 dh=72 dv=0
EndChar

StartChar: Q.smcp
Encoding: 65663 -1 216
Width: 1213
GlyphClass: 2
Flags: W
AnchorPoint: "Anchor-1" 599 -10 basechar 0
AnchorPoint: "Anchor-0" 599 1320 basechar 0
LayerCount: 2
Fore
SplineSet
1132 610 m 2,0,-1
 1132 554 l 2,1,2
 1132 392 1132 392 1076 271 c 128,-1,3
 1020 150 1020 150 920 78 c 1,4,-1
 1126 -77 l 1,5,-1
 971 -209 l 1,6,-1
 708 -8 l 1,7,8
 658 -16 658 -16 605 -16 c 0,9,10
 450 -16 450 -16 330.5 53 c 128,-1,11
 211 122 211 122 144 249.5 c 128,-1,12
 77 377 77 377 77 554 c 2,13,-1
 77 610 l 2,14,15
 77 787 77 787 144 915 c 128,-1,16
 211 1043 211 1043 329.5 1112 c 128,-1,17
 448 1181 448 1181 604 1181 c 0,18,19
 761 1181 761 1181 879.5 1112 c 128,-1,20
 998 1043 998 1043 1065 915 c 128,-1,21
 1132 787 1132 787 1132 610 c 2,0,-1
892 554 m 2,22,-1
 892 612 l 2,23,24
 892 793 892 793 816 891 c 128,-1,25
 740 989 740 989 604 989 c 0,26,27
 469 989 469 989 393 891 c 128,-1,28
 317 793 317 793 317 612 c 2,29,-1
 317 554 l 2,30,31
 317 373 317 373 393.5 274 c 128,-1,32
 470 175 470 175 605 175 c 0,33,34
 741 175 741 175 816.5 274 c 128,-1,35
 892 373 892 373 892 554 c 2,22,-1
EndSplineSet
EndChar

StartChar: R
Encoding: 82 82 217
Width: 1289
VWidth: 1798
GlyphClass: 2
Flags: W
AnchorPoint: "Anchor-1" 611 -240 basechar 0
AnchorPoint: "Anchor-0" 610 1351 basechar 0
LayerCount: 2
Fore
SplineSet
979 -250 m 1,0,-1
 685 312 l 1,1,-1
 399 312 l 1,2,-1
 399 -250 l 1,3,-1
 148 -250 l 1,4,-1
 148 1206 l 1,5,-1
 663 1206 l 2,6,7
 911 1206 911 1206 1049.5 1094 c 128,-1,8
 1188 982 1188 982 1188 768 c 0,9,10
 1188 620 1188 620 1116 520.5 c 128,-1,11
 1044 421 1044 421 919 370 c 1,12,-1
 1247 -237 l 1,13,-1
 1247 -250 l 1,14,-1
 979 -250 l 1,0,-1
663 1006 m 2,15,-1
 399 1006 l 1,16,-1
 399 511 l 1,17,-1
 667 511 l 2,18,19
 802 511 802 511 870 580.5 c 128,-1,20
 938 650 938 650 938 756 c 0,21,22
 938 870 938 870 871 938 c 128,-1,23
 804 1006 804 1006 663 1006 c 2,15,-1
EndSplineSet
Substitution2: "'c2sc' Capitals to Small Capitals lookup 0 subtable" R.smcp
Position2: "'cpsp' Capital Spacing lookup 0 subtable" dx=36 dy=0 dh=72 dv=0
EndChar

StartChar: R.smcp
Encoding: 65664 -1 218
Width: 1124
GlyphClass: 2
Flags: W
AnchorPoint: "Anchor-1" 525 8 basechar 0
AnchorPoint: "Anchor-0" 520 1320 basechar 0
LayerCount: 2
Fore
SplineSet
823 0 m 1,0,-1
 585 426 l 1,1,-1
 359 426 l 1,2,-1
 359 0 l 1,3,-1
 117 0 l 1,4,-1
 117 1165 l 1,5,-1
 576 1165 l 2,6,7
 790 1165 790 1165 912.5 1074.5 c 128,-1,8
 1035 984 1035 984 1035 813 c 0,9,10
 1035 684 1035 684 974 606 c 128,-1,11
 913 528 913 528 809 486 c 1,12,-1
 1083 11 l 1,13,-1
 1083 0 l 1,14,-1
 823 0 l 1,0,-1
576 973 m 2,15,-1
 359 973 l 1,16,-1
 359 618 l 1,17,-1
 579 618 l 2,18,19
 686 618 686 618 739.5 666 c 128,-1,20
 793 714 793 714 793 793 c 0,21,22
 793 876 793 876 739.5 924.5 c 128,-1,23
 686 973 686 973 576 973 c 2,15,-1
EndSplineSet
EndChar

StartChar: S
Encoding: 83 83 225
Width: 1240
VWidth: 1798
GlyphClass: 2
Flags: W
AnchorPoint: "Anchor-1" 628 -251 basechar 0
AnchorPoint: "Anchor-0" 622 1353 basechar 0
LayerCount: 2
Fore
SplineSet
914 125 m 0,0,1
 914 185 914 185 888.5 228 c 128,-1,2
 863 271 863 271 795.5 307 c 128,-1,3
 728 343 728 343 601 382 c 0,4,5
 463 424 463 424 354.5 481.5 c 128,-1,6
 246 539 246 539 183 622.5 c 128,-1,7
 120 706 120 706 120 825 c 0,8,9
 120 943 120 943 185.5 1033 c 128,-1,10
 251 1123 251 1123 368 1174.5 c 128,-1,11
 485 1226 485 1226 639 1226 c 0,12,13
 802 1226 802 1226 919 1166 c 128,-1,14
 1036 1106 1036 1106 1099.5 1005 c 128,-1,15
 1163 904 1163 904 1163 782 c 1,16,-1
 914 782 l 1,17,18
 914 889 914 889 845 959 c 128,-1,19
 776 1029 776 1029 636 1029 c 0,20,21
 502 1029 502 1029 436.5 970 c 128,-1,22
 371 911 371 911 371 825 c 0,23,24
 371 743 371 743 448 688.5 c 128,-1,25
 525 634 525 634 685 587 c 0,26,27
 927 516 927 516 1046.5 409 c 128,-1,28
 1166 302 1166 302 1166 127 c 0,29,30
 1166 4 1166 4 1101.5 -85 c 128,-1,31
 1037 -174 1037 -174 920.5 -222 c 128,-1,32
 804 -270 804 -270 647 -270 c 0,33,34
 542 -270 542 -270 440.5 -241.5 c 128,-1,35
 339 -213 339 -213 256 -156 c 128,-1,36
 173 -99 173 -99 124 -12.5 c 128,-1,37
 75 74 75 74 75 190 c 1,38,-1
 326 190 l 1,39,40
 326 96 326 96 369 38 c 128,-1,41
 412 -20 412 -20 485 -47 c 128,-1,42
 558 -74 558 -74 647 -74 c 0,43,44
 779 -74 779 -74 846.5 -19 c 128,-1,45
 914 36 914 36 914 125 c 0,0,1
EndSplineSet
Substitution2: "'c2sc' Capitals to Small Capitals lookup 0 subtable" S.smcp
Position2: "'cpsp' Capital Spacing lookup 0 subtable" dx=36 dy=0 dh=72 dv=0
EndChar

StartChar: S.smcp
Encoding: 65668 -1 226
Width: 1079
GlyphClass: 2
Flags: W
AnchorPoint: "Anchor-1" 552 0 basechar 0
AnchorPoint: "Anchor-0" 543 1320 basechar 0
LayerCount: 2
Fore
SplineSet
774 305 m 0,0,1
 774 370 774 370 723.5 412 c 128,-1,2
 673 454 673 454 529 488 c 0,3,4
 321 538 321 538 212 618 c 128,-1,5
 103 698 103 698 103 850 c 0,6,7
 103 948 103 948 159 1022.5 c 128,-1,8
 215 1097 215 1097 314.5 1139 c 128,-1,9
 414 1181 414 1181 544 1181 c 0,10,11
 685 1181 685 1181 789.5 1135 c 128,-1,12
 894 1089 894 1089 951 1008.5 c 128,-1,13
 1008 928 1008 928 1008 822 c 1,14,-1
 767 822 l 1,15,16
 767 896 767 896 710.5 948 c 128,-1,17
 654 1000 654 1000 544 1000 c 0,18,19
 438 1000 438 1000 387 956 c 128,-1,20
 336 912 336 912 336 856 c 0,21,22
 336 797 336 797 392.5 758.5 c 128,-1,23
 449 720 449 720 588 685 c 0,24,25
 795 636 795 636 901.5 550 c 128,-1,26
 1008 464 1008 464 1008 311 c 0,27,28
 1008 157 1008 157 884 70.5 c 128,-1,29
 760 -16 760 -16 557 -16 c 0,30,31
 466 -16 466 -16 378.5 6 c 128,-1,32
 291 28 291 28 219.5 74 c 128,-1,33
 148 120 148 120 105.5 191 c 128,-1,34
 63 262 63 262 63 360 c 1,35,-1
 305 360 l 1,36,37
 305 255 305 255 376.5 209.5 c 128,-1,38
 448 164 448 164 565 164 c 0,39,40
 675 164 675 164 724.5 206 c 128,-1,41
 774 248 774 248 774 305 c 0,0,1
EndSplineSet
EndChar

StartChar: Schwa
Encoding: 399 399 233
Width: 1421
VWidth: 1798
GlyphClass: 2
Flags: W
AnchorPoint: "Anchor-1" 696 -250 basechar 0
AnchorPoint: "Anchor-0" 661 1353 basechar 0
LayerCount: 2
Fore
SplineSet
701 -270 m 0,0,1
 499 -270 499 -270 362 -187.5 c 128,-1,2
 225 -105 225 -105 155 46 c 128,-1,3
 85 197 85 197 85 403 c 2,4,-1
 85 546 l 1,5,-1
 1065 546 l 1,6,7
 1064 676 1064 676 1020.5 783 c 128,-1,8
 977 890 977 890 882 953 c 128,-1,9
 787 1016 787 1016 631 1016 c 0,10,11
 498 1016 498 1016 404.5 991 c 128,-1,12
 311 966 311 966 252 942 c 1,13,-1
 204 1136 l 1,14,15
 228 1150 228 1150 288.5 1171 c 128,-1,16
 349 1192 349 1192 439 1209 c 128,-1,17
 529 1226 529 1226 640 1226 c 0,18,19
 860 1226 860 1226 1010 1138 c 128,-1,20
 1160 1050 1160 1050 1237.5 895 c 128,-1,21
 1315 740 1315 740 1315 538 c 2,22,-1
 1315 415 l 2,23,24
 1315 213 1315 213 1233 58.5 c 128,-1,25
 1151 -96 1151 -96 1012 -183 c 128,-1,26
 873 -270 873 -270 701 -270 c 0,0,1
701 -61 m 0,27,28
 809 -61 809 -61 886.5 -6.5 c 128,-1,29
 964 48 964 48 1008.5 141.5 c 128,-1,30
 1053 235 1053 235 1062 351 c 1,31,-1
 335 351 l 1,32,-1
 335 318 l 2,33,34
 335 213 335 213 370.5 127 c 128,-1,35
 406 41 406 41 486.5 -10 c 128,-1,36
 567 -61 567 -61 701 -61 c 0,27,28
EndSplineSet
EndChar

StartChar: T
Encoding: 84 84 237
Width: 1248
VWidth: 1798
GlyphClass: 2
Flags: W
AnchorPoint: "Anchor-1" 614 -250 basechar 0
AnchorPoint: "Anchor-0" 612 1350 basechar 0
LayerCount: 2
Fore
SplineSet
1204 1206 m 1,0,-1
 1204 1006 l 1,1,-1
 747 1006 l 1,2,-1
 747 -250 l 1,3,-1
 498 -250 l 1,4,-1
 498 1006 l 1,5,-1
 45 1006 l 1,6,-1
 45 1206 l 1,7,-1
 1204 1206 l 1,0,-1
EndSplineSet
Substitution2: "'c2sc' Capitals to Small Capitals lookup 0 subtable" T.smcp
Position2: "'cpsp' Capital Spacing lookup 0 subtable" dx=36 dy=0 dh=72 dv=0
EndChar

StartChar: T.smcp
Encoding: 65674 -1 238
Width: 1087
GlyphClass: 2
Flags: W
AnchorPoint: "Anchor-1" 531 3 basechar 0
AnchorPoint: "Anchor-0" 530 1320 basechar 0
LayerCount: 2
Fore
SplineSet
1049 1165 m 1,0,-1
 1049 973 l 1,1,-1
 661 973 l 1,2,-1
 661 0 l 1,3,-1
 420 0 l 1,4,-1
 420 973 l 1,5,-1
 37 973 l 1,6,-1
 37 1165 l 1,7,-1
 1049 1165 l 1,0,-1
EndSplineSet
EndChar

StartChar: Tbar
Encoding: 358 358 239
Width: 1248
VWidth: 1798
GlyphClass: 2
Flags: W
AnchorPoint: "Anchor-1" 614 -250 basechar 0
AnchorPoint: "Anchor-0" 612 1350 basechar 0
LayerCount: 2
Fore
SplineSet
953 702 m 1,0,-1
 953 536 l 1,1,-1
 747 536 l 1,2,-1
 747 -250 l 1,3,-1
 498 -250 l 1,4,-1
 498 536 l 1,5,-1
 281 536 l 1,6,-1
 281 702 l 1,7,-1
 498 702 l 1,8,-1
 498 1006 l 1,9,-1
 45 1006 l 1,10,-1
 45 1206 l 1,11,-1
 1204 1206 l 1,12,-1
 1204 1006 l 1,13,-1
 747 1006 l 1,14,-1
 747 702 l 1,15,-1
 953 702 l 1,0,-1
EndSplineSet
Substitution2: "'c2sc' Capitals to Small Capitals lookup 0 subtable" Tbar.smcp
Position2: "'cpsp' Capital Spacing lookup 0 subtable" dx=36 dy=0 dh=72 dv=0
EndChar

StartChar: Thorn
Encoding: 222 222 244
Width: 1231
VWidth: 1798
GlyphClass: 2
Flags: W
LayerCount: 2
Fore
SplineSet
149 1206 m 1,0,-1
 390 1206 l 1,1,-1
 390 926 l 1,2,-1
 639 926 l 2,3,4
 805 926 805 926 919.5 869.5 c 128,-1,5
 1034 813 1034 813 1093.5 714 c 128,-1,6
 1153 615 1153 615 1153 488 c 0,7,8
 1153 362 1153 362 1093.5 263 c 128,-1,9
 1034 164 1034 164 919.5 107.5 c 128,-1,10
 805 51 805 51 639 51 c 2,11,-1
 390 51 l 1,12,-1
 390 -250 l 1,13,-1
 149 -250 l 1,14,-1
 149 1206 l 1,0,-1
639 735 m 2,15,-1
 390 735 l 1,16,-1
 390 242 l 1,17,-1
 639 242 l 2,18,19
 736 242 736 242 796 277 c 128,-1,20
 856 312 856 312 883.5 368 c 128,-1,21
 911 424 911 424 911 486 c 0,22,23
 911 550 911 550 883.5 607 c 128,-1,24
 856 664 856 664 796 699.5 c 128,-1,25
 736 735 736 735 639 735 c 2,15,-1
EndSplineSet
Substitution2: "'c2sc' Capitals to Small Capitals lookup 0 subtable" Thorn.smcp
Position2: "'cpsp' Capital Spacing lookup 0 subtable" dx=36 dy=0 dh=72 dv=0
EndChar

StartChar: Thorn.smcp
Encoding: 65678 -1 245
Width: 1031
GlyphClass: 2
Flags: W
AnchorPoint: "Anchor-1" 450 10 basechar 0
AnchorPoint: "Anchor-0" 526 1320 basechar 0
LayerCount: 2
Fore
SplineSet
118 0 m 1,0,-1
 118 1165 l 1,1,-1
 359 1165 l 1,2,-1
 359 982 l 1,3,-1
 513 982 l 2,4,5
 733 982 733 982 855 875 c 128,-1,6
 977 768 977 768 977 604 c 0,7,8
 977 432 977 432 855 330 c 128,-1,9
 733 228 733 228 513 228 c 2,10,-1
 359 228 l 1,11,-1
 359 0 l 1,12,-1
 118 0 l 1,0,-1
513 790 m 2,13,-1
 359 790 l 1,14,-1
 359 421 l 1,15,-1
 513 421 l 2,16,17
 629 421 629 421 682.5 472 c 128,-1,18
 736 523 736 523 736 602 c 0,19,20
 736 676 736 676 682.5 733 c 128,-1,21
 629 790 629 790 513 790 c 2,13,-1
EndSplineSet
EndChar

StartChar: U
Encoding: 85 85 246
Width: 1340
VWidth: 1798
GlyphClass: 2
Flags: W
AnchorPoint: "Anchor-1" 666 -250 basechar 0
AnchorPoint: "Anchor-0" 667 1351 basechar 0
LayerCount: 2
Fore
SplineSet
965 1206 m 1,0,-1
 1215 1206 l 1,1,-1
 1215 233 l 2,2,3
 1215 67 1215 67 1143 -45 c 128,-1,4
 1071 -157 1071 -157 948 -213.5 c 128,-1,5
 825 -270 825 -270 672 -270 c 0,6,7
 515 -270 515 -270 392 -213.5 c 128,-1,8
 269 -157 269 -157 198.5 -45 c 128,-1,9
 128 67 128 67 128 233 c 2,10,-1
 128 1206 l 1,11,-1
 378 1206 l 1,12,-1
 378 233 l 2,13,14
 378 76 378 76 457.5 2.5 c 128,-1,15
 537 -71 537 -71 672 -71 c 256,16,17
 807 -71 807 -71 886 2.5 c 128,-1,18
 965 76 965 76 965 233 c 2,19,-1
 965 1206 l 1,0,-1
EndSplineSet
Substitution2: "'unic' Unicase lookup 2 subtable" U.unic
Substitution2: "'c2sc' Capitals to Small Capitals lookup 0 subtable" U.smcp
Position2: "'cpsp' Capital Spacing lookup 0 subtable" dx=36 dy=0 dh=72 dv=0
EndChar

StartChar: U.smcp
Encoding: 65679 -1 247
Width: 1160
GlyphClass: 2
Flags: W
AnchorPoint: "Anchor-1" 574 0 basechar 0
AnchorPoint: "Anchor-0" 576 1320 basechar 0
LayerCount: 2
Fore
SplineSet
814 1165 m 1,0,-1
 1056 1165 l 1,1,-1
 1056 397 l 2,2,3
 1056 262 1056 262 994 170 c 128,-1,4
 932 78 932 78 825 31 c 128,-1,5
 718 -16 718 -16 581 -16 c 0,6,7
 442 -16 442 -16 334.5 31 c 128,-1,8
 227 78 227 78 166 170 c 128,-1,9
 105 262 105 262 105 397 c 2,10,-1
 105 1165 l 1,11,-1
 345 1165 l 1,12,-1
 345 397 l 2,13,14
 345 281 345 281 408.5 228 c 128,-1,15
 472 175 472 175 581 175 c 256,16,17
 690 175 690 175 752 228 c 128,-1,18
 814 281 814 281 814 397 c 2,19,-1
 814 1165 l 1,0,-1
EndSplineSet
EndChar

StartChar: U.unic
Encoding: 65680 -1 248
Width: 1453
GlyphClass: 2
Flags: W
AnchorPoint: "Anchor-1" 721 0 basechar 0
AnchorPoint: "Anchor-0" 722 1632 basechar 0
LayerCount: 2
Fore
SplineSet
1066 0 m 1,0,-1
 1056 164 l 1,1,2
 979 78 979 78 864.5 29 c 128,-1,3
 750 -20 750 -20 613 -20 c 0,4,5
 471 -20 471 -20 367 31.5 c 128,-1,6
 263 83 263 83 205.5 197.5 c 128,-1,7
 148 312 148 312 148 500 c 2,8,-1
 148 1456 l 1,9,-1
 398 1456 l 1,10,-1
 398 516 l 2,11,12
 398 336 398 336 478 263 c 128,-1,13
 558 190 558 190 688 190 c 0,14,15
 806 190 806 190 908.5 260.5 c 128,-1,16
 1011 331 1011 331 1052 443 c 1,17,-1
 1052 1456 l 1,18,-1
 1303 1456 l 1,19,-1
 1303 0 l 1,20,-1
 1066 0 l 1,0,-1
EndSplineSet
EndChar

StartChar: Uhorn
Encoding: 431 431 263
Width: 1443
VWidth: 1798
GlyphClass: 2
Flags: W
AnchorPoint: "Anchor-1" 692 -259 basechar 0
AnchorPoint: "Anchor-0" 694 1362 basechar 0
LayerCount: 2
Fore
SplineSet
965 1206 m 1,0,-1
 1215 1206 l 1,1,-1
 1215 987 l 1,2,3
 1344 997 1344 997 1381.5 1075 c 128,-1,4
 1419 1153 1419 1153 1419 1288 c 1,5,-1
 1594 1288 l 1,6,7
 1594 1080 1594 1080 1511 965 c 128,-1,8
 1428 850 1428 850 1215 840 c 1,9,-1
 1215 233 l 2,10,11
 1215 67 1215 67 1143 -45 c 128,-1,12
 1071 -157 1071 -157 948 -213.5 c 128,-1,13
 825 -270 825 -270 672 -270 c 0,14,15
 515 -270 515 -270 392 -213.5 c 128,-1,16
 269 -157 269 -157 198.5 -45 c 128,-1,17
 128 67 128 67 128 233 c 2,18,-1
 128 1206 l 1,19,-1
 378 1206 l 1,20,-1
 378 233 l 2,21,22
 378 76 378 76 457.5 2.5 c 128,-1,23
 537 -71 537 -71 672 -71 c 256,24,25
 807 -71 807 -71 886 2.5 c 128,-1,26
 965 76 965 76 965 233 c 2,27,-1
 965 1206 l 1,0,-1
EndSplineSet
EndChar

StartChar: Uogonek
Encoding: 370 370 270
Width: 1340
VWidth: 1798
GlyphClass: 2
Flags: W
AnchorPoint: "Anchor-1" 666 -250 basechar 0
AnchorPoint: "Anchor-0" 667 1351 basechar 0
LayerCount: 2
Fore
SplineSet
965 1206 m 1,0,-1
 1215 1206 l 1,1,-1
 1215 233 l 2,2,3
 1215 72 1215 72 1146 -38.5 c 128,-1,4
 1077 -149 1077 -149 962 -207 c 1,5,6
 900 -249 900 -249 860 -294 c 128,-1,7
 820 -339 820 -339 820 -394 c 0,8,9
 820 -425 820 -425 835.5 -444 c 128,-1,10
 851 -463 851 -463 891 -463 c 0,11,12
 921 -463 921 -463 943.5 -454.5 c 128,-1,13
 966 -446 966 -446 980 -439 c 1,14,-1
 1003 -578 l 1,15,16
 978 -593 978 -593 939 -607.5 c 128,-1,17
 900 -622 900 -622 840 -622 c 0,18,19
 752 -622 752 -622 690.5 -571 c 128,-1,20
 629 -520 629 -520 629 -423 c 0,21,22
 629 -384 629 -384 641.5 -345.5 c 128,-1,23
 654 -307 654 -307 683 -270 c 1,24,25
 677 -270 677 -270 672 -270 c 0,26,27
 515 -270 515 -270 392 -213.5 c 128,-1,28
 269 -157 269 -157 198.5 -45 c 128,-1,29
 128 67 128 67 128 233 c 2,30,-1
 128 1206 l 1,31,-1
 378 1206 l 1,32,-1
 378 233 l 2,33,34
 378 76 378 76 457.5 2.5 c 128,-1,35
 537 -71 537 -71 672 -71 c 256,36,37
 807 -71 807 -71 886 2.5 c 128,-1,38
 965 76 965 76 965 233 c 2,39,-1
 965 1206 l 1,0,-1
EndSplineSet
Substitution2: "'unic' Unicase lookup 2 subtable" Uogonek.unic
Substitution2: "'c2sc' Capitals to Small Capitals lookup 0 subtable" Uogonek.smcp
Position2: "'cpsp' Capital Spacing lookup 0 subtable" dx=36 dy=0 dh=72 dv=0
EndChar

StartChar: Uogonek.smcp
Encoding: 65694 -1 271
Width: 1160
GlyphClass: 2
Flags: W
AnchorPoint: "Anchor-1" 574 0 basechar 0
AnchorPoint: "Anchor-0" 576 1320 basechar 0
LayerCount: 2
Fore
SplineSet
814 1165 m 1,0,-1
 1056 1165 l 1,1,-1
 1056 397 l 2,2,3
 1056 258 1056 258 989.5 164 c 128,-1,4
 923 70 923 70 812 25 c 1,5,6
 755 -14 755 -14 719.5 -57 c 128,-1,7
 684 -100 684 -100 684 -152 c 0,8,9
 684 -182 684 -182 699.5 -201.5 c 128,-1,10
 715 -221 715 -221 755 -221 c 0,11,12
 786 -221 786 -221 808 -212.5 c 128,-1,13
 830 -204 830 -204 844 -197 c 1,14,-1
 867 -336 l 1,15,16
 842 -351 842 -351 803 -365.5 c 128,-1,17
 764 -380 764 -380 704 -380 c 0,18,19
 616 -380 616 -380 555 -329 c 128,-1,20
 494 -278 494 -278 494 -180 c 0,21,22
 494 -138 494 -138 509 -96.5 c 128,-1,23
 524 -55 524 -55 558 -16 c 1,24,25
 358 -10 358 -10 231.5 95 c 128,-1,26
 105 200 105 200 105 397 c 2,27,-1
 105 1165 l 1,28,-1
 345 1165 l 1,29,-1
 345 397 l 2,30,31
 345 281 345 281 408.5 228 c 128,-1,32
 472 175 472 175 581 175 c 256,33,34
 690 175 690 175 752 228 c 128,-1,35
 814 281 814 281 814 397 c 2,36,-1
 814 1165 l 1,0,-1
EndSplineSet
EndChar

StartChar: V
Encoding: 86 86 279
Width: 1322
VWidth: 1798
GlyphClass: 2
Flags: W
AnchorPoint: "Anchor-1" 655 -240 basechar 0
AnchorPoint: "Anchor-0" 655 1362 basechar 0
LayerCount: 2
Fore
SplineSet
293 1206 m 1,0,-1
 660 57 l 1,1,-1
 1030 1206 l 1,2,-1
 1307 1206 l 1,3,-1
 785 -250 l 1,4,-1
 537 -250 l 1,5,-1
 17 1206 l 1,6,-1
 293 1206 l 1,0,-1
EndSplineSet
Substitution2: "'c2sc' Capitals to Small Capitals lookup 0 subtable" V.smcp
Position2: "'cpsp' Capital Spacing lookup 0 subtable" dx=36 dy=0 dh=72 dv=0
EndChar

StartChar: V.smcp
Encoding: 65700 -1 280
Width: 1145
GlyphClass: 2
Flags: W
AnchorPoint: "Anchor-1" 561 10 basechar 0
AnchorPoint: "Anchor-0" 561 1320 basechar 0
LayerCount: 2
Fore
SplineSet
589 302 m 1,0,-1
 882 1165 l 1,1,-1
 1137 1165 l 1,2,-1
 697 0 l 1,3,-1
 447 0 l 1,4,-1
 8 1165 l 1,5,-1
 264 1165 l 1,6,-1
 554 304 l 1,7,-1
 572 229 l 1,8,-1
 589 302 l 1,0,-1
EndSplineSet
EndChar

StartChar: W
Encoding: 87 87 281
Width: 1803
VWidth: 1798
GlyphClass: 2
Flags: W
AnchorPoint: "Anchor-1" 922 -240 basechar 0
AnchorPoint: "Anchor-0" 924 1351 basechar 0
LayerCount: 2
Fore
SplineSet
296 1206 m 1,0,-1
 524 120 l 1,1,-1
 803 1206 l 1,2,-1
 1014 1206 l 1,3,-1
 1290 118 l 1,4,-1
 1516 1206 l 1,5,-1
 1766 1206 l 1,6,-1
 1429 -250 l 1,7,-1
 1185 -250 l 1,8,-1
 909 805 l 1,9,-1
 628 -250 l 1,10,-1
 384 -250 l 1,11,-1
 47 1206 l 1,12,-1
 296 1206 l 1,0,-1
EndSplineSet
Substitution2: "'c2sc' Capitals to Small Capitals lookup 0 subtable" W.smcp
Position2: "'cpsp' Capital Spacing lookup 0 subtable" dx=36 dy=0 dh=72 dv=0
EndChar

StartChar: W.smcp
Encoding: 65701 -1 282
Width: 1545
GlyphClass: 2
Flags: W
AnchorPoint: "Anchor-1" 786 10 basechar 0
AnchorPoint: "Anchor-0" 786 1320 basechar 0
LayerCount: 2
Fore
SplineSet
274 1165 m 1,0,-1
 452 301 l 1,1,-1
 669 1165 l 1,2,-1
 882 1165 l 1,3,-1
 1098 303 l 1,4,-1
 1275 1165 l 1,5,-1
 1509 1165 l 1,6,-1
 1227 0 l 1,7,-1
 992 0 l 1,8,-1
 775 828 l 1,9,-1
 558 0 l 1,10,-1
 322 0 l 1,11,-1
 39 1165 l 1,12,-1
 274 1165 l 1,0,-1
EndSplineSet
EndChar

StartChar: X
Encoding: 88 88 289
Width: 1293
VWidth: 1798
GlyphClass: 2
Flags: W
AnchorPoint: "Anchor-1" 645 -240 basechar 0
AnchorPoint: "Anchor-0" 653 1362 basechar 0
LayerCount: 2
Fore
SplineSet
339 1206 m 1,0,-1
 648 675 l 1,1,-1
 957 1206 l 1,2,-1
 1246 1206 l 1,3,-1
 806 485 l 1,4,-1
 1257 -250 l 1,5,-1
 965 -250 l 1,6,-1
 648 291 l 1,7,-1
 331 -250 l 1,8,-1
 38 -250 l 1,9,-1
 490 485 l 1,10,-1
 49 1206 l 1,11,-1
 339 1206 l 1,0,-1
EndSplineSet
Substitution2: "'c2sc' Capitals to Small Capitals lookup 0 subtable" X.smcp
Position2: "'cpsp' Capital Spacing lookup 0 subtable" dx=36 dy=0 dh=72 dv=0
EndChar

StartChar: X.smcp
Encoding: 65707 -1 290
Width: 1116
GlyphClass: 2
Flags: W
AnchorPoint: "Anchor-1" 550 8 basechar 0
AnchorPoint: "Anchor-0" 550 1320 basechar 0
LayerCount: 2
Fore
SplineSet
308 1165 m 1,0,-1
 549 759 l 1,1,-1
 793 1165 l 1,2,-1
 1075 1165 l 1,3,-1
 700 587 l 1,4,-1
 1097 0 l 1,5,-1
 810 0 l 1,6,-1
 553 414 l 1,7,-1
 301 0 l 1,8,-1
 19 0 l 1,9,-1
 405 587 l 1,10,-1
 29 1165 l 1,11,-1
 308 1165 l 1,0,-1
EndSplineSet
EndChar

StartChar: Y
Encoding: 89 89 291
Width: 1251
VWidth: 1798
GlyphClass: 2
Flags: W
AnchorPoint: "Anchor-1" 615 -249 basechar 0
AnchorPoint: "Anchor-0" 618 1350 basechar 0
LayerCount: 2
Fore
SplineSet
287 1206 m 1,0,-1
 625 511 l 1,1,-1
 963 1206 l 1,2,-1
 1241 1206 l 1,3,-1
 751 286 l 1,4,-1
 751 -250 l 1,5,-1
 498 -250 l 1,6,-1
 498 286 l 1,7,-1
 8 1206 l 1,8,-1
 287 1206 l 1,0,-1
EndSplineSet
Substitution2: "'c2sc' Capitals to Small Capitals lookup 0 subtable" Y.smcp
Position2: "'cpsp' Capital Spacing lookup 0 subtable" dx=36 dy=0 dh=72 dv=0
EndChar

StartChar: Y.smcp
Encoding: 65708 -1 292
Width: 1086
GlyphClass: 2
Flags: W
AnchorPoint: "Anchor-1" 533 10 basechar 0
AnchorPoint: "Anchor-0" 533 1320 basechar 0
LayerCount: 2
Fore
SplineSet
270 1165 m 1,0,-1
 543 628 l 1,1,-1
 816 1165 l 1,2,-1
 1080 1165 l 1,3,-1
 660 408 l 1,4,-1
 660 0 l 1,5,-1
 419 0 l 1,6,-1
 419 420 l 1,7,-1
 6 1165 l 1,8,-1
 270 1165 l 1,0,-1
EndSplineSet
EndChar

StartChar: Z
Encoding: 90 90 301
Width: 1235
VWidth: 1798
GlyphClass: 2
Flags: W
AnchorPoint: "Anchor-1" 613 -240 basechar 0
AnchorPoint: "Anchor-0" 616 1351 basechar 0
LayerCount: 2
Fore
SplineSet
1166 -51 m 1,0,-1
 1166 -250 l 1,1,-1
 80 -250 l 1,2,-1
 80 -91 l 1,3,-1
 840 1006 l 1,4,-1
 86 1006 l 1,5,-1
 86 1206 l 1,6,-1
 1143 1206 l 1,7,-1
 1143 1051 l 1,8,-1
 385 -51 l 1,9,-1
 1166 -51 l 1,0,-1
EndSplineSet
Substitution2: "'c2sc' Capitals to Small Capitals lookup 0 subtable" Z.smcp
Position2: "'cpsp' Capital Spacing lookup 0 subtable" dx=36 dy=0 dh=72 dv=0
EndChar

StartChar: Z.smcp
Encoding: 65714 -1 302
Width: 1067
GlyphClass: 2
Flags: W
AnchorPoint: "Anchor-1" 533 10 basechar 0
AnchorPoint: "Anchor-0" 533 1320 basechar 0
LayerCount: 2
Fore
SplineSet
1013 191 m 1,0,-1
 1013 0 l 1,1,-1
 65 0 l 1,2,-1
 65 138 l 1,3,-1
 691 973 l 1,4,-1
 67 973 l 1,5,-1
 67 1165 l 1,6,-1
 997 1165 l 1,7,-1
 997 1031 l 1,8,-1
 375 191 l 1,9,-1
 1013 191 l 1,0,-1
EndSplineSet
EndChar

StartChar: a
Encoding: 97 97 309
Width: 1104
VWidth: 1798
GlyphClass: 2
Flags: W
AnchorPoint: "Anchor-1" 502 -250 basechar 0
AnchorPoint: "Anchor-0" 582 1040 basechar 0
LayerCount: 2
Fore
SplineSet
770 -250 m 1,0,1
 752 -210 752 -210 742 -143 c 1,2,3
 695 -195 695 -195 623 -232.5 c 128,-1,4
 551 -270 551 -270 452 -270 c 0,5,6
 346 -270 346 -270 263 -228 c 128,-1,7
 180 -186 180 -186 133 -113 c 128,-1,8
 86 -40 86 -40 86 52 c 0,9,10
 86 224 86 224 214.5 316 c 128,-1,11
 343 408 343 408 580 408 c 2,12,-1
 734 408 l 1,13,-1
 734 483 l 2,14,15
 734 569 734 569 687 620 c 128,-1,16
 640 671 640 671 543 671 c 0,17,18
 455 671 455 671 402.5 628 c 128,-1,19
 350 585 350 585 350 520 c 1,20,-1
 110 520 l 1,21,22
 110 606 110 606 165 682 c 128,-1,23
 220 758 220 758 320 805 c 128,-1,24
 420 852 420 852 556 852 c 0,25,26
 678 852 678 852 772.5 811 c 128,-1,27
 867 770 867 770 921.5 687.5 c 128,-1,28
 976 605 976 605 976 481 c 2,29,-1
 976 0 l 2,30,31
 976 -147 976 -147 1017 -234 c 1,32,-1
 1017 -250 l 1,33,-1
 770 -250 l 1,0,1
499 -79 m 0,34,35
 585 -79 585 -79 646.5 -38 c 128,-1,36
 708 3 708 3 734 54 c 1,37,-1
 734 259 l 1,38,-1
 598 259 l 2,39,40
 463 259 463 259 395 210 c 128,-1,41
 327 161 327 161 327 75 c 0,42,43
 327 9 327 9 372 -35 c 128,-1,44
 417 -79 417 -79 499 -79 c 0,34,35
EndSplineSet
Substitution2: "'unic' Unicase lookup 2 subtable" A.unic
Substitution2: "'smcp' Lowercase to Small Capitals lookup 1 subtable" A.smcp
EndChar

StartChar: acute
Encoding: 180 180 313
Width: 660
VWidth: 1798
GlyphClass: 2
Flags: W
LayerCount: 2
Fore
SplineSet
111 985 m 1,0,-1
 306 1286 l 1,1,-1
 578 1286 l 1,2,-1
 306 985 l 1,3,-1
 111 985 l 1,0,-1
EndSplineSet
EndChar

StartChar: acutecomb
Encoding: 769 769 314
Width: 0
VWidth: 1798
GlyphClass: 4
Flags: W
AnchorPoint: "Anchor-3" -566 1391 basemark 0
AnchorPoint: "Anchor-3" -566 1040 mark 0
AnchorPoint: "Anchor-0" -566 1040 mark 0
LayerCount: 2
Fore
SplineSet
-670 985 m 1,0,-1
 -475 1286 l 1,1,-1
 -203 1286 l 1,2,-1
 -475 985 l 1,3,-1
 -670 985 l 1,0,-1
EndSplineSet
EndChar

StartChar: ae
Encoding: 230 230 316
Width: 1730
VWidth: 1798
GlyphClass: 2
Flags: W
AnchorPoint: "Anchor-0" 859 1041 basechar 0
LayerCount: 2
Fore
SplineSet
1254 -271 m 0,0,1
 1124 -271 1124 -271 1025.5 -228 c 128,-1,2
 927 -185 927 -185 863 -108 c 1,3,4
 810 -170 810 -170 708.5 -220.5 c 128,-1,5
 607 -271 607 -271 453 -271 c 0,6,7
 269 -271 269 -271 170.5 -180.5 c 128,-1,8
 72 -90 72 -90 72 61 c 0,9,10
 72 219 72 219 193 306 c 128,-1,11
 314 393 314 393 547 393 c 2,12,-1
 737 393 l 1,13,-1
 737 463 l 2,14,15
 737 555 737 555 689.5 607.5 c 128,-1,16
 642 660 642 660 553 660 c 0,17,18
 456 660 456 660 400.5 614 c 128,-1,19
 345 568 345 568 345 503 c 1,20,-1
 104 521 l 1,21,22
 104 617 104 617 160.5 691.5 c 128,-1,23
 217 766 217 766 318.5 809 c 128,-1,24
 420 852 420 852 555 852 c 0,25,26
 664 852 664 852 749.5 819 c 128,-1,27
 835 786 835 786 889 720 c 1,28,29
 951 783 951 783 1035 818 c 128,-1,30
 1119 853 1119 853 1222 852 c 0,31,32
 1436 852 1436 852 1553 720.5 c 128,-1,33
 1670 589 1670 589 1670 365 c 2,34,-1
 1670 225 l 1,35,-1
 975 225 l 1,36,37
 982 96 982 96 1052.5 8.5 c 128,-1,38
 1123 -79 1123 -79 1271 -79 c 0,39,40
 1381 -79 1381 -79 1450.5 -48.5 c 128,-1,41
 1520 -18 1520 -18 1575 13 c 1,42,-1
 1646 -148 l 1,43,44
 1603 -182 1603 -182 1503 -226.5 c 128,-1,45
 1403 -271 1403 -271 1254 -271 c 0,0,1
1222 660 m 0,46,47
 1113 660 1113 660 1053 584.5 c 128,-1,48
 993 509 993 509 979 392 c 1,49,-1
 1431 392 l 1,50,-1
 1431 421 l 2,51,52
 1431 522 1431 522 1382.5 591 c 128,-1,53
 1334 660 1334 660 1222 660 c 0,46,47
499 -90 m 0,54,55
 563 -90 563 -90 629 -59 c 128,-1,56
 695 -28 695 -28 737 13 c 1,57,-1
 737 229 l 1,58,-1
 549 229 l 2,59,60
 433 229 433 229 373.5 177 c 128,-1,61
 314 125 314 125 314 57 c 0,62,63
 314 -6 314 -6 359.5 -48 c 128,-1,64
 405 -90 405 -90 499 -90 c 0,54,55
EndSplineSet
Substitution2: "'unic' Unicase lookup 2 subtable" AE
Substitution2: "'smcp' Lowercase to Small Capitals lookup 1 subtable" AE.smcp
EndChar

StartChar: afii57636
Encoding: 8362 8362 321
Width: 1691
GlyphClass: 2
Flags: W
LayerCount: 2
Fore
SplineSet
125 1082 m 1,0,-1
 788 1082 l 2,1,2
 976 1082 976 1082 1064.5 987.5 c 128,-1,3
 1153 893 1153 893 1153 675 c 2,4,-1
 1153 357 l 1,5,-1
 911 357 l 1,6,-1
 911 676 l 2,7,8
 911 804 911 804 858 847 c 128,-1,9
 805 890 805 890 711 890 c 2,10,-1
 366 890 l 1,11,-1
 366 0 l 1,12,-1
 125 0 l 1,13,-1
 125 1082 l 1,0,-1
1095 0 m 2,14,-1
 539 0 l 1,15,-1
 539 727 l 1,16,-1
 780 727 l 1,17,-1
 780 192 l 1,18,-1
 1126 192 l 2,19,20
 1220 192 1220 192 1273 235.5 c 128,-1,21
 1326 279 1326 279 1326 406 c 2,22,-1
 1326 1082 l 1,23,-1
 1567 1082 l 1,24,-1
 1567 407 l 2,25,26
 1567 262 1567 262 1501 172.5 c 128,-1,27
 1435 83 1435 83 1327.5 41.5 c 128,-1,28
 1220 0 1220 0 1095 0 c 2,14,-1
EndSplineSet
EndChar

StartChar: ampersand
Encoding: 38 38 325
Width: 1313
VWidth: 1798
GlyphClass: 2
Flags: W
LayerCount: 2
Fore
SplineSet
1017 -250 m 1,0,-1
 932 -150 l 1,1,2
 852 -211 852 -211 757 -240.5 c 128,-1,3
 662 -270 662 -270 557 -270 c 0,4,5
 412 -270 412 -270 306 -217 c 128,-1,6
 200 -164 200 -164 142.5 -71 c 128,-1,7
 85 22 85 22 85 142 c 0,8,9
 85 271 85 271 161 358 c 128,-1,10
 237 445 237 445 357 531 c 1,11,12
 289 619 289 619 248.5 696.5 c 128,-1,13
 208 774 208 774 208 859 c 0,14,15
 208 1030 208 1030 312 1128 c 128,-1,16
 416 1226 416 1226 589 1226 c 0,17,18
 700 1226 700 1226 780.5 1181.5 c 128,-1,19
 861 1137 861 1137 904.5 1064 c 128,-1,20
 948 991 948 991 948 904 c 0,21,22
 948 801 948 801 893 724.5 c 128,-1,23
 838 648 838 648 752 585 c 2,24,-1
 651 511 l 1,25,-1
 939 171 l 1,26,27
 969 229 969 229 985.5 297.5 c 128,-1,28
 1002 366 1002 366 1002 443 c 1,29,-1
 1210 443 l 1,30,31
 1210 315 1210 315 1179.5 203 c 128,-1,32
 1149 91 1149 91 1082 2 c 1,33,-1
 1296 -250 l 1,34,-1
 1017 -250 l 1,0,-1
432 864 m 0,35,36
 432 814 432 814 460 761.5 c 128,-1,37
 488 709 488 709 534 651 c 1,38,-1
 624 711 l 2,39,40
 687 753 687 753 714 793.5 c 128,-1,41
 741 834 741 834 741 895 c 0,42,43
 741 948 741 948 701 991.5 c 128,-1,44
 661 1035 661 1035 588 1035 c 0,45,46
 511 1035 511 1035 471.5 984 c 128,-1,47
 432 933 432 933 432 864 c 0,35,36
327 150 m 0,48,49
 327 54 327 54 389 -12.5 c 128,-1,50
 451 -79 451 -79 566 -79 c 0,51,52
 692 -79 692 -79 801 4 c 1,53,-1
 477 385 l 1,54,-1
 447 363 l 1,55,56
 367 299 367 299 347 243 c 128,-1,57
 327 187 327 187 327 150 c 0,48,49
EndSplineSet
Substitution2: "'smcp' Lowercase to Small Capitals lookup 1 subtable" ampersand.smcp
Substitution2: "'c2sc' Capitals to Small Capitals lookup 0 subtable" ampersand.smcp
Position2: "'cpsp' Capital Spacing lookup 0 subtable" dx=36 dy=0 dh=72 dv=0
EndChar

StartChar: ampersand.smcp
Encoding: 65718 -1 326
Width: 1292
GlyphClass: 2
Flags: W
LayerCount: 2
Fore
SplineSet
513 -18 m 0,0,1
 320 -18 320 -18 207.5 69 c 128,-1,2
 95 156 95 156 95 286 c 0,3,4
 95 387 95 387 148 454 c 128,-1,5
 201 521 201 521 293 583 c 2,6,-1
 344 618 l 1,7,8
 274 690 274 690 230 754 c 128,-1,9
 186 818 186 818 186 907 c 0,10,11
 186 1022 186 1022 276.5 1101.5 c 128,-1,12
 367 1181 367 1181 524 1181 c 0,13,14
 680 1181 680 1181 772.5 1100.5 c 128,-1,15
 865 1020 865 1020 865 900 c 0,16,17
 865 821 865 821 818.5 756.5 c 128,-1,18
 772 692 772 692 704 645 c 2,19,-1
 632 596 l 1,20,-1
 871 350 l 1,21,22
 931 448 931 448 931 582 c 1,23,-1
 1141 582 l 1,24,25
 1141 467 1141 467 1106.5 373.5 c 128,-1,26
 1072 280 1072 280 1012 206 c 1,27,-1
 1213 0 l 1,28,-1
 947 0 l 1,29,-1
 871 78 l 1,30,31
 717 -18 717 -18 513 -18 c 0,0,1
403 886 m 256,32,33
 403 845 403 845 432 807.5 c 128,-1,34
 461 770 461 770 504 727 c 1,35,-1
 556 762 l 2,36,37
 608 796 608 796 627 827 c 128,-1,38
 646 858 646 858 646 891 c 0,39,40
 646 934 646 934 613.5 964.5 c 128,-1,41
 581 995 581 995 522 995 c 0,42,43
 464 995 464 995 433.5 961 c 128,-1,44
 403 927 403 927 403 886 c 256,32,33
335 314 m 0,45,46
 335 252 335 252 383 213 c 128,-1,47
 431 174 431 174 522 174 c 0,48,49
 641 174 641 174 732 221 c 1,50,-1
 473 486 l 1,51,-1
 416 447 l 2,52,53
 365 412 365 412 350 377.5 c 128,-1,54
 335 343 335 343 335 314 c 0,45,46
EndSplineSet
EndChar

StartChar: aogonek
Encoding: 261 261 327
Width: 1104
VWidth: 1798
GlyphClass: 2
Flags: W
AnchorPoint: "Anchor-1" 502 -250 basechar 0
AnchorPoint: "Anchor-0" 582 1040 basechar 0
LayerCount: 2
Fore
SplineSet
997 -634 m 1,0,1
 972 -649 972 -649 933 -663.5 c 128,-1,2
 894 -678 894 -678 834 -678 c 0,3,4
 746 -678 746 -678 685 -627 c 128,-1,5
 624 -576 624 -576 624 -478 c 0,6,7
 624 -417 624 -417 657 -357 c 128,-1,8
 690 -297 690 -297 767 -244 c 1,9,10
 751 -205 751 -205 742 -143 c 1,11,12
 695 -195 695 -195 623 -232.5 c 128,-1,13
 551 -270 551 -270 452 -270 c 0,14,15
 346 -270 346 -270 263 -228 c 128,-1,16
 180 -186 180 -186 133 -113 c 128,-1,17
 86 -40 86 -40 86 52 c 0,18,19
 86 224 86 224 214.5 316 c 128,-1,20
 343 408 343 408 580 408 c 2,21,-1
 734 408 l 1,22,-1
 734 483 l 2,23,24
 734 569 734 569 687 620 c 128,-1,25
 640 671 640 671 543 671 c 0,26,27
 455 671 455 671 402.5 628 c 128,-1,28
 350 585 350 585 350 520 c 1,29,-1
 110 520 l 1,30,31
 110 606 110 606 165 682 c 128,-1,32
 220 758 220 758 320 805 c 128,-1,33
 420 852 420 852 556 852 c 0,34,35
 678 852 678 852 772.5 811 c 128,-1,36
 867 770 867 770 921.5 687.5 c 128,-1,37
 976 605 976 605 976 481 c 2,38,-1
 976 0 l 2,39,40
 976 -147 976 -147 1017 -234 c 1,41,-1
 1017 -250 l 1,42,-1
 976 -250 l 1,43,44
 906 -295 906 -295 860 -342.5 c 128,-1,45
 814 -390 814 -390 814 -450 c 0,46,47
 814 -480 814 -480 830 -499.5 c 128,-1,48
 846 -519 846 -519 885 -519 c 0,49,50
 916 -519 916 -519 938 -510.5 c 128,-1,51
 960 -502 960 -502 974 -495 c 1,52,-1
 997 -634 l 1,0,1
499 -79 m 0,53,54
 585 -79 585 -79 646.5 -38 c 128,-1,55
 708 3 708 3 734 54 c 1,56,-1
 734 259 l 1,57,-1
 598 259 l 2,58,59
 463 259 463 259 395 210 c 128,-1,60
 327 161 327 161 327 75 c 0,61,62
 327 9 327 9 372 -35 c 128,-1,63
 417 -79 417 -79 499 -79 c 0,53,54
EndSplineSet
Substitution2: "'locl' Localized Forms in Latin lookup 8 subtable" aogonek.NAV
Substitution2: "'unic' Unicase lookup 2 subtable" Aogonek.unic
Substitution2: "'smcp' Lowercase to Small Capitals lookup 1 subtable" Aogonek.smcp
EndChar

StartChar: approxequal
Encoding: 8776 8776 329
Width: 1169
GlyphClass: 2
Flags: W
LayerCount: 2
Fore
SplineSet
102 695 m 1,0,-1
 102 907 l 1,1,2
 149 957 149 957 215.5 986 c 128,-1,3
 282 1015 282 1015 347 1015 c 0,4,5
 427 1017 427 1017 476.5 995.5 c 128,-1,6
 526 974 526 974 589 942 c 0,7,8
 648 912 648 912 695 892.5 c 128,-1,9
 742 873 742 873 816 873 c 0,10,11
 881 873 881 873 940.5 906.5 c 128,-1,12
 1000 940 1000 940 1047 1000 c 1,13,-1
 1048 789 l 1,14,15
 1001 738 1001 738 943 709.5 c 128,-1,16
 885 681 885 681 820 681 c 0,17,18
 746 681 746 681 699.5 700.5 c 128,-1,19
 653 720 653 720 594 750 c 0,20,21
 531 782 531 782 481 803.5 c 128,-1,22
 431 825 431 825 351 823 c 0,23,24
 286 823 286 823 217.5 789 c 128,-1,25
 149 755 149 755 102 695 c 1,0,-1
102 277 m 1,26,-1
 101 489 l 1,27,28
 148 539 148 539 212.5 568 c 128,-1,29
 277 597 277 597 342 597 c 0,30,31
 422 599 422 599 471.5 577.5 c 128,-1,32
 521 556 521 556 584 524 c 0,33,34
 643 494 643 494 690 474.5 c 128,-1,35
 737 455 737 455 811 455 c 0,36,37
 876 455 876 455 938 488.5 c 128,-1,38
 1000 522 1000 522 1047 582 c 1,39,-1
 1047 370 l 1,40,41
 1000 320 1000 320 940.5 291 c 128,-1,42
 881 262 881 262 816 262 c 0,43,44
 742 262 742 262 695 281.5 c 128,-1,45
 648 301 648 301 589 331 c 0,46,47
 526 363 526 363 476 385 c 128,-1,48
 426 407 426 407 346 405 c 0,49,50
 281 405 281 405 215 371 c 128,-1,51
 149 337 149 337 102 277 c 1,26,-1
EndSplineSet
EndChar

StartChar: arabic_2dots
Encoding: 65720 -1 330
Width: 517
GlyphClass: 1
Flags: W
LayerCount: 2
Fore
SplineSet
424 255 m 1,0,-1
 578 102 l 1,1,-1
 424 -53 l 1,2,-1
 272 102 l 1,3,-1
 424 255 l 1,0,-1
90 255 m 1,4,-1
 244 102 l 1,5,-1
 90 -53 l 1,6,-1
 -63 102 l 1,7,-1
 90 255 l 1,4,-1
EndSplineSet
EndChar

StartChar: arabic_3dots
Encoding: 65721 -1 331
Width: 528
GlyphClass: 1
Flags: W
LayerCount: 2
Fore
SplineSet
255 466 m 1,0,-1
 401 320 l 1,1,-1
 255 174 l 1,2,-1
 109 320 l 1,3,-1
 255 466 l 1,0,-1
428 212 m 1,4,-1
 574 66 l 1,5,-1
 428 -80 l 1,6,-1
 282 66 l 1,7,-1
 428 212 l 1,4,-1
83 212 m 1,8,-1
 229 66 l 1,9,-1
 83 -80 l 1,10,-1
 -64 66 l 1,11,-1
 83 212 l 1,8,-1
EndSplineSet
EndChar

StartChar: arabic_3dots_a
Encoding: 65722 -1 332
Width: 528
GlyphClass: 1
Flags: W
LayerCount: 2
Fore
SplineSet
428 281 m 1,0,-1
 574 134 l 1,1,-1
 428 -12 l 1,2,-1
 282 134 l 1,3,-1
 428 281 l 1,0,-1
83 281 m 1,4,-1
 229 134 l 1,5,-1
 83 -12 l 1,6,-1
 -64 134 l 1,7,-1
 83 281 l 1,4,-1
255 27 m 1,8,-1
 401 -120 l 1,9,-1
 255 -266 l 1,10,-1
 109 -120 l 1,11,-1
 255 27 l 1,8,-1
EndSplineSet
EndChar

StartChar: arabic_dot
Encoding: 65723 -1 333
Width: 197
GlyphClass: 1
Flags: W
LayerCount: 2
Fore
SplineSet
96 262 m 1,0,-1
 256 102 l 1,1,-1
 96 -58 l 1,2,-1
 -64 102 l 1,3,-1
 96 262 l 1,0,-1
EndSplineSet
EndChar

StartChar: arabic_gaf_bar
Encoding: 65724 -1 334
Width: 787
GlyphClass: 1
Flags: W
LayerCount: 2
Fore
SplineSet
-64 1563 m 1,0,-1
 -64 1691 l 1,1,-1
 719 2009 l 1,2,-1
 719 1881 l 1,3,-1
 -64 1563 l 1,0,-1
EndSplineSet
EndChar

StartChar: asciicircum
Encoding: 94 94 337
Width: 878
VWidth: 1798
GlyphClass: 2
Flags: W
LayerCount: 2
Fore
SplineSet
622 479 m 1,0,-1
 439 951 l 1,1,-1
 256 479 l 1,2,-1
 54 479 l 1,3,-1
 353 1206 l 1,4,-1
 526 1206 l 1,5,-1
 824 479 l 1,6,-1
 622 479 l 1,0,-1
EndSplineSet
EndChar

StartChar: asciitilde
Encoding: 126 126 338
Width: 1357
VWidth: 1798
GlyphClass: 2
Flags: W
LayerCount: 2
Fore
SplineSet
1054 535 m 1,0,-1
 1239 536 l 1,1,2
 1239 422 1239 422 1197 332.5 c 128,-1,3
 1155 243 1155 243 1081.5 191.5 c 128,-1,4
 1008 140 1008 140 911 140 c 0,5,6
 827 140 827 140 762.5 173.5 c 128,-1,7
 698 207 698 207 624 275 c 0,8,9
 578 319 578 319 538 342.5 c 128,-1,10
 498 366 498 366 452 366 c 0,11,12
 385 366 385 366 346 314 c 128,-1,13
 307 262 307 262 307 176 c 1,14,-1
 117 176 l 1,15,16
 117 292 117 292 158.5 379.5 c 128,-1,17
 200 467 200 467 274 516 c 128,-1,18
 348 565 348 565 444 565 c 0,19,20
 528 565 528 565 595.5 530 c 128,-1,21
 663 495 663 495 733 430 c 0,22,23
 781 384 781 384 820 361 c 128,-1,24
 859 338 859 338 903 338 c 0,25,26
 971 338 971 338 1012.5 394 c 128,-1,27
 1054 450 1054 450 1054 535 c 1,0,-1
EndSplineSet
EndChar

StartChar: asterisk
Encoding: 42 42 339
Width: 908
VWidth: 1798
GlyphClass: 2
Flags: W
LayerCount: 2
Fore
SplineSet
128 449 m 1,0,-1
 338 724 l 1,1,-1
 28 814 l 1,2,-1
 81 978 l 1,3,-1
 389 860 l 1,4,-1
 375 1207 l 1,5,-1
 549 1207 l 1,6,-1
 533 853 l 1,7,-1
 836 971 l 1,8,-1
 889 804 l 1,9,-1
 573 713 l 1,10,-1
 778 444 l 1,11,-1
 637 342 l 1,12,-1
 452 632 l 1,13,-1
 270 350 l 1,14,-1
 128 449 l 1,0,-1
EndSplineSet
EndChar

StartChar: at
Encoding: 64 64 340
Width: 1837
VWidth: 1798
GlyphClass: 2
Flags: W
LayerCount: 2
Fore
SplineSet
1743 270 m 0,0,1
 1739 173 1739 173 1714 77 c 128,-1,2
 1689 -19 1689 -19 1638.5 -97.5 c 128,-1,3
 1588 -176 1588 -176 1509 -223.5 c 128,-1,4
 1430 -271 1430 -271 1319 -271 c 0,5,6
 1230 -271 1230 -271 1168 -229.5 c 128,-1,7
 1106 -188 1106 -188 1077 -114 c 1,8,9
 1026 -191 1026 -191 957 -230.5 c 128,-1,10
 888 -270 888 -270 812 -270 c 0,11,12
 665 -270 665 -270 589.5 -147.5 c 128,-1,13
 514 -25 514 -25 533 175 c 0,14,15
 550 348 550 348 615 474.5 c 128,-1,16
 680 601 680 601 776.5 670.5 c 128,-1,17
 873 740 873 740 984 740 c 0,18,19
 1097 740 1097 740 1160.5 708 c 128,-1,20
 1224 676 1224 676 1282 633 c 1,21,-1
 1232 66 l 2,22,23
 1224 -16 1224 -16 1241 -58.5 c 128,-1,24
 1258 -101 1258 -101 1288 -116 c 128,-1,25
 1318 -131 1318 -131 1348 -131 c 0,26,27
 1420 -131 1420 -131 1472 -78 c 128,-1,28
 1524 -25 1524 -25 1553.5 65.5 c 128,-1,29
 1583 156 1583 156 1587 267 c 0,30,31
 1598 501 1598 501 1535 671.5 c 128,-1,32
 1472 842 1472 842 1330 934.5 c 128,-1,33
 1188 1027 1188 1027 963 1027 c 0,34,35
 756 1027 756 1027 604.5 923.5 c 128,-1,36
 453 820 453 820 367 638.5 c 128,-1,37
 281 457 281 457 271 221 c 0,38,39
 253 -148 253 -148 418 -351 c 128,-1,40
 583 -554 583 -554 896 -554 c 0,41,42
 984 -554 984 -554 1074.5 -533.5 c 128,-1,43
 1165 -513 1165 -513 1227 -481 c 1,44,-1
 1265 -614 l 1,45,46
 1195 -659 1195 -659 1090 -681 c 128,-1,47
 985 -703 985 -703 892 -703 c 0,48,49
 633 -703 633 -703 451 -593.5 c 128,-1,50
 269 -484 269 -484 178 -277.5 c 128,-1,51
 87 -71 87 -71 98 221 c 0,52,53
 107 426 107 426 171.5 600 c 128,-1,54
 236 774 236 774 349 902.5 c 128,-1,55
 462 1031 462 1031 618.5 1102 c 128,-1,56
 775 1173 775 1173 967 1173 c 0,57,58
 1226 1173 1226 1173 1403 1061 c 128,-1,59
 1580 949 1580 949 1667 746.5 c 128,-1,60
 1754 544 1754 544 1743 270 c 0,0,1
726 175 m 0,61,62
 713 38 713 38 750.5 -35.5 c 128,-1,63
 788 -109 788 -109 869 -109 c 0,64,65
 914 -109 914 -109 967 -68 c 128,-1,66
 1020 -27 1020 -27 1057 78 c 1,67,-1
 1101 569 l 1,68,69
 1080 577 1080 577 1055 582.5 c 128,-1,70
 1030 588 1030 588 1002 588 c 0,71,72
 889 588 889 588 817.5 483 c 128,-1,73
 746 378 746 378 726 175 c 0,61,62
EndSplineSet
EndChar

StartChar: b
Encoding: 98 98 342
Width: 1151
VWidth: 1798
GlyphClass: 2
Flags: W
AnchorPoint: "Anchor-1" 598 -260 basechar 0
AnchorPoint: "Anchor-0" 634 1361 basechar 0
LayerCount: 2
Fore
SplineSet
1072 301 m 2,0,-1
 1072 280 l 2,1,2
 1072 120 1072 120 1024.5 -4 c 128,-1,3
 977 -128 977 -128 883.5 -199 c 128,-1,4
 790 -270 790 -270 652 -270 c 0,5,6
 553 -270 553 -270 479.5 -233 c 128,-1,7
 406 -196 406 -196 355 -130 c 1,8,-1
 343 -250 l 1,9,-1
 125 -250 l 1,10,-1
 125 1286 l 1,11,-1
 366 1286 l 1,12,-1
 366 725 l 1,13,14
 416 786 416 786 486.5 819 c 128,-1,15
 557 852 557 852 650 852 c 0,16,17
 789 852 789 852 883 782 c 128,-1,18
 977 712 977 712 1024.5 588 c 128,-1,19
 1072 464 1072 464 1072 301 c 2,0,-1
831 280 m 2,20,-1
 831 301 l 2,21,22
 831 398 831 398 809 479 c 128,-1,23
 787 560 787 560 734.5 609 c 128,-1,24
 682 658 682 658 590 658 c 0,25,26
 503 658 503 658 449 618.5 c 128,-1,27
 395 579 395 579 366 515 c 1,28,-1
 366 67 l 1,29,30
 395 3 395 3 450 -36.5 c 128,-1,31
 505 -76 505 -76 592 -76 c 0,32,33
 682 -76 682 -76 734.5 -28.5 c 128,-1,34
 787 19 787 19 809 99.5 c 128,-1,35
 831 180 831 180 831 280 c 2,20,-1
EndSplineSet
Substitution2: "'unic' Unicase lookup 2 subtable" B
Substitution2: "'smcp' Lowercase to Small Capitals lookup 1 subtable" B.smcp
EndChar

StartChar: backslash
Encoding: 92 92 343
Width: 853
VWidth: 1798
GlyphClass: 2
Flags: W
LayerCount: 2
Fore
SplineSet
626 -375 m 1,0,-1
 18 1206 l 1,1,-1
 259 1206 l 1,2,-1
 867 -375 l 1,3,-1
 626 -375 l 1,0,-1
EndSplineSet
EndChar

StartChar: bar
Encoding: 124 124 344
Width: 509
VWidth: 1798
GlyphClass: 2
Flags: W
LayerCount: 2
Fore
SplineSet
336 1206 m 1,0,-1
 336 -520 l 1,1,-1
 175 -520 l 1,2,-1
 175 1206 l 1,3,-1
 336 1206 l 1,0,-1
EndSplineSet
EndChar

StartChar: braceleft
Encoding: 123 123 345
Width: 683
VWidth: 1798
GlyphClass: 2
Flags: W
LayerCount: 2
Fore
SplineSet
654 -476 m 1,0,-1
 606 -614 l 1,1,2
 470 -575 470 -575 392 -505.5 c 128,-1,3
 314 -436 314 -436 281.5 -344.5 c 128,-1,4
 249 -253 249 -253 249 -148 c 2,5,-1
 249 56 l 2,6,7
 249 158 249 158 203.5 218.5 c 128,-1,8
 158 279 158 279 56 279 c 1,9,-1
 56 454 l 1,10,11
 158 454 158 454 203.5 514.5 c 128,-1,12
 249 575 249 575 249 676 c 2,13,-1
 249 882 l 2,14,15
 249 987 249 987 281.5 1078.5 c 128,-1,16
 314 1170 314 1170 392 1239.5 c 128,-1,17
 470 1309 470 1309 606 1347 c 1,18,-1
 654 1210 l 1,19,20
 551 1176 551 1176 512.5 1087 c 128,-1,21
 474 998 474 998 474 882 c 2,22,-1
 474 676 l 2,23,24
 474 577 474 577 432.5 495.5 c 128,-1,25
 391 414 391 414 301 367 c 1,26,27
 391 320 391 320 432.5 238 c 128,-1,28
 474 156 474 156 474 56 c 2,29,-1
 474 -148 l 2,30,31
 474 -263 474 -263 512.5 -352 c 128,-1,32
 551 -441 551 -441 654 -476 c 1,0,-1
EndSplineSet
EndChar

StartChar: braceright
Encoding: 125 125 346
Width: 683
VWidth: 1798
GlyphClass: 2
Flags: W
LayerCount: 2
Fore
SplineSet
76 -614 m 1,0,-1
 28 -476 l 1,1,2
 132 -441 132 -441 170 -352 c 128,-1,3
 208 -263 208 -263 208 -148 c 2,4,-1
 208 56 l 2,5,6
 208 159 208 159 252 240.5 c 128,-1,7
 296 322 296 322 392 367 c 1,8,9
 296 411 296 411 252 492.5 c 128,-1,10
 208 574 208 574 208 676 c 2,11,-1
 208 882 l 2,12,13
 208 998 208 998 170 1087 c 128,-1,14
 132 1176 132 1176 28 1210 c 1,15,-1
 76 1347 l 1,16,17
 213 1309 213 1309 291 1239.5 c 128,-1,18
 369 1170 369 1170 401 1078.5 c 128,-1,19
 433 987 433 987 433 882 c 2,20,-1
 433 676 l 2,21,22
 433 575 433 575 478.5 514.5 c 128,-1,23
 524 454 524 454 627 454 c 1,24,-1
 627 279 l 1,25,26
 524 279 524 279 478.5 218.5 c 128,-1,27
 433 158 433 158 433 56 c 2,28,-1
 433 -148 l 2,29,30
 433 -253 433 -253 401 -344.5 c 128,-1,31
 369 -436 369 -436 291 -505.5 c 128,-1,32
 213 -575 213 -575 76 -614 c 1,0,-1
EndSplineSet
EndChar

StartChar: bracketleft
Encoding: 91 91 347
Width: 555
VWidth: 1798
GlyphClass: 2
Flags: W
LayerCount: 2
Fore
SplineSet
538 1243 m 1,0,-1
 374 1243 l 1,1,-1
 374 -389 l 1,2,-1
 538 -389 l 1,3,-1
 538 -576 l 1,4,-1
 149 -576 l 1,5,-1
 149 1429 l 1,6,-1
 538 1429 l 1,7,-1
 538 1243 l 1,0,-1
EndSplineSet
Position2: "Single Positioning lookup 9 subtable" dx=0 dy=0 dh=100 dv=0
Position2: "Single Positioning lookup 8 subtable" dx=0 dy=0 dh=160 dv=0
EndChar

StartChar: bracketright
Encoding: 93 93 348
Width: 555
VWidth: 1798
GlyphClass: 2
Flags: W
LayerCount: 2
Fore
SplineSet
11 1429 m 1,0,-1
 400 1429 l 1,1,-1
 400 -576 l 1,2,-1
 11 -576 l 1,3,-1
 11 -389 l 1,4,-1
 177 -389 l 1,5,-1
 177 1243 l 1,6,-1
 11 1243 l 1,7,-1
 11 1429 l 1,0,-1
EndSplineSet
EndChar

StartChar: breve
Encoding: 728 728 349
Width: 894
VWidth: 1798
GlyphClass: 2
Flags: W
LayerCount: 2
Fore
SplineSet
588 1261 m 1,0,-1
 767 1261 l 1,1,2
 767 1137 767 1137 679.5 1058 c 128,-1,3
 592 979 592 979 443 979 c 0,4,5
 292 979 292 979 204.5 1058 c 128,-1,6
 117 1137 117 1137 117 1261 c 1,7,-1
 296 1261 l 1,8,9
 296 1206 296 1206 329 1163 c 128,-1,10
 362 1120 362 1120 443 1120 c 0,11,12
 521 1120 521 1120 554.5 1163 c 128,-1,13
 588 1206 588 1206 588 1261 c 1,0,-1
EndSplineSet
EndChar

StartChar: brokenbar
Encoding: 166 166 350
Width: 504
VWidth: 1798
GlyphClass: 2
Flags: W
LayerCount: 2
Fore
SplineSet
362 1206 m 1,0,-1
 362 448 l 1,1,-1
 137 448 l 1,2,-1
 137 1206 l 1,3,-1
 362 1206 l 1,0,-1
362 -520 m 1,4,-1
 137 -520 l 1,5,-1
 137 273 l 1,6,-1
 362 273 l 1,7,-1
 362 -520 l 1,4,-1
EndSplineSet
EndChar

StartChar: bullet
Encoding: 8226 8226 351
Width: 716
GlyphClass: 2
Flags: W
LayerCount: 2
Fore
SplineSet
138 730 m 2,0,-1
 138 769 l 2,1,2
 138 863 138 863 197.5 923 c 128,-1,3
 257 983 257 983 359 983 c 0,4,5
 463 983 463 983 522.5 922.5 c 128,-1,6
 582 862 582 862 582 769 c 2,7,-1
 582 730 l 2,8,9
 582 637 582 637 522.5 577.5 c 128,-1,10
 463 518 463 518 360 518 c 256,11,12
 257 518 257 518 197.5 577.5 c 128,-1,13
 138 637 138 637 138 730 c 2,0,-1
EndSplineSet
EndChar

StartChar: c
Encoding: 99 99 352
Width: 1069
VWidth: 1798
GlyphClass: 2
Flags: W
AnchorPoint: "Anchor-1" 533 -260 basechar 0
AnchorPoint: "Anchor-0" 533 1040 basechar 0
LayerCount: 2
Fore
SplineSet
566 -78 m 0,0,1
 655 -78 655 -78 716.5 -26.5 c 128,-1,2
 778 25 778 25 782 108 c 1,3,-1
 1009 108 l 1,4,5
 1006 2 1006 2 946.5 -83.5 c 128,-1,6
 887 -169 887 -169 788 -219.5 c 128,-1,7
 689 -270 689 -270 569 -270 c 0,8,9
 404 -270 404 -270 295 -196.5 c 128,-1,10
 186 -123 186 -123 132 0.5 c 128,-1,11
 78 124 78 124 78 273 c 2,12,-1
 78 308 l 2,13,14
 78 458 78 458 132 581.5 c 128,-1,15
 186 705 186 705 295 778.5 c 128,-1,16
 404 852 404 852 568 852 c 0,17,18
 698 852 698 852 796 800.5 c 128,-1,19
 894 749 894 749 950 657.5 c 128,-1,20
 1006 566 1006 566 1009 445 c 1,21,-1
 782 445 l 1,22,23
 778 534 778 534 721 597 c 128,-1,24
 664 660 664 660 565 660 c 0,25,26
 468 660 468 660 414.5 609 c 128,-1,27
 361 558 361 558 340 477.5 c 128,-1,28
 319 397 319 397 319 308 c 2,29,-1
 319 273 l 2,30,31
 319 184 319 184 339.5 103.5 c 128,-1,32
 360 23 360 23 414 -27.5 c 128,-1,33
 468 -78 468 -78 566 -78 c 0,0,1
EndSplineSet
Substitution2: "'unic' Unicase lookup 2 subtable" C
Substitution2: "'smcp' Lowercase to Small Capitals lookup 1 subtable" C.smcp
EndChar

StartChar: caron
Encoding: 711 711 354
Width: 938
VWidth: 1798
GlyphClass: 2
Flags: W
LayerCount: 2
Fore
SplineSet
315 1286 m 1,0,-1
 465 1129 l 1,1,-1
 614 1286 l 1,2,-1
 821 1286 l 1,3,-1
 821 1275 l 1,4,-1
 541 998 l 1,5,-1
 389 998 l 1,6,-1
 110 1276 l 1,7,-1
 110 1286 l 1,8,-1
 315 1286 l 1,0,-1
EndSplineSet
EndChar

StartChar: cedilla
Encoding: 184 184 358
Width: 531
VWidth: 1798
GlyphClass: 2
Flags: W
LayerCount: 2
Fore
SplineSet
139 -246 m 1,0,-1
 318 -246 l 1,1,-1
 306 -302 l 1,2,3
 363 -312 363 -312 410.5 -350.5 c 128,-1,4
 458 -389 458 -389 458 -475 c 0,5,6
 458 -575 458 -575 374.5 -637 c 128,-1,7
 291 -699 291 -699 129 -699 c 1,8,-1
 122 -563 l 1,9,10
 180 -563 180 -563 220 -542 c 128,-1,11
 260 -521 260 -521 260 -472 c 0,12,13
 260 -426 260 -426 224 -408.5 c 128,-1,14
 188 -391 188 -391 108 -385 c 1,15,-1
 139 -246 l 1,0,-1
EndSplineSet
EndChar

StartChar: cent
Encoding: 162 162 359
Width: 1154
VWidth: 1798
GlyphClass: 2
Flags: W
LayerCount: 2
Fore
SplineSet
591 -78 m 0,0,1
 680 -78 680 -78 741.5 -26.5 c 128,-1,2
 803 25 803 25 807 108 c 1,3,-1
 1035 108 l 1,4,5
 1032 16 1032 16 985.5 -61.5 c 128,-1,6
 939 -139 939 -139 861 -191.5 c 128,-1,7
 783 -244 783 -244 685 -262 c 1,8,-1
 685 -495 l 1,9,-1
 494 -495 l 1,10,-1
 494 -262 l 1,11,12
 363 -239 363 -239 276 -163 c 128,-1,13
 189 -87 189 -87 146 26.5 c 128,-1,14
 103 140 103 140 103 273 c 2,15,-1
 103 308 l 2,16,17
 103 442 103 442 146 555.5 c 128,-1,18
 189 669 189 669 276 745.5 c 128,-1,19
 363 822 363 822 494 844 c 1,20,-1
 494 1068 l 1,21,-1
 685 1068 l 1,22,-1
 685 845 l 1,23,24
 841 819 841 819 936 711.5 c 128,-1,25
 1031 604 1031 604 1035 445 c 1,26,-1
 807 445 l 1,27,28
 803 534 803 534 746 597 c 128,-1,29
 689 660 689 660 590 660 c 0,30,31
 493 660 493 660 439.5 609 c 128,-1,32
 386 558 386 558 365 477.5 c 128,-1,33
 344 397 344 397 344 308 c 2,34,-1
 344 273 l 2,35,36
 344 184 344 184 364.5 103.5 c 128,-1,37
 385 23 385 23 439 -27.5 c 128,-1,38
 493 -78 493 -78 591 -78 c 0,0,1
EndSplineSet
EndChar

StartChar: circumflex
Encoding: 710 710 360
Width: 990
VWidth: 1798
GlyphClass: 2
Flags: W
LayerCount: 2
Fore
SplineSet
559 1286 m 1,0,-1
 836 1010 l 1,1,-1
 836 999 l 1,2,-1
 641 999 l 1,3,-1
 488 1156 l 1,4,-1
 335 999 l 1,5,-1
 144 999 l 1,6,-1
 144 1012 l 1,7,-1
 417 1286 l 1,8,-1
 559 1286 l 1,0,-1
EndSplineSet
EndChar

StartChar: colon
Encoding: 58 58 361
Width: 586
VWidth: 1798
GlyphClass: 2
Flags: W
LayerCount: 2
Fore
SplineSet
138 491 m 256,0,1
 138 556 138 556 183.5 600 c 128,-1,2
 229 644 229 644 293 644 c 0,3,4
 358 644 358 644 403 600 c 128,-1,5
 448 556 448 556 448 491 c 0,6,7
 448 427 448 427 402.5 383.5 c 128,-1,8
 357 340 357 340 293 340 c 0,9,10
 228 340 228 340 183 383 c 128,-1,11
 138 426 138 426 138 491 c 256,0,1
138 -97 m 0,12,13
 138 -33 138 -33 183.5 11 c 128,-1,14
 229 55 229 55 293 55 c 0,15,16
 358 55 358 55 403 11 c 128,-1,17
 448 -33 448 -33 448 -97 c 256,18,19
 448 -161 448 -161 402.5 -205 c 128,-1,20
 357 -249 357 -249 293 -249 c 0,21,22
 228 -249 228 -249 183 -205.5 c 128,-1,23
 138 -162 138 -162 138 -97 c 0,12,13
EndSplineSet
EndChar

StartChar: comma
Encoding: 44 44 362
Width: 458
VWidth: 1798
GlyphClass: 2
Flags: W
LayerCount: 2
Fore
SplineSet
350 -18 m 1,0,-1
 349 -190 l 2,1,2
 349 -292 349 -292 298.5 -399.5 c 128,-1,3
 248 -507 248 -507 163 -578 c 1,4,-1
 34 -503 l 1,5,6
 75 -435 75 -435 105.5 -364 c 128,-1,7
 136 -293 136 -293 136 -199 c 2,8,-1
 136 -18 l 1,9,-1
 350 -18 l 1,0,-1
EndSplineSet
EndChar

StartChar: commaaccent
Encoding: 65725 -1 363
Width: 489
GlyphClass: 1
Flags: W
LayerCount: 2
Fore
SplineSet
340 256 m 1,0,-1
 340 181 l 2,1,2
 340 94 340 94 301.5 0 c 128,-1,3
 263 -94 263 -94 196 -156 c 1,4,-1
 71 -81 l 1,5,6
 106 -25 106 -25 126 35 c 128,-1,7
 146 95 146 95 146 172 c 2,8,-1
 146 256 l 1,9,-1
 340 256 l 1,0,-1
EndSplineSet
EndChar

StartChar: commaaccentrotate
Encoding: 65726 -1 364
Width: 510
GlyphClass: 1
Flags: W
LayerCount: 2
Fore
SplineSet
144 1133 m 1,0,-1
 144 1266 l 2,1,2
 144 1363 144 1363 187 1448.5 c 128,-1,3
 230 1534 230 1534 285 1577 c 1,4,-1
 414 1497 l 1,5,6
 385 1444 385 1444 367.5 1385 c 128,-1,7
 350 1326 350 1326 350 1255 c 2,8,-1
 349 1133 l 1,9,-1
 144 1133 l 1,0,-1
EndSplineSet
EndChar

StartChar: copyright
Encoding: 169 169 365
Width: 1609
VWidth: 1798
GlyphClass: 2
Flags: W
LayerCount: 2
Fore
SplineSet
90 479 m 256,0,1
 90 638 90 638 145 774 c 128,-1,2
 200 910 200 910 298 1011.5 c 128,-1,3
 396 1113 396 1113 524.5 1169.5 c 128,-1,4
 653 1226 653 1226 800 1226 c 256,5,6
 947 1226 947 1226 1075.5 1169.5 c 128,-1,7
 1204 1113 1204 1113 1301.5 1011.5 c 128,-1,8
 1399 910 1399 910 1454 774 c 128,-1,9
 1509 638 1509 638 1509 479 c 256,10,11
 1509 320 1509 320 1454 184 c 128,-1,12
 1399 48 1399 48 1301.5 -54.5 c 128,-1,13
 1204 -157 1204 -157 1075.5 -214 c 128,-1,14
 947 -271 947 -271 800 -271 c 256,15,16
 653 -271 653 -271 524.5 -214 c 128,-1,17
 396 -157 396 -157 298 -54.5 c 128,-1,18
 200 48 200 48 145 184 c 128,-1,19
 90 320 90 320 90 479 c 256,0,1
207 479 m 256,20,21
 207 346 207 346 253 231.5 c 128,-1,22
 299 117 299 117 380.5 31.5 c 128,-1,23
 462 -54 462 -54 569.5 -101.5 c 128,-1,24
 677 -149 677 -149 800 -149 c 0,25,26
 922 -149 922 -149 1029 -101.5 c 128,-1,27
 1136 -54 1136 -54 1217.5 31.5 c 128,-1,28
 1299 117 1299 117 1345 231.5 c 128,-1,29
 1391 346 1391 346 1391 479 c 256,30,31
 1391 612 1391 612 1345 726 c 128,-1,32
 1299 840 1299 840 1217.5 925 c 128,-1,33
 1136 1010 1136 1010 1029 1057.5 c 128,-1,34
 922 1105 922 1105 800 1105 c 0,35,36
 677 1105 677 1105 569.5 1057.5 c 128,-1,37
 462 1010 462 1010 380.5 925 c 128,-1,38
 299 840 299 840 253 726 c 128,-1,39
 207 612 207 612 207 479 c 256,20,21
969 347 m 1,40,-1
 1119 347 l 1,41,42
 1119 190 1119 190 1029.5 111.5 c 128,-1,43
 940 33 940 33 786 33 c 0,44,45
 626 33 626 33 532.5 140.5 c 128,-1,46
 439 248 439 248 439 420 c 2,47,-1
 439 537 l 2,48,49
 439 709 439 709 532.5 816.5 c 128,-1,50
 626 924 626 924 786 924 c 0,51,52
 940 924 940 924 1030 845.5 c 128,-1,53
 1120 767 1120 767 1120 610 c 1,54,-1
 970 610 l 1,55,56
 970 708 970 708 923 750.5 c 128,-1,57
 876 793 876 793 786 793 c 0,58,59
 688 793 688 793 637.5 721.5 c 128,-1,60
 587 650 587 650 587 538 c 2,61,-1
 587 420 l 2,62,63
 587 307 587 307 637.5 235.5 c 128,-1,64
 688 164 688 164 786 164 c 0,65,66
 876 164 876 164 922.5 206 c 128,-1,67
 969 248 969 248 969 347 c 1,40,-1
EndSplineSet
EndChar

StartChar: crossbar
Encoding: 65727 -1 366
Width: 950
GlyphClass: 1
Flags: W
LayerCount: 2
Fore
SplineSet
813 817 m 1,0,-1
 813 651 l 1,1,-1
 141 651 l 1,2,-1
 141 817 l 1,3,-1
 813 817 l 1,0,-1
EndSplineSet
EndChar

StartChar: currency
Encoding: 164 164 367
Width: 1438
VWidth: 1798
GlyphClass: 2
Flags: W
LayerCount: 2
Fore
SplineSet
127 358 m 0,0,1
 127 463 127 463 156.5 556 c 128,-1,2
 186 649 186 649 238 726 c 1,3,-1
 92 875 l 1,4,-1
 226 1014 l 1,5,-1
 371 866 l 1,6,7
 445 922 445 922 534.5 953 c 128,-1,8
 624 984 624 984 722 984 c 0,9,10
 821 984 821 984 911 952.5 c 128,-1,11
 1001 921 1001 921 1075 865 c 1,12,-1
 1222 1015 l 1,13,-1
 1358 875 l 1,14,-1
 1209 723 l 1,15,16
 1260 646 1260 646 1288.5 553.5 c 128,-1,17
 1317 461 1317 461 1317 358 c 0,18,19
 1317 259 1317 259 1290.5 170 c 128,-1,20
 1264 81 1264 81 1217 6 c 1,21,-1
 1358 -137 l 1,22,-1
 1222 -277 l 1,23,-1
 1088 -140 l 1,24,25
 1012 -201 1012 -201 918.5 -235.5 c 128,-1,26
 825 -270 825 -270 722 -270 c 256,27,28
 619 -270 619 -270 526.5 -236 c 128,-1,29
 434 -202 434 -202 358 -141 c 1,30,-1
 226 -276 l 1,31,-1
 92 -137 l 1,32,-1
 230 3 l 1,33,34
 181 78 181 78 154 168 c 128,-1,35
 127 258 127 258 127 358 c 0,0,1
304 358 m 256,36,37
 304 233 304 233 360 131.5 c 128,-1,38
 416 30 416 30 511 -30 c 128,-1,39
 606 -90 606 -90 722 -90 c 256,40,41
 838 -90 838 -90 932.5 -30 c 128,-1,42
 1027 30 1027 30 1083 131.5 c 128,-1,43
 1139 233 1139 233 1139 358 c 256,44,45
 1139 483 1139 483 1083 584.5 c 128,-1,46
 1027 686 1027 686 932.5 745.5 c 128,-1,47
 838 805 838 805 722 805 c 256,48,49
 606 805 606 805 511 745.5 c 128,-1,50
 416 686 416 686 360 584.5 c 128,-1,51
 304 483 304 483 304 358 c 256,36,37
EndSplineSet
EndChar

StartChar: d
Encoding: 100 100 368
Width: 1154
VWidth: 1798
GlyphClass: 2
Flags: W
AnchorPoint: "Anchor-1" 617 -250 basechar 0
AnchorPoint: "Anchor-0" 549 1362 basechar 0
LayerCount: 2
Fore
SplineSet
80 279 m 2,0,-1
 80 300 l 2,1,2
 80 465 80 465 131 589 c 128,-1,3
 182 713 182 713 277.5 782.5 c 128,-1,4
 373 852 373 852 505 852 c 0,5,6
 595 852 595 852 664 820 c 128,-1,7
 733 788 733 788 784 729 c 1,8,-1
 784 1286 l 1,9,-1
 1026 1286 l 1,10,-1
 1026 -250 l 1,11,-1
 807 -250 l 1,12,-1
 795 -134 l 1,13,14
 743 -199 743 -199 670.5 -234.5 c 128,-1,15
 598 -270 598 -270 503 -270 c 0,16,17
 372 -270 372 -270 277 -198.5 c 128,-1,18
 182 -127 182 -127 131 -3 c 128,-1,19
 80 121 80 121 80 279 c 2,0,-1
321 300 m 2,20,-1
 321 279 l 2,21,22
 321 181 321 181 345.5 100.5 c 128,-1,23
 370 20 370 20 423.5 -27.5 c 128,-1,24
 477 -75 477 -75 564 -75 c 0,25,26
 646 -75 646 -75 700 -37.5 c 128,-1,27
 754 0 754 0 784 61 c 1,28,-1
 784 523 l 1,29,30
 754 584 754 584 700.5 621 c 128,-1,31
 647 658 647 658 566 658 c 0,32,33
 479 658 479 658 425 609.5 c 128,-1,34
 371 561 371 561 346 480 c 128,-1,35
 321 399 321 399 321 300 c 2,20,-1
EndSplineSet
Substitution2: "'unic' Unicase lookup 2 subtable" D
Substitution2: "'smcp' Lowercase to Small Capitals lookup 1 subtable" D.smcp
EndChar

StartChar: dagger
Encoding: 8224 8224 369
Width: 1115
GlyphClass: 2
Flags: W
LayerCount: 2
Fore
SplineSet
1053 1082 m 1,0,-1
 1053 886 l 1,1,-1
 676 886 l 1,2,-1
 676 0 l 1,3,-1
 435 0 l 1,4,-1
 435 886 l 1,5,-1
 63 886 l 1,6,-1
 63 1082 l 1,7,-1
 435 1082 l 1,8,-1
 435 1456 l 1,9,-1
 676 1456 l 1,10,-1
 676 1082 l 1,11,-1
 1053 1082 l 1,0,-1
EndSplineSet
EndChar

StartChar: daggerdbl
Encoding: 8225 8225 370
Width: 1178
GlyphClass: 2
Flags: W
LayerCount: 2
Fore
SplineSet
1082 192 m 1,0,-1
 1082 0 l 1,1,-1
 705 0 l 1,2,-1
 705 -416 l 1,3,-1
 463 -416 l 1,4,-1
 463 0 l 1,5,-1
 93 0 l 1,6,-1
 93 192 l 1,7,-1
 463 192 l 1,8,-1
 463 890 l 1,9,-1
 93 890 l 1,10,-1
 93 1082 l 1,11,-1
 463 1082 l 1,12,-1
 463 1456 l 1,13,-1
 705 1456 l 1,14,-1
 705 1082 l 1,15,-1
 1082 1082 l 1,16,-1
 1082 890 l 1,17,-1
 705 890 l 1,18,-1
 705 192 l 1,19,-1
 1082 192 l 1,0,-1
EndSplineSet
EndChar

StartChar: dcroat
Encoding: 273 273 372
Width: 1260
VWidth: 1798
GlyphClass: 2
Flags: W
AnchorPoint: "Anchor-1" 617 -250 basechar 0
AnchorPoint: "Anchor-0" 549 1361 basechar 0
LayerCount: 2
Fore
SplineSet
80 279 m 2,0,-1
 80 300 l 2,1,2
 80 465 80 465 131 589 c 128,-1,3
 182 713 182 713 277.5 782.5 c 128,-1,4
 373 852 373 852 505 852 c 0,5,6
 595 852 595 852 664 820 c 128,-1,7
 733 788 733 788 784 729 c 1,8,-1
 784 976 l 1,9,-1
 525 976 l 1,10,-1
 525 1143 l 1,11,-1
 784 1143 l 1,12,-1
 784 1286 l 1,13,-1
 1026 1286 l 1,14,-1
 1026 1143 l 1,15,-1
 1197 1143 l 1,16,-1
 1197 976 l 1,17,-1
 1026 976 l 1,18,-1
 1026 -250 l 1,19,-1
 807 -250 l 1,20,-1
 795 -134 l 1,21,22
 743 -199 743 -199 670.5 -234.5 c 128,-1,23
 598 -270 598 -270 503 -270 c 0,24,25
 372 -270 372 -270 277 -198.5 c 128,-1,26
 182 -127 182 -127 131 -3 c 128,-1,27
 80 121 80 121 80 279 c 2,0,-1
321 300 m 2,28,-1
 321 279 l 2,29,30
 321 181 321 181 345.5 100.5 c 128,-1,31
 370 20 370 20 423.5 -27.5 c 128,-1,32
 477 -75 477 -75 564 -75 c 0,33,34
 646 -75 646 -75 700 -37.5 c 128,-1,35
 754 0 754 0 784 61 c 1,36,-1
 784 523 l 1,37,38
 754 584 754 584 700.5 621 c 128,-1,39
 647 658 647 658 566 658 c 0,40,41
 479 658 479 658 425 609.5 c 128,-1,42
 371 561 371 561 346 480 c 128,-1,43
 321 399 321 399 321 300 c 2,28,-1
EndSplineSet
Substitution2: "'unic' Unicase lookup 2 subtable" Dcroat
Substitution2: "'smcp' Lowercase to Small Capitals lookup 1 subtable" Dcroat.smcp
EndChar

StartChar: degree
Encoding: 176 176 373
Width: 783
VWidth: 1798
GlyphClass: 2
Flags: W
LayerCount: 2
Fore
SplineSet
129 959 m 256,0,1
 129 1032 129 1032 165 1093 c 128,-1,2
 201 1154 201 1154 261 1190.5 c 128,-1,3
 321 1227 321 1227 393 1227 c 256,4,5
 465 1227 465 1227 524 1190.5 c 128,-1,6
 583 1154 583 1154 618.5 1093 c 128,-1,7
 654 1032 654 1032 654 959 c 256,8,9
 654 886 654 886 618.5 826 c 128,-1,10
 583 766 583 766 524 730.5 c 128,-1,11
 465 695 465 695 393 695 c 256,12,13
 321 695 321 695 261 730.5 c 128,-1,14
 201 766 201 766 165 826 c 128,-1,15
 129 886 129 886 129 959 c 256,0,1
264 959 m 0,16,17
 264 904 264 904 302.5 868 c 128,-1,18
 341 832 341 832 393 832 c 0,19,20
 446 832 446 832 482 868 c 128,-1,21
 518 904 518 904 518 959 c 0,22,23
 518 1015 518 1015 482 1052 c 128,-1,24
 446 1089 446 1089 393 1089 c 0,25,26
 341 1089 341 1089 302.5 1052 c 128,-1,27
 264 1015 264 1015 264 959 c 0,16,17
EndSplineSet
EndChar

StartChar: dieresis
Encoding: 168 168 374
Width: 914
VWidth: 1798
GlyphClass: 2
Flags: W
LayerCount: 2
Fore
SplineSet
99 1119 m 0,0,1
 99 1168 99 1168 133 1201.5 c 128,-1,2
 167 1235 167 1235 223 1235 c 0,3,4
 280 1235 280 1235 314 1201.5 c 128,-1,5
 348 1168 348 1168 348 1119 c 0,6,7
 348 1071 348 1071 314 1037.5 c 128,-1,8
 280 1004 280 1004 223 1004 c 0,9,10
 167 1004 167 1004 133 1037.5 c 128,-1,11
 99 1071 99 1071 99 1119 c 0,0,1
562 1118 m 256,12,13
 562 1167 562 1167 596 1200.5 c 128,-1,14
 630 1234 630 1234 687 1234 c 0,15,16
 743 1234 743 1234 777.5 1200.5 c 128,-1,17
 812 1167 812 1167 812 1118 c 256,18,19
 812 1069 812 1069 777.5 1036 c 128,-1,20
 743 1003 743 1003 687 1003 c 0,21,22
 630 1003 630 1003 596 1036 c 128,-1,23
 562 1069 562 1069 562 1118 c 256,12,13
EndSplineSet
EndChar

StartChar: divide
Encoding: 247 247 375
Width: 1179
VWidth: 1798
GlyphClass: 2
Flags: W
LayerCount: 2
Fore
SplineSet
459 619 m 256,0,1
 459 675 459 675 498.5 715 c 128,-1,2
 538 755 538 755 593 755 c 0,3,4
 649 755 649 755 688.5 715 c 128,-1,5
 728 675 728 675 728 619 c 0,6,7
 728 564 728 564 688.5 524.5 c 128,-1,8
 649 485 649 485 593 485 c 0,9,10
 538 485 538 485 498.5 524 c 128,-1,11
 459 563 459 563 459 619 c 256,0,1
129 179 m 1,12,-1
 129 366 l 1,13,-1
 1050 366 l 1,14,-1
 1050 179 l 1,15,-1
 129 179 l 1,12,-1
459 -79 m 0,16,17
 459 -24 459 -24 498.5 16 c 128,-1,18
 538 56 538 56 593 56 c 0,19,20
 649 56 649 56 688.5 16 c 128,-1,21
 728 -24 728 -24 728 -79 c 256,22,23
 728 -134 728 -134 688.5 -174 c 128,-1,24
 649 -214 649 -214 593 -214 c 0,25,26
 538 -214 538 -214 498.5 -175 c 128,-1,27
 459 -136 459 -136 459 -79 c 0,16,17
EndSplineSet
EndChar

StartChar: dollar
Encoding: 36 36 376
Width: 1164
VWidth: 1798
GlyphClass: 2
Flags: W
LayerCount: 2
Fore
SplineSet
821 129 m 0,0,1
 821 215 821 215 767 272 c 128,-1,2
 713 329 713 329 579 376 c 0,3,4
 450 421 450 421 355 477.5 c 128,-1,5
 260 534 260 534 207.5 617.5 c 128,-1,6
 155 701 155 701 155 826 c 0,7,8
 155 994 155 994 258.5 1099.5 c 128,-1,9
 362 1205 362 1205 535 1223 c 1,10,-1
 535 1439 l 1,11,-1
 689 1439 l 1,12,-1
 689 1221 l 1,13,14
 860 1198 860 1198 958.5 1078.5 c 128,-1,15
 1057 959 1057 959 1057 757 c 1,16,-1
 817 757 l 1,17,18
 817 885 817 885 760.5 958 c 128,-1,19
 704 1031 704 1031 603 1031 c 0,20,21
 496 1031 496 1031 446.5 973.5 c 128,-1,22
 397 916 397 916 397 827 c 0,23,24
 397 741 397 741 449 686.5 c 128,-1,25
 501 632 501 632 642 580 c 0,26,27
 771 534 771 534 865.5 477.5 c 128,-1,28
 960 421 960 421 1011.5 338.5 c 128,-1,29
 1063 256 1063 256 1063 131 c 0,30,31
 1063 -44 1063 -44 956 -146 c 128,-1,32
 849 -248 849 -248 670 -267 c 1,33,-1
 670 -462 l 1,34,-1
 517 -462 l 1,35,-1
 517 -267 l 1,36,37
 410 -256 410 -256 314.5 -207 c 128,-1,38
 219 -158 219 -158 159.5 -60.5 c 128,-1,39
 100 37 100 37 100 193 c 1,40,-1
 342 193 l 1,41,42
 342 89 342 89 379 30.5 c 128,-1,43
 416 -28 416 -28 473 -51.5 c 128,-1,44
 530 -75 530 -75 590 -75 c 0,45,46
 703 -75 703 -75 762 -18.5 c 128,-1,47
 821 38 821 38 821 129 c 0,0,1
EndSplineSet
Substitution2: "'c2sc' Capitals to Small Capitals lookup 0 subtable" dollar.smcp
Position2: "'cpsp' Capital Spacing lookup 0 subtable" dx=36 dy=0 dh=72 dv=0
EndChar

StartChar: dollar.smcp
Encoding: 65728 -1 377
Width: 1079
GlyphClass: 2
Flags: W
LayerCount: 2
Fore
SplineSet
774 305 m 0,0,1
 774 370 774 370 723.5 412 c 128,-1,2
 673 454 673 454 529 488 c 0,3,4
 321 538 321 538 212 618 c 128,-1,5
 103 698 103 698 103 850 c 0,6,7
 103 984 103 984 207.5 1073.5 c 128,-1,8
 312 1163 312 1163 482 1178 c 1,9,-1
 482 1395 l 1,10,-1
 635 1395 l 1,11,-1
 635 1176 l 1,12,13
 807 1154 807 1154 907.5 1058.5 c 128,-1,14
 1008 963 1008 963 1008 822 c 1,15,-1
 767 822 l 1,16,17
 767 896 767 896 710.5 948 c 128,-1,18
 654 1000 654 1000 544 1000 c 0,19,20
 438 1000 438 1000 387 956 c 128,-1,21
 336 912 336 912 336 856 c 0,22,23
 336 797 336 797 392.5 758.5 c 128,-1,24
 449 720 449 720 588 685 c 0,25,26
 795 636 795 636 901.5 550 c 128,-1,27
 1008 464 1008 464 1008 311 c 0,28,29
 1008 173 1008 173 906.5 88.5 c 128,-1,30
 805 4 805 4 635 -12 c 1,31,-1
 635 -237 l 1,32,-1
 482 -237 l 1,33,-1
 482 -12 l 1,34,35
 374 -1 374 -1 278 42 c 128,-1,36
 182 85 182 85 122.5 164 c 128,-1,37
 63 243 63 243 63 360 c 1,38,-1
 305 360 l 1,39,40
 305 255 305 255 376.5 209.5 c 128,-1,41
 448 164 448 164 565 164 c 0,42,43
 675 164 675 164 724.5 206 c 128,-1,44
 774 248 774 248 774 305 c 0,0,1
EndSplineSet
EndChar

StartChar: dotaccent
Encoding: 729 729 378
Width: 522
VWidth: 1798
GlyphClass: 2
Flags: W
LayerCount: 2
Fore
SplineSet
129 1122 m 256,0,1
 129 1174 129 1174 163.5 1208.5 c 128,-1,2
 198 1243 198 1243 259 1243 c 256,3,4
 320 1243 320 1243 355 1208.5 c 128,-1,5
 390 1174 390 1174 390 1122 c 256,6,7
 390 1070 390 1070 355 1036 c 128,-1,8
 320 1002 320 1002 259 1002 c 256,9,10
 198 1002 198 1002 163.5 1036 c 128,-1,11
 129 1070 129 1070 129 1122 c 256,0,1
EndSplineSet
EndChar

StartChar: dotbelow
Encoding: 803 803 379
Width: 0
VWidth: 1798
GlyphClass: 4
Flags: W
AnchorPoint: "Anchor-2" -597 -604 basemark 0
AnchorPoint: "Anchor-2" -597 -250 mark 0
AnchorPoint: "Anchor-1" -597 -250 mark 0
LayerCount: 2
Fore
SplineSet
-738 -490 m 0,0,1
 -738 -438 -738 -438 -701.5 -403 c 128,-1,2
 -665 -368 -665 -368 -601 -368 c 0,3,4
 -536 -368 -536 -368 -499.5 -403 c 128,-1,5
 -463 -438 -463 -438 -463 -490 c 0,6,7
 -463 -541 -463 -541 -499.5 -576 c 128,-1,8
 -536 -611 -536 -611 -601 -611 c 0,9,10
 -665 -611 -665 -611 -701.5 -576 c 128,-1,11
 -738 -541 -738 -541 -738 -490 c 0,0,1
EndSplineSet
EndChar

StartChar: dotlessi
Encoding: 305 305 380
Width: 535
VWidth: 1798
GlyphClass: 2
Flags: W
AnchorPoint: "Anchor-1" 249 -240 basechar 0
AnchorPoint: "Anchor-0" 252 1038 basechar 0
LayerCount: 2
Fore
SplineSet
385 832 m 1,0,-1
 385 -250 l 1,1,-1
 144 -250 l 1,2,-1
 144 832 l 1,3,-1
 385 832 l 1,0,-1
EndSplineSet
Substitution2: "'smcp' Lowercase to Small Capitals lookup 1 subtable" I.smcp
EndChar

StartChar: e
Encoding: 101 101 381
Width: 1097
VWidth: 1798
GlyphClass: 2
Flags: W
AnchorPoint: "Anchor-1" 568 -250 basechar 0
AnchorPoint: "Anchor-0" 565 1040 basechar 0
LayerCount: 2
Fore
SplineSet
601 -270 m 0,0,1
 441 -270 441 -270 324 -201 c 128,-1,2
 207 -132 207 -132 144 -13.5 c 128,-1,3
 81 105 81 105 81 254 c 2,4,-1
 81 294 l 2,5,6
 81 464 81 464 145 589.5 c 128,-1,7
 209 715 209 715 320.5 783.5 c 128,-1,8
 432 852 432 852 572 852 c 0,9,10
 727 852 727 852 829.5 784.5 c 128,-1,11
 932 717 932 717 983 597.5 c 128,-1,12
 1034 478 1034 478 1034 322 c 2,13,-1
 1034 219 l 1,14,-1
 324 219 l 1,15,16
 334 90 334 90 410 5.5 c 128,-1,17
 486 -79 486 -79 615 -79 c 0,18,19
 702 -79 702 -79 770 -44 c 128,-1,20
 838 -9 838 -9 888 55 c 1,21,-1
 1015 -68 l 1,22,23
 963 -145 963 -145 861 -207.5 c 128,-1,24
 759 -270 759 -270 601 -270 c 0,0,1
571 660 m 0,25,26
 469 660 469 660 407.5 588.5 c 128,-1,27
 346 517 346 517 329 392 c 1,28,-1
 796 392 l 1,29,-1
 796 411 l 2,30,31
 794 476 794 476 771 533 c 128,-1,32
 748 590 748 590 699.5 625 c 128,-1,33
 651 660 651 660 571 660 c 0,25,26
EndSplineSet
Substitution2: "'unic' Unicase lookup 2 subtable" E.unic
Substitution2: "'smcp' Lowercase to Small Capitals lookup 1 subtable" E.smcp
EndChar

StartChar: eight
Encoding: 56 56 389
Width: 1164
VWidth: 1798
GlyphClass: 2
Flags: W
LayerCount: 2
Fore
SplineSet
1062 147 m 0,0,1
 1062 12 1062 12 999 -81 c 128,-1,2
 936 -174 936 -174 827.5 -222 c 128,-1,3
 719 -270 719 -270 583 -270 c 256,4,5
 447 -270 447 -270 338 -222 c 128,-1,6
 229 -174 229 -174 166 -81 c 128,-1,7
 103 12 103 12 103 147 c 0,8,9
 103 268 103 268 167.5 360 c 128,-1,10
 232 452 232 452 341 501 c 1,11,12
 246 549 246 549 190.5 633 c 128,-1,13
 135 717 135 717 135 823 c 0,14,15
 135 953 135 953 193 1042.5 c 128,-1,16
 251 1132 251 1132 352 1179 c 128,-1,17
 453 1226 453 1226 582 1226 c 0,18,19
 712 1226 712 1226 813 1179 c 128,-1,20
 914 1132 914 1132 971.5 1042.5 c 128,-1,21
 1029 953 1029 953 1029 823 c 0,22,23
 1029 717 1029 717 973.5 633 c 128,-1,24
 918 549 918 549 823 501 c 1,25,26
 932 452 932 452 997 360 c 128,-1,27
 1062 268 1062 268 1062 147 c 0,0,1
788 815 m 0,28,29
 788 912 788 912 732.5 973.5 c 128,-1,30
 677 1035 677 1035 582 1035 c 0,31,32
 488 1035 488 1035 432.5 975.5 c 128,-1,33
 377 916 377 916 377 815 c 0,34,35
 377 715 377 715 432.5 654 c 128,-1,36
 488 593 488 593 583 593 c 256,37,38
 678 593 678 593 733 654 c 128,-1,39
 788 715 788 715 788 815 c 0,28,29
820 159 m 0,40,41
 820 269 820 269 754 335.5 c 128,-1,42
 688 402 688 402 581 402 c 0,43,44
 473 402 473 402 408.5 335.5 c 128,-1,45
 344 269 344 269 344 159 c 0,46,47
 344 47 344 47 409 -15.5 c 128,-1,48
 474 -78 474 -78 583 -78 c 0,49,50
 693 -78 693 -78 756.5 -15.5 c 128,-1,51
 820 47 820 47 820 159 c 0,40,41
EndSplineSet
Substitution2: "'ss01' Style Set 1 lookup 35 subtable" uni06F8
Substitution2: "'numr' Numerators lookup 21 subtable" eight.frac
Substitution2: "'dnom' Denominators lookup 20 subtable" eight.sup
Substitution2: "'frac' Diagonal Fractions lookup 19 subtable" eight.frac
Substitution2: "Single Substitution lookup 18 subtable" eight.sup
Substitution2: "'lnum' Lining Figures lookup 15 subtable" eight.pnum
Substitution2: "'onum' Oldstyle Figures lookup 14 subtable" eight.tnum
Substitution2: "'c2sc' Capitals to Small Capitals lookup 0 subtable" eight.smcp
Position2: "'cpsp' Capital Spacing lookup 0 subtable" dx=36 dy=0 dh=72 dv=0
EndChar

StartChar: eight.smcp
Encoding: 65731 -1 392
Width: 1053
GlyphClass: 2
Flags: W
LayerCount: 2
Fore
SplineSet
966 319 m 0,0,1
 966 209 966 209 908.5 134 c 128,-1,2
 851 59 851 59 751.5 21.5 c 128,-1,3
 652 -16 652 -16 527 -16 c 256,4,5
 402 -16 402 -16 302.5 21.5 c 128,-1,6
 203 59 203 59 145 134 c 128,-1,7
 87 209 87 209 87 319 c 0,8,9
 87 417 87 417 142 489 c 128,-1,10
 197 561 197 561 291 601 c 1,11,12
 210 639 210 639 163 704.5 c 128,-1,13
 116 770 116 770 116 855 c 0,14,15
 116 1013 116 1013 231.5 1097 c 128,-1,16
 347 1181 347 1181 525 1181 c 0,17,18
 704 1181 704 1181 820.5 1097 c 128,-1,19
 937 1013 937 1013 937 855 c 0,20,21
 937 770 937 770 890 704.5 c 128,-1,22
 843 639 843 639 762 600 c 1,23,24
 855 560 855 560 910.5 488 c 128,-1,25
 966 416 966 416 966 319 c 0,0,1
696 843 m 0,26,27
 696 910 696 910 650 950 c 128,-1,28
 604 990 604 990 525 990 c 0,29,30
 447 990 447 990 402 950.5 c 128,-1,31
 357 911 357 911 357 843 c 256,32,33
 357 775 357 775 402.5 733.5 c 128,-1,34
 448 692 448 692 527 692 c 256,35,36
 606 692 606 692 651 733.5 c 128,-1,37
 696 775 696 775 696 843 c 0,26,27
724 338 m 256,38,39
 724 414 724 414 669 457 c 128,-1,40
 614 500 614 500 525 500 c 0,41,42
 437 500 437 500 382.5 457 c 128,-1,43
 328 414 328 414 328 338 c 256,44,45
 328 262 328 262 382.5 218.5 c 128,-1,46
 437 175 437 175 527 175 c 0,47,48
 616 175 616 175 670 218.5 c 128,-1,49
 724 262 724 262 724 338 c 256,38,39
EndSplineSet
EndChar

StartChar: eight.sup
Encoding: 65732 -1 393
Width: 757
GlyphClass: 2
Flags: W
LayerCount: 2
Fore
SplineSet
682 217 m 0,0,1
 682 103 682 103 596 46 c 128,-1,2
 510 -11 510 -11 379 -11 c 0,3,4
 250 -11 250 -11 162.5 46 c 128,-1,5
 75 103 75 103 75 217 c 0,6,7
 75 283 75 283 111 331 c 128,-1,8
 147 379 147 379 209 407 c 1,9,10
 155 433 155 433 124.5 477 c 128,-1,11
 94 521 94 521 94 578 c 0,12,13
 94 687 94 687 174 743.5 c 128,-1,14
 254 800 254 800 378 800 c 0,15,16
 503 800 503 800 583 743.5 c 128,-1,17
 663 687 663 687 663 578 c 0,18,19
 663 521 663 521 632.5 477 c 128,-1,20
 602 433 602 433 548 406 c 1,21,22
 610 379 610 379 646 331 c 128,-1,23
 682 283 682 283 682 217 c 0,0,1
480 566 m 0,24,25
 480 607 480 607 453.5 631 c 128,-1,26
 427 655 427 655 378 655 c 0,27,28
 276 655 276 655 276 566 c 0,29,30
 276 526 276 526 303 501 c 128,-1,31
 330 476 330 476 379 476 c 256,32,33
 428 476 428 476 454 501 c 128,-1,34
 480 526 480 526 480 566 c 0,24,25
501 233 m 0,35,36
 501 280 501 280 466.5 305 c 128,-1,37
 432 330 432 330 378 330 c 256,38,39
 324 330 324 330 291 305 c 128,-1,40
 258 280 258 280 258 233 c 0,41,42
 258 187 258 187 291 161 c 128,-1,43
 324 135 324 135 379 135 c 0,44,45
 433 135 433 135 467 161 c 128,-1,46
 501 187 501 187 501 233 c 0,35,36
EndSplineSet
EndChar

StartChar: emdash
Encoding: 8212 8212 397
Width: 1600
GlyphClass: 2
Flags: W
LayerCount: 2
Fore
SplineSet
1469 426 m 1,0,-1
 131 426 l 1,1,-1
 131 611 l 1,2,-1
 1469 611 l 1,3,-1
 1469 426 l 1,0,-1
EndSplineSet
EndChar

StartChar: endash
Encoding: 8211 8211 398
Width: 1345
GlyphClass: 2
Flags: W
LayerCount: 2
Fore
SplineSet
1214 426 m 1,0,-1
 131 426 l 1,1,-1
 131 611 l 1,2,-1
 1214 611 l 1,3,-1
 1214 426 l 1,0,-1
EndSplineSet
EndChar

StartChar: eng
Encoding: 331 331 399
Width: 1158
VWidth: 1798
GlyphClass: 2
Flags: W
AnchorPoint: "Anchor-1" 563 -240 basechar 0
AnchorPoint: "Anchor-0" 573 1040 basechar 0
LayerCount: 2
Fore
SplineSet
1030 -312 m 2,0,1
 1030 -493 1030 -493 935.5 -590 c 128,-1,2
 841 -687 841 -687 675 -687 c 0,3,4
 640 -687 640 -687 609.5 -683.5 c 128,-1,5
 579 -680 579 -680 544 -670 c 1,6,-1
 558 -477 l 1,7,8
 578 -483 578 -483 607 -486 c 128,-1,9
 636 -489 636 -489 658 -489 c 0,10,11
 788 -489 788 -489 788 -312 c 2,12,-1
 788 419 l 2,13,14
 788 554 788 554 737 606 c 128,-1,15
 686 658 686 658 591 658 c 0,16,17
 512 658 512 658 456 628 c 128,-1,18
 400 598 400 598 366 547 c 1,19,-1
 366 -250 l 1,20,-1
 125 -250 l 1,21,-1
 125 832 l 1,22,-1
 347 832 l 1,23,-1
 360 679 l 1,24,25
 412 760 412 760 492 806 c 128,-1,26
 572 852 572 852 674 852 c 0,27,28
 835 852 835 852 932.5 752 c 128,-1,29
 1030 652 1030 652 1030 421 c 2,30,-1
 1030 -312 l 2,0,1
EndSplineSet
Substitution2: "'unic' Unicase lookup 2 subtable" Eng
Substitution2: "'smcp' Lowercase to Small Capitals lookup 1 subtable" Eng.smcp
EndChar

StartChar: eogonek
Encoding: 281 281 400
Width: 1097
VWidth: 1798
GlyphClass: 2
Flags: W
AnchorPoint: "Anchor-1" 568 -250 basechar 0
AnchorPoint: "Anchor-0" 565 1040 basechar 0
LayerCount: 2
Fore
SplineSet
859 -604 m 1,0,1
 834 -619 834 -619 795 -633.5 c 128,-1,2
 756 -648 756 -648 696 -648 c 0,3,4
 608 -648 608 -648 546.5 -597.5 c 128,-1,5
 485 -547 485 -547 485 -449 c 0,6,7
 485 -403 485 -403 503 -357 c 128,-1,8
 521 -311 521 -311 563 -269 c 1,9,10
 414 -260 414 -260 306 -190 c 128,-1,11
 198 -120 198 -120 139.5 -4.5 c 128,-1,12
 81 111 81 111 81 254 c 2,13,-1
 81 294 l 2,14,15
 81 464 81 464 145 589.5 c 128,-1,16
 209 715 209 715 320.5 783.5 c 128,-1,17
 432 852 432 852 572 852 c 0,18,19
 727 852 727 852 829.5 784.5 c 128,-1,20
 932 717 932 717 983 597.5 c 128,-1,21
 1034 478 1034 478 1034 322 c 2,22,-1
 1034 219 l 1,23,-1
 324 219 l 1,24,25
 334 90 334 90 410 5.5 c 128,-1,26
 486 -79 486 -79 615 -79 c 0,27,28
 702 -79 702 -79 770 -44 c 128,-1,29
 838 -9 838 -9 888 55 c 1,30,-1
 1015 -68 l 1,31,32
 986 -111 986 -111 941.5 -151.5 c 128,-1,33
 897 -192 897 -192 836 -221 c 1,34,-1
 837 -221 l 1,35,36
 767 -266 767 -266 721.5 -313.5 c 128,-1,37
 676 -361 676 -361 676 -420 c 0,38,39
 676 -451 676 -451 691.5 -470 c 128,-1,40
 707 -489 707 -489 747 -489 c 0,41,42
 777 -489 777 -489 799.5 -481 c 128,-1,43
 822 -473 822 -473 836 -466 c 1,44,-1
 859 -604 l 1,0,1
571 660 m 0,45,46
 469 660 469 660 407.5 588.5 c 128,-1,47
 346 517 346 517 329 392 c 1,48,-1
 796 392 l 1,49,-1
 796 411 l 2,50,51
 794 476 794 476 771 533 c 128,-1,52
 748 590 748 590 699.5 625 c 128,-1,53
 651 660 651 660 571 660 c 0,45,46
EndSplineSet
Substitution2: "'locl' Localized Forms in Latin lookup 8 subtable" eogonek.NAV
Substitution2: "'unic' Unicase lookup 2 subtable" Eogonek.unic
Substitution2: "'smcp' Lowercase to Small Capitals lookup 1 subtable" Eogonek.smcp
EndChar

StartChar: equal
Encoding: 61 61 402
Width: 1139
VWidth: 1798
GlyphClass: 2
Flags: W
LayerCount: 2
Fore
SplineSet
1007 371 m 1,0,-1
 144 371 l 1,1,-1
 144 555 l 1,2,-1
 1007 555 l 1,3,-1
 1007 371 l 1,0,-1
1007 -23 m 1,4,-1
 144 -23 l 1,5,-1
 144 160 l 1,6,-1
 1007 160 l 1,7,-1
 1007 -23 l 1,4,-1
EndSplineSet
EndChar

StartChar: estimated
Encoding: 8494 8494 403
Width: 1300
GlyphClass: 2
Flags: W
LayerCount: 2
Fore
SplineSet
1042 198 m 1,0,-1
 1044 94 l 1,1,2
 960 42 960 42 866 11 c 128,-1,3
 772 -20 772 -20 674 -20 c 0,4,5
 565 -20 565 -20 470 24 c 128,-1,6
 375 68 375 68 303 145 c 128,-1,7
 231 222 231 222 190.5 324 c 128,-1,8
 150 426 150 426 150 541 c 0,9,10
 150 657 150 657 194.5 758.5 c 128,-1,11
 239 860 239 860 314 937 c 128,-1,12
 389 1014 389 1014 482.5 1058 c 128,-1,13
 576 1102 576 1102 674 1102 c 0,14,15
 811 1102 811 1102 923.5 1031.5 c 128,-1,16
 1036 961 1036 961 1102.5 839 c 128,-1,17
 1169 717 1169 717 1169 561 c 2,18,-1
 1169 514 l 1,19,-1
 401 514 l 1,20,-1
 401 186 l 1,21,22
 456 135 456 135 526 105.5 c 128,-1,23
 596 76 596 76 674 76 c 0,24,25
 767 76 767 76 860.5 105.5 c 128,-1,26
 954 135 954 135 1042 198 c 1,0,-1
674 1008 m 0,27,28
 599 1008 599 1008 528.5 975 c 128,-1,29
 458 942 458 942 401 886 c 1,30,-1
 401 609 l 1,31,-1
 941 609 l 1,32,-1
 941 895 l 1,33,34
 889 947 889 947 820 977.5 c 128,-1,35
 751 1008 751 1008 674 1008 c 0,27,28
EndSplineSet
EndChar

StartChar: eth
Encoding: 240 240 404
Width: 1188
VWidth: 1798
GlyphClass: 2
Flags: W
LayerCount: 2
Fore
SplineSet
245 1139 m 1,0,-1
 320 1330 l 1,1,2
 558 1279 558 1279 735 1145 c 1,3,-1
 914 1262 l 1,4,-1
 988 1156 l 1,5,-1
 835 1056 l 1,6,7
 956 932 956 932 1023 764 c 128,-1,8
 1090 596 1090 596 1090 391 c 2,9,-1
 1090 306 l 2,10,11
 1090 135 1090 135 1025.5 5.5 c 128,-1,12
 961 -124 961 -124 849 -197 c 128,-1,13
 737 -270 737 -270 594 -270 c 0,14,15
 449 -270 449 -270 338.5 -204.5 c 128,-1,16
 228 -139 228 -139 166 -28.5 c 128,-1,17
 104 82 104 82 104 218 c 0,18,19
 104 370 104 370 159.5 483.5 c 128,-1,20
 215 597 215 597 316 659.5 c 128,-1,21
 417 722 417 722 553 722 c 0,22,23
 630 722 630 722 697 697 c 128,-1,24
 764 672 764 672 817 629 c 1,25,26
 791 721 791 721 746 795 c 128,-1,27
 701 869 701 869 641 927 c 1,28,-1
 437 793 l 1,29,-1
 362 900 l 1,30,-1
 535 1013 l 1,31,32
 469 1057 469 1057 395.5 1088 c 128,-1,33
 322 1119 322 1119 245 1139 c 1,0,-1
345 218 m 0,34,35
 345 142 345 142 374.5 74 c 128,-1,36
 404 6 404 6 460.5 -36 c 128,-1,37
 517 -78 517 -78 598 -78 c 0,38,39
 717 -78 717 -78 782.5 27.5 c 128,-1,40
 848 133 848 133 848 292 c 2,41,-1
 848 393 l 2,42,43
 848 412 848 412 847 431 c 1,44,45
 819 473 819 473 759 505 c 128,-1,46
 699 537 699 537 608 537 c 0,47,48
 480 537 480 537 412.5 451 c 128,-1,49
 345 365 345 365 345 218 c 0,34,35
EndSplineSet
Substitution2: "'unic' Unicase lookup 2 subtable" Eth
Substitution2: "'smcp' Lowercase to Small Capitals lookup 1 subtable" Eth.smcp
EndChar

StartChar: exclam
Encoding: 33 33 405
Width: 578
VWidth: 1798
GlyphClass: 2
Flags: W
LayerCount: 2
Fore
SplineSet
171 1142 m 1,0,-1
 412 1142 l 1,1,-1
 390 210 l 1,2,-1
 194 210 l 1,3,-1
 171 1142 l 1,0,-1
134 -97 m 0,4,5
 134 -33 134 -33 179.5 11 c 128,-1,6
 225 55 225 55 289 55 c 0,7,8
 354 55 354 55 399 11 c 128,-1,9
 444 -33 444 -33 444 -97 c 256,10,11
 444 -161 444 -161 399 -205 c 128,-1,12
 354 -249 354 -249 289 -249 c 256,13,14
 224 -249 224 -249 179 -205.5 c 128,-1,15
 134 -162 134 -162 134 -97 c 0,4,5
EndSplineSet
EndChar

StartChar: exclamdown
Encoding: 161 161 407
Width: 543
VWidth: 1798
GlyphClass: 2
Flags: W
LayerCount: 2
Fore
SplineSet
409 723 m 0,0,1
 409 668 409 668 372.5 631 c 128,-1,2
 336 594 336 594 271 594 c 0,3,4
 207 594 207 594 170 631 c 128,-1,5
 133 668 133 668 133 723 c 0,6,7
 133 777 133 777 170 814 c 128,-1,8
 207 851 207 851 271 851 c 0,9,10
 336 851 336 851 372.5 814 c 128,-1,11
 409 777 409 777 409 723 c 0,0,1
146 -615 m 1,12,-1
 171 412 l 1,13,-1
 377 412 l 1,14,-1
 402 -615 l 1,15,-1
 146 -615 l 1,12,-1
EndSplineSet
EndChar

StartChar: f
Encoding: 102 102 408
Width: 723
VWidth: 1798
GlyphClass: 2
Flags: W
AnchorPoint: "Anchor-1" 330 -240 basechar 0
AnchorPoint: "Anchor-0" 502 1504 basechar 0
LayerCount: 2
Fore
SplineSet
450 -250 m 1,0,-1
 209 -250 l 1,1,-1
 209 656 l 1,2,-1
 43 656 l 1,3,-1
 43 832 l 1,4,-1
 209 832 l 1,5,-1
 209 936 l 2,6,7
 209 1116 209 1116 310 1211.5 c 128,-1,8
 411 1307 411 1307 586 1307 c 0,9,10
 622 1307 622 1307 657 1302 c 128,-1,11
 692 1297 692 1297 725 1289 c 1,12,-1
 719 1103 l 1,13,14
 680 1112 680 1112 625 1112 c 0,15,16
 542 1112 542 1112 496 1066.5 c 128,-1,17
 450 1021 450 1021 450 936 c 2,18,-1
 450 832 l 1,19,-1
 673 832 l 1,20,-1
 673 656 l 1,21,-1
 450 656 l 1,22,-1
 450 -250 l 1,0,-1
EndSplineSet
Substitution2: "'unic' Unicase lookup 2 subtable" F
Substitution2: "'smcp' Lowercase to Small Capitals lookup 1 subtable" F.smcp
EndChar

StartChar: f_f_i
Encoding: 64259 64259 410
Width: 1832
GlyphClass: 3
Flags: W
LayerCount: 2
Fore
SplineSet
450 0 m 1,0,-1
 209 0 l 1,1,-1
 209 906 l 1,2,-1
 43 906 l 1,3,-1
 43 1082 l 1,4,-1
 209 1082 l 1,5,-1
 209 1186 l 2,6,7
 209 1366 209 1366 310 1461.5 c 128,-1,8
 411 1557 411 1557 586 1557 c 0,9,10
 622 1557 622 1557 657 1552 c 128,-1,11
 692 1547 692 1547 725 1539 c 1,12,-1
 719 1353 l 1,13,14
 680 1362 680 1362 625 1362 c 0,15,16
 542 1362 542 1362 496 1316.5 c 128,-1,17
 450 1271 450 1271 450 1186 c 2,18,-1
 450 1082 l 1,19,-1
 829 1082 l 1,20,-1
 829 1152 l 2,21,22
 829 1349 829 1349 945 1453 c 128,-1,23
 1061 1557 1061 1557 1266 1557 c 0,24,25
 1346 1557 1346 1557 1421 1540 c 128,-1,26
 1496 1523 1496 1523 1575 1497 c 1,27,-1
 1538 1301 l 1,28,29
 1488 1318 1488 1318 1425.5 1333.5 c 128,-1,30
 1363 1349 1363 1349 1283 1349 c 0,31,32
 1070 1349 1070 1349 1070 1152 c 2,33,-1
 1070 1082 l 1,34,-1
 1288 1082 l 1,35,-1
 1288 906 l 1,36,-1
 1070 906 l 1,37,-1
 1070 0 l 1,38,-1
 829 0 l 1,39,-1
 829 906 l 1,40,-1
 450 906 l 1,41,-1
 450 0 l 1,0,-1
1690 1082 m 1,42,-1
 1690 0 l 1,43,-1
 1448 0 l 1,44,-1
 1448 1082 l 1,45,-1
 1690 1082 l 1,42,-1
EndSplineSet
Ligature2: "'liga' Standard Ligatures in Latin lookup 10 subtable" f f i
EndChar

StartChar: f_f_l
Encoding: 64260 64260 411
Width: 1832
GlyphClass: 3
Flags: W
LayerCount: 2
Fore
SplineSet
450 0 m 1,0,-1
 209 0 l 1,1,-1
 209 906 l 1,2,-1
 43 906 l 1,3,-1
 43 1082 l 1,4,-1
 209 1082 l 1,5,-1
 209 1186 l 2,6,7
 209 1366 209 1366 310 1461.5 c 128,-1,8
 411 1557 411 1557 586 1557 c 0,9,10
 622 1557 622 1557 657 1552 c 128,-1,11
 692 1547 692 1547 725 1539 c 1,12,-1
 719 1353 l 1,13,14
 680 1362 680 1362 625 1362 c 0,15,16
 542 1362 542 1362 496 1316.5 c 128,-1,17
 450 1271 450 1271 450 1186 c 2,18,-1
 450 1082 l 1,19,-1
 829 1082 l 1,20,-1
 829 1179 l 2,21,22
 829 1362 829 1362 936.5 1459.5 c 128,-1,23
 1044 1557 1044 1557 1240 1557 c 0,24,25
 1292 1557 1292 1557 1370.5 1550 c 128,-1,26
 1449 1543 1449 1543 1534 1532.5 c 128,-1,27
 1619 1522 1619 1522 1690 1511 c 1,28,-1
 1690 0 l 1,29,-1
 1448 0 l 1,30,-1
 1448 1348 l 1,31,32
 1398 1355 1398 1355 1353 1358.5 c 128,-1,33
 1308 1362 1308 1362 1268 1362 c 0,34,35
 1172 1362 1172 1362 1121 1315 c 128,-1,36
 1070 1268 1070 1268 1070 1179 c 2,37,-1
 1070 1082 l 1,38,-1
 1293 1082 l 1,39,-1
 1293 906 l 1,40,-1
 1070 906 l 1,41,-1
 1070 0 l 1,42,-1
 829 0 l 1,43,-1
 829 906 l 1,44,-1
 450 906 l 1,45,-1
 450 0 l 1,0,-1
EndSplineSet
Ligature2: "'liga' Standard Ligatures in Latin lookup 11 subtable" f f l
EndChar

StartChar: f_l
Encoding: 64258 64258 412
Width: 1213
GlyphClass: 3
Flags: W
LayerCount: 2
Fore
SplineSet
450 0 m 1,0,-1
 209 0 l 1,1,-1
 209 906 l 1,2,-1
 43 906 l 1,3,-1
 43 1082 l 1,4,-1
 209 1082 l 1,5,-1
 209 1179 l 2,6,7
 209 1362 209 1362 316.5 1459.5 c 128,-1,8
 424 1557 424 1557 620 1557 c 0,9,10
 673 1557 673 1557 751 1550 c 128,-1,11
 829 1543 829 1543 914 1532.5 c 128,-1,12
 999 1522 999 1522 1070 1511 c 1,13,-1
 1070 0 l 1,14,-1
 829 0 l 1,15,-1
 829 1348 l 1,16,17
 779 1355 779 1355 733.5 1358.5 c 128,-1,18
 688 1362 688 1362 648 1362 c 0,19,20
 552 1362 552 1362 501 1315 c 128,-1,21
 450 1268 450 1268 450 1179 c 2,22,-1
 450 1082 l 1,23,-1
 673 1082 l 1,24,-1
 673 906 l 1,25,-1
 450 906 l 1,26,-1
 450 0 l 1,0,-1
EndSplineSet
Ligature2: "'liga' Standard Ligatures in Latin lookup 11 subtable" f l
EndChar

StartChar: fi
Encoding: 64257 64257 413
Width: 1197
GlyphClass: 3
Flags: W
LayerCount: 2
Fore
SplineSet
434 0 m 1,0,-1
 192 0 l 1,1,-1
 192 906 l 1,2,-1
 26 906 l 1,3,-1
 26 1082 l 1,4,-1
 192 1082 l 1,5,-1
 192 1152 l 2,6,7
 192 1349 192 1349 308.5 1453 c 128,-1,8
 425 1557 425 1557 630 1557 c 0,9,10
 710 1557 710 1557 785 1540 c 128,-1,11
 860 1523 860 1523 939 1497 c 1,12,-1
 902 1301 l 1,13,14
 851 1318 851 1318 789 1333.5 c 128,-1,15
 727 1349 727 1349 646 1349 c 0,16,17
 434 1349 434 1349 434 1152 c 2,18,-1
 434 1082 l 1,19,-1
 651 1082 l 1,20,-1
 651 906 l 1,21,-1
 434 906 l 1,22,-1
 434 0 l 1,0,-1
1053 1082 m 1,23,-1
 1053 0 l 1,24,-1
 812 0 l 1,25,-1
 812 1082 l 1,26,-1
 1053 1082 l 1,23,-1
EndSplineSet
Ligature2: "'liga' Standard Ligatures in Latin lookup 10 subtable" f i
EndChar

StartChar: figuredash
Encoding: 8210 8210 414
Width: 1025
GlyphClass: 2
Flags: W
LayerCount: 2
Fore
SplineSet
894 426 m 1,0,-1
 131 426 l 1,1,-1
 131 611 l 1,2,-1
 894 611 l 1,3,-1
 894 426 l 1,0,-1
EndSplineSet
EndChar

StartChar: five
Encoding: 53 53 415
Width: 1164
VWidth: 1798
GlyphClass: 2
Flags: W
LayerCount: 2
Fore
SplineSet
363 427 m 1,0,-1
 171 474 l 1,1,-1
 250 1206 l 1,2,-1
 1035 1206 l 1,3,-1
 1035 1002 l 1,4,-1
 450 1002 l 1,5,-1
 410 645 l 1,6,7
 445 665 445 665 505 684.5 c 128,-1,8
 565 704 565 704 641 704 c 0,9,10
 847 704 847 704 964 573.5 c 128,-1,11
 1081 443 1081 443 1081 216 c 0,12,13
 1081 82 1081 82 1029 -28.5 c 128,-1,14
 977 -139 977 -139 871 -204.5 c 128,-1,15
 765 -270 765 -270 603 -270 c 0,16,17
 481 -270 481 -270 375.5 -222.5 c 128,-1,18
 270 -175 270 -175 202.5 -83 c 128,-1,19
 135 9 135 9 127 144 c 1,20,-1
 363 144 l 1,21,22
 376 37 376 37 438.5 -20.5 c 128,-1,23
 501 -78 501 -78 602 -78 c 0,24,25
 722 -78 722 -78 780.5 6 c 128,-1,26
 839 90 839 90 839 223 c 0,27,28
 839 349 839 349 773.5 431.5 c 128,-1,29
 708 514 708 514 579 514 c 0,30,31
 493 514 493 514 447 488.5 c 128,-1,32
 401 463 401 463 363 427 c 1,0,-1
EndSplineSet
Substitution2: "'ss01' Style Set 1 lookup 35 subtable" uni06F5
Substitution2: "'numr' Numerators lookup 21 subtable" five.frac
Substitution2: "'dnom' Denominators lookup 20 subtable" five.sup
Substitution2: "'frac' Diagonal Fractions lookup 19 subtable" five.frac
Substitution2: "Single Substitution lookup 18 subtable" five.sup
Substitution2: "'onum' Oldstyle Figures lookup 14 subtable" five.tnum
Substitution2: "'c2sc' Capitals to Small Capitals lookup 0 subtable" five.smcp
Position2: "'cpsp' Capital Spacing lookup 0 subtable" dx=36 dy=0 dh=72 dv=0
EndChar

StartChar: five.onum
Encoding: 65737 -1 417
Width: 1131
GlyphClass: 1
Flags: W
LayerCount: 2
Fore
SplineSet
338 361 m 1,0,-1
 138 378 l 1,1,-1
 224 1164 l 1,2,-1
 1033 1164 l 1,3,-1
 1033 960 l 1,4,-1
 419 960 l 1,5,-1
 373 608 l 1,6,7
 414 632 414 632 473.5 647.5 c 128,-1,8
 533 663 533 663 615 664 c 0,9,10
 824 666 824 666 940.5 534 c 128,-1,11
 1057 402 1057 402 1057 175 c 0,12,13
 1057 33 1057 33 996.5 -87 c 128,-1,14
 936 -207 936 -207 815.5 -279.5 c 128,-1,15
 695 -352 695 -352 514 -352 c 0,16,17
 405 -352 405 -352 300 -323 c 128,-1,18
 195 -294 195 -294 103 -235 c 1,19,-1
 177 -61 l 1,20,21
 235 -106 235 -106 317 -133 c 128,-1,22
 399 -160 399 -160 497 -160 c 0,23,24
 603 -160 603 -160 674 -115 c 128,-1,25
 745 -70 745 -70 780.5 5.5 c 128,-1,26
 816 81 816 81 816 173 c 0,27,28
 816 301 816 301 749 387 c 128,-1,29
 682 473 682 473 553 473 c 0,30,31
 460 473 460 473 412.5 442.5 c 128,-1,32
 365 412 365 412 338 361 c 1,0,-1
EndSplineSet
EndChar

StartChar: five.smcp
Encoding: 65738 -1 418
Width: 1053
GlyphClass: 2
Flags: W
LayerCount: 2
Fore
SplineSet
325 526 m 1,0,-1
 133 572 l 1,1,-1
 207 1165 l 1,2,-1
 917 1165 l 1,3,-1
 917 970 l 1,4,-1
 407 970 l 1,5,-1
 372 720 l 1,6,7
 399 732 399 732 454.5 748 c 128,-1,8
 510 764 510 764 578 764 c 0,9,10
 766 764 766 764 871 662.5 c 128,-1,11
 976 561 976 561 976 381 c 0,12,13
 976 275 976 275 929 184.5 c 128,-1,14
 882 94 882 94 785.5 39 c 128,-1,15
 689 -16 689 -16 540 -16 c 0,16,17
 429 -16 429 -16 331 23 c 128,-1,18
 233 62 233 62 170.5 137.5 c 128,-1,19
 108 213 108 213 102 320 c 1,20,-1
 340 320 l 1,21,22
 348 244 348 244 401.5 209.5 c 128,-1,23
 455 175 455 175 540 175 c 0,24,25
 644 175 644 175 689.5 235 c 128,-1,26
 735 295 735 295 735 385 c 0,27,28
 735 476 735 476 679 533 c 128,-1,29
 623 590 623 590 517 590 c 0,30,31
 438 590 438 590 397.5 569.5 c 128,-1,32
 357 549 357 549 325 526 c 1,0,-1
EndSplineSet
EndChar

StartChar: five.sup
Encoding: 65739 -1 419
Width: 757
GlyphClass: 2
Flags: W
LayerCount: 2
Fore
SplineSet
244 349 m 1,0,-1
 99 385 l 1,1,-1
 151 789 l 1,2,-1
 643 789 l 1,3,-1
 643 644 l 1,4,-1
 300 644 l 1,5,-1
 278 490 l 1,6,7
 295 497 295 497 332.5 507.5 c 128,-1,8
 370 518 370 518 414 518 c 0,9,10
 543 518 543 518 614 451 c 128,-1,11
 685 384 685 384 685 262 c 0,12,13
 685 191 685 191 652.5 128.5 c 128,-1,14
 620 66 620 66 553 27.5 c 128,-1,15
 486 -11 486 -11 383 -11 c 0,16,17
 307 -11 307 -11 238 16.5 c 128,-1,18
 169 44 169 44 125.5 96 c 128,-1,19
 82 148 82 148 80 220 c 1,20,-1
 262 220 l 1,21,22
 265 174 265 174 298 154.5 c 128,-1,23
 331 135 331 135 383 135 c 0,24,25
 451 135 451 135 477 172.5 c 128,-1,26
 503 210 503 210 503 263 c 0,27,28
 503 320 503 320 468.5 355 c 128,-1,29
 434 390 434 390 368 390 c 0,30,31
 316 390 316 390 288.5 376 c 128,-1,32
 261 362 261 362 244 349 c 1,0,-1
EndSplineSet
EndChar

StartChar: florin
Encoding: 402 402 422
Width: 720
VWidth: 1798
GlyphClass: 2
Flags: W
LayerCount: 2
Fore
SplineSet
649 832 m 1,0,-1
 649 656 l 1,1,-1
 442 656 l 1,2,-1
 442 -319 l 2,3,4
 442 -497 442 -497 350 -592 c 128,-1,5
 258 -687 258 -687 96 -687 c 0,6,7
 61 -687 61 -687 30.5 -683.5 c 128,-1,8
 0 -680 0 -680 -34 -670 c 1,9,-1
 -19 -483 l 1,10,11
 -4 -488 -4 -488 27.5 -491.5 c 128,-1,12
 59 -495 59 -495 75 -495 c 0,13,14
 140 -495 140 -495 170.5 -449.5 c 128,-1,15
 201 -404 201 -404 201 -319 c 2,16,-1
 201 656 l 1,17,-1
 35 656 l 1,18,-1
 35 832 l 1,19,-1
 201 832 l 1,20,-1
 201 936 l 2,21,22
 201 1116 201 1116 299 1211.5 c 128,-1,23
 397 1307 397 1307 572 1307 c 0,24,25
 610 1307 610 1307 648 1301 c 128,-1,26
 686 1295 686 1295 724 1286 c 1,27,-1
 701 1102 l 1,28,29
 681 1107 681 1107 657 1109.5 c 128,-1,30
 633 1112 633 1112 601 1112 c 0,31,32
 442 1112 442 1112 442 936 c 2,33,-1
 442 832 l 1,34,-1
 649 832 l 1,0,-1
EndSplineSet
EndChar

StartChar: four
Encoding: 52 52 423
Width: 1164
VWidth: 1798
GlyphClass: 2
Flags: W
LayerCount: 2
Fore
SplineSet
1113 269 m 1,0,-1
 1113 77 l 1,1,-1
 931 77 l 1,2,-1
 931 -250 l 1,3,-1
 690 -250 l 1,4,-1
 690 77 l 1,5,-1
 63 77 l 1,6,-1
 55 222 l 1,7,-1
 683 1206 l 1,8,-1
 931 1206 l 1,9,-1
 931 269 l 1,10,-1
 1113 269 l 1,0,-1
306 269 m 1,11,-1
 690 269 l 1,12,-1
 690 887 l 1,13,-1
 667 848 l 1,14,-1
 306 269 l 1,11,-1
EndSplineSet
Substitution2: "'ss01' Style Set 1 lookup 35 subtable" uni06F4
Substitution2: "'numr' Numerators lookup 21 subtable" four.frac
Substitution2: "'dnom' Denominators lookup 20 subtable" four.sup
Substitution2: "'frac' Diagonal Fractions lookup 19 subtable" four.frac
Substitution2: "Single Substitution lookup 18 subtable" four.sup
Substitution2: "'onum' Oldstyle Figures lookup 14 subtable" four.tnum
Substitution2: "'c2sc' Capitals to Small Capitals lookup 0 subtable" four.smcp
Position2: "'cpsp' Capital Spacing lookup 0 subtable" dx=36 dy=0 dh=72 dv=0
EndChar

StartChar: four.onum
Encoding: 65742 -1 425
Width: 1211
GlyphClass: 1
Flags: W
LayerCount: 2
Fore
SplineSet
1160 191 m 1,0,-1
 1160 -1 l 1,1,-1
 981 -1 l 1,2,-1
 981 -316 l 1,3,-1
 740 -316 l 1,4,-1
 740 -1 l 1,5,-1
 59 -1 l 1,6,-1
 52 145 l 1,7,-1
 732 1165 l 1,8,-1
 981 1165 l 1,9,-1
 981 191 l 1,10,-1
 1160 191 l 1,0,-1
308 191 m 1,11,-1
 740 191 l 1,12,-1
 740 845 l 1,13,-1
 714 799 l 1,14,-1
 308 191 l 1,11,-1
EndSplineSet
EndChar

StartChar: four.smcp
Encoding: 65743 -1 426
Width: 1053
GlyphClass: 2
Flags: W
LayerCount: 2
Fore
SplineSet
1005 443 m 1,0,-1
 1005 251 l 1,1,-1
 850 251 l 1,2,-1
 850 0 l 1,3,-1
 609 0 l 1,4,-1
 609 251 l 1,5,-1
 61 251 l 1,6,-1
 51 402 l 1,7,-1
 605 1165 l 1,8,-1
 850 1165 l 1,9,-1
 850 443 l 1,10,-1
 1005 443 l 1,0,-1
293 443 m 1,11,-1
 609 443 l 1,12,-1
 609 863 l 1,13,-1
 586 826 l 1,14,-1
 293 443 l 1,11,-1
EndSplineSet
EndChar

StartChar: four.sup
Encoding: 65744 -1 427
Width: 757
GlyphClass: 2
Flags: W
LayerCount: 2
Fore
SplineSet
703 313 m 1,0,-1
 703 165 l 1,1,-1
 605 165 l 1,2,-1
 605 0 l 1,3,-1
 423 0 l 1,4,-1
 423 165 l 1,5,-1
 64 165 l 1,6,-1
 54 283 l 1,7,-1
 421 789 l 1,8,-1
 605 789 l 1,9,-1
 605 313 l 1,10,-1
 703 313 l 1,0,-1
231 313 m 1,11,-1
 423 313 l 1,12,-1
 423 564 l 1,13,-1
 407 539 l 1,14,-1
 231 313 l 1,11,-1
EndSplineSet
EndChar

StartChar: fraction
Encoding: 8260 8260 429
Width: 921
GlyphClass: 2
Flags: W
LayerCount: 2
Fore
SplineSet
878 1248 m 1,0,-1
 167 110 l 1,1,-1
 43 181 l 1,2,-1
 754 1319 l 1,3,-1
 878 1248 l 1,0,-1
EndSplineSet
EndChar

StartChar: g
Encoding: 103 103 431
Width: 1161
VWidth: 1798
GlyphClass: 2
Flags: W
AnchorPoint: "Anchor-1" 554 -697 basechar 0
AnchorPoint: "Anchor-0" 556 1040 basechar 0
LayerCount: 2
Fore
SplineSet
82 279 m 2,0,-1
 82 300 l 2,1,2
 82 465 82 465 134.5 589 c 128,-1,3
 187 713 187 713 284 782.5 c 128,-1,4
 381 852 381 852 515 852 c 0,5,6
 614 852 614 852 685.5 818 c 128,-1,7
 757 784 757 784 807 722 c 1,8,-1
 817 832 l 1,9,-1
 1036 832 l 1,10,-1
 1036 -220 l 2,11,12
 1036 -366 1036 -366 974 -468 c 128,-1,13
 912 -570 912 -570 801 -623.5 c 128,-1,14
 690 -677 690 -677 544 -677 c 0,15,16
 482 -677 482 -677 406.5 -659 c 128,-1,17
 331 -641 331 -641 260.5 -601.5 c 128,-1,18
 190 -562 190 -562 143 -498 c 1,19,-1
 256 -356 l 1,20,21
 314 -425 314 -425 384 -457 c 128,-1,22
 454 -489 454 -489 531 -489 c 0,23,24
 654 -489 654 -489 724.5 -421 c 128,-1,25
 795 -353 795 -353 795 -225 c 2,26,-1
 795 -148 l 1,27,28
 744 -206 744 -206 674.5 -238 c 128,-1,29
 605 -270 605 -270 513 -270 c 0,30,31
 381 -270 381 -270 284 -198.5 c 128,-1,32
 187 -127 187 -127 134.5 -3 c 128,-1,33
 82 121 82 121 82 279 c 2,0,-1
323 300 m 2,34,-1
 323 279 l 2,35,36
 323 181 323 181 349.5 100.5 c 128,-1,37
 376 20 376 20 431 -27.5 c 128,-1,38
 486 -75 486 -75 573 -75 c 0,39,40
 657 -75 657 -75 710.5 -39.5 c 128,-1,41
 764 -4 764 -4 795 55 c 1,42,-1
 795 531 l 1,43,44
 764 589 764 589 710.5 623.5 c 128,-1,45
 657 658 657 658 575 658 c 0,46,47
 488 658 488 658 432.5 609.5 c 128,-1,48
 377 561 377 561 350 480 c 128,-1,49
 323 399 323 399 323 300 c 2,34,-1
EndSplineSet
Substitution2: "'salt' Stylistic Alternatives lookup 13 subtable" g.alt
Substitution2: "'unic' Unicase lookup 2 subtable" G
Substitution2: "'smcp' Lowercase to Small Capitals lookup 1 subtable" G.smcp
EndChar

StartChar: g.alt
Encoding: 65746 -1 432
Width: 1082
GlyphClass: 2
Flags: W
LayerCount: 2
Fore
SplineSet
70 718 m 2,0,-1
 70 740 l 2,1,2
 70 846 70 846 126.5 927.5 c 128,-1,3
 183 1009 183 1009 285 1055.5 c 128,-1,4
 387 1102 387 1102 521 1102 c 0,5,6
 607 1102 607 1102 683 1082 c 1,7,-1
 1046 1082 l 1,8,-1
 1048 933 l 1,9,-1
 912 933 l 1,10,11
 972 849 972 849 972 740 c 2,12,-1
 972 718 l 2,13,14
 972 618 972 618 916 535.5 c 128,-1,15
 860 453 860 453 759 404 c 128,-1,16
 658 355 658 355 523 355 c 0,17,18
 445 355 445 355 376 372 c 1,19,20
 360 358 360 358 348.5 338 c 128,-1,21
 337 318 337 318 337 290 c 0,22,23
 337 244 337 244 374 227.5 c 128,-1,24
 411 211 411 211 464 211 c 2,25,-1
 643 211 l 2,26,27
 831 211 831 211 935.5 136.5 c 128,-1,28
 1040 62 1040 62 1040 -87 c 0,29,30
 1040 -166 1040 -166 976 -247.5 c 128,-1,31
 912 -329 912 -329 790 -383.5 c 128,-1,32
 668 -438 668 -438 494 -438 c 0,33,34
 338 -438 338 -438 230.5 -399.5 c 128,-1,35
 123 -361 123 -361 67.5 -298 c 128,-1,36
 12 -235 12 -235 12 -161 c 0,37,38
 12 -67 12 -67 68.5 -3.5 c 128,-1,39
 125 60 125 60 200 95 c 1,40,41
 149 143 149 143 149 218 c 0,42,43
 149 289 149 289 184.5 336.5 c 128,-1,44
 220 384 220 384 265 414 c 1,45,46
 173 463 173 463 121.5 543 c 128,-1,47
 70 623 70 623 70 718 c 2,0,-1
310 740 m 2,48,-1
 310 718 l 2,49,50
 310 649 310 649 367.5 594 c 128,-1,51
 425 539 425 539 523 539 c 0,52,53
 620 539 620 539 676 594 c 128,-1,54
 732 649 732 649 732 718 c 2,55,-1
 732 740 l 2,56,57
 732 813 732 813 675 865.5 c 128,-1,58
 618 918 618 918 521 918 c 0,59,60
 425 918 425 918 367.5 865.5 c 128,-1,61
 310 813 310 813 310 740 c 2,48,-1
244 -109 m 0,62,63
 244 -168 244 -168 304.5 -211.5 c 128,-1,64
 365 -255 365 -255 494 -255 c 0,65,66
 648 -255 648 -255 724 -201.5 c 128,-1,67
 800 -148 800 -148 800 -94 c 256,68,69
 800 -40 800 -40 761.5 -6 c 128,-1,70
 723 28 723 28 619 28 c 2,71,-1
 419 28 l 2,72,73
 375 28 375 28 335 35 c 1,74,75
 297 17 297 17 270.5 -21.5 c 128,-1,76
 244 -60 244 -60 244 -109 c 0,62,63
EndSplineSet
EndChar

StartChar: germandbls
Encoding: 223 223 437
Width: 1259
VWidth: 1798
GlyphClass: 2
Flags: W
LayerCount: 2
Fore
SplineSet
378 855 m 2,0,-1
 378 -250 l 1,1,-1
 138 -250 l 1,2,-1
 138 857 l 2,3,4
 138 1080 138 1080 257 1193.5 c 128,-1,5
 376 1307 376 1307 575 1307 c 0,6,7
 688 1307 688 1307 778.5 1268 c 128,-1,8
 869 1229 869 1229 922.5 1151 c 128,-1,9
 976 1073 976 1073 976 954 c 0,10,11
 976 877 976 877 958.5 828 c 128,-1,12
 941 779 941 779 918 743 c 128,-1,13
 895 707 895 707 877.5 669 c 128,-1,14
 860 631 860 631 860 576 c 0,15,16
 860 528 860 528 892.5 487.5 c 128,-1,17
 925 447 925 447 973 407.5 c 128,-1,18
 1021 368 1021 368 1069 322.5 c 128,-1,19
 1117 277 1117 277 1149.5 219.5 c 128,-1,20
 1182 162 1182 162 1182 86 c 0,21,22
 1182 -89 1182 -89 1069.5 -179.5 c 128,-1,23
 957 -270 957 -270 763 -270 c 0,24,25
 684 -270 684 -270 599.5 -251 c 128,-1,26
 515 -232 515 -232 475 -206 c 1,27,-1
 524 -15 l 1,28,29
 557 -34 557 -34 619 -56.5 c 128,-1,30
 681 -79 681 -79 752 -79 c 0,31,32
 848 -79 848 -79 895 -34 c 128,-1,33
 942 11 942 11 942 79 c 0,34,35
 942 132 942 132 909.5 173 c 128,-1,36
 877 214 877 214 829 252 c 128,-1,37
 781 290 781 290 732.5 333.5 c 128,-1,38
 684 377 684 377 651.5 434 c 128,-1,39
 619 491 619 491 619 570 c 0,40,41
 619 634 619 634 637.5 678.5 c 128,-1,42
 656 723 656 723 680 760.5 c 128,-1,43
 704 798 704 798 722.5 839.5 c 128,-1,44
 741 881 741 881 741 939 c 0,45,46
 741 1023 741 1023 691.5 1069.5 c 128,-1,47
 642 1116 642 1116 568 1116 c 0,48,49
 480 1116 480 1116 429 1055.5 c 128,-1,50
 378 995 378 995 378 855 c 2,0,-1
EndSplineSet
Substitution2: "'smcp' Lowercase to Small Capitals lookup 1 subtable" Germandbls.smcp
EndChar

StartChar: grave
Encoding: 96 96 438
Width: 656
VWidth: 1798
GlyphClass: 2
Flags: W
LayerCount: 2
Fore
SplineSet
329 1286 m 1,0,-1
 524 985 l 1,1,-1
 323 985 l 1,2,-1
 56 1286 l 1,3,-1
 329 1286 l 1,0,-1
EndSplineSet
EndChar

StartChar: gravecomb
Encoding: 768 768 439
Width: 0
VWidth: 1798
GlyphClass: 4
Flags: W
AnchorPoint: "Anchor-3" -530 1391 basemark 0
AnchorPoint: "Anchor-3" -530 1040 mark 0
AnchorPoint: "Anchor-0" -530 1040 mark 0
LayerCount: 2
Fore
SplineSet
-605 1286 m 1,0,-1
 -409 985 l 1,1,-1
 -610 985 l 1,2,-1
 -877 1286 l 1,3,-1
 -605 1286 l 1,0,-1
EndSplineSet
EndChar

StartChar: greater
Encoding: 62 62 440
Width: 1064
VWidth: 1798
GlyphClass: 2
Flags: W
LayerCount: 2
Fore
SplineSet
126 151 m 1,0,-1
 747 386 l 1,1,-1
 126 618 l 1,2,-1
 126 851 l 1,3,-1
 990 480 l 1,4,-1
 990 290 l 1,5,-1
 126 -82 l 1,6,-1
 126 151 l 1,0,-1
EndSplineSet
EndChar

StartChar: greaterequal
Encoding: 8805 8805 441
Width: 1064
GlyphClass: 2
Flags: W
LayerCount: 2
Fore
SplineSet
126 501 m 1,0,-1
 747 708 l 1,1,-1
 126 912 l 1,2,-1
 126 1112 l 1,3,-1
 990 788 l 1,4,-1
 990 625 l 1,5,-1
 126 300 l 1,6,-1
 126 501 l 1,0,-1
976 185 m 1,7,-1
 976 0 l 1,8,-1
 125 0 l 1,9,-1
 125 185 l 1,10,-1
 976 185 l 1,7,-1
EndSplineSet
EndChar

StartChar: guillemotleft
Encoding: 171 171 442
Width: 944
VWidth: 1798
GlyphClass: 2
Flags: W
LayerCount: 2
Fore
SplineSet
469 -168 m 1,0,-1
 352 -279 l 1,1,2
 222 -127 222 -127 157.5 -7.5 c 128,-1,3
 93 112 93 112 93 224 c 0,4,5
 93 337 93 337 157 456 c 128,-1,6
 221 575 221 575 353 726 c 1,7,-1
 469 614 l 1,8,9
 380 487 380 487 335.5 397 c 128,-1,10
 291 307 291 307 291 224 c 256,11,12
 291 141 291 141 336 50.5 c 128,-1,13
 381 -40 381 -40 469 -168 c 1,0,-1
841 -168 m 1,14,-1
 724 -279 l 1,15,16
 593 -127 593 -127 527.5 -8 c 128,-1,17
 462 111 462 111 462 224 c 256,18,19
 462 337 462 337 527.5 456 c 128,-1,20
 593 575 593 575 724 726 c 1,21,-1
 841 614 l 1,22,23
 752 487 752 487 707 397 c 128,-1,24
 662 307 662 307 662 224 c 256,25,26
 662 141 662 141 707 50.5 c 128,-1,27
 752 -40 752 -40 841 -168 c 1,14,-1
EndSplineSet
EndChar

StartChar: guillemotright
Encoding: 187 187 443
Width: 944
VWidth: 1798
GlyphClass: 2
Flags: W
LayerCount: 2
Fore
SplineSet
474 -168 m 1,0,1
 563 -40 563 -40 608 50.5 c 128,-1,2
 653 141 653 141 653 224 c 256,3,4
 653 307 653 307 608 397 c 128,-1,5
 563 487 563 487 474 614 c 1,6,-1
 591 726 l 1,7,8
 722 575 722 575 786 456 c 128,-1,9
 850 337 850 337 850 224 c 0,10,11
 850 112 850 112 786 -7.5 c 128,-1,12
 722 -127 722 -127 591 -279 c 1,13,-1
 474 -168 l 1,0,1
103 -168 m 1,14,15
 192 -40 192 -40 236.5 50.5 c 128,-1,16
 281 141 281 141 281 224 c 256,17,18
 281 307 281 307 236.5 397 c 128,-1,19
 192 487 192 487 103 614 c 1,20,-1
 220 726 l 1,21,22
 351 575 351 575 416.5 456 c 128,-1,23
 482 337 482 337 482 224 c 256,24,25
 482 111 482 111 416.5 -8 c 128,-1,26
 351 -127 351 -127 220 -279 c 1,27,-1
 103 -168 l 1,14,15
EndSplineSet
EndChar

StartChar: guilsinglleft
Encoding: 8249 8249 444
Width: 628
GlyphClass: 2
Flags: W
LayerCount: 2
Fore
SplineSet
560 937 m 1,0,-1
 312 538 l 1,1,-1
 560 139 l 1,2,-1
 395 139 l 1,3,-1
 108 529 l 1,4,-1
 108 548 l 1,5,-1
 395 937 l 1,6,-1
 560 937 l 1,0,-1
EndSplineSet
EndChar

StartChar: guilsinglright
Encoding: 8250 8250 445
Width: 617
GlyphClass: 2
Flags: W
LayerCount: 2
Fore
SplineSet
85 139 m 1,0,-1
 333 538 l 1,1,-1
 85 936 l 1,2,-1
 251 936 l 1,3,-1
 538 547 l 1,4,-1
 538 528 l 1,5,-1
 251 139 l 1,6,-1
 85 139 l 1,0,-1
EndSplineSet
EndChar

StartChar: h
Encoding: 104 104 446
Width: 1138
VWidth: 1798
GlyphClass: 2
Flags: W
AnchorPoint: "Anchor-1" 588 -240 basechar 0
AnchorPoint: "Anchor-0" 501 1361 basechar 0
LayerCount: 2
Fore
SplineSet
362 1286 m 1,0,-1
 362 707 l 1,1,2
 417 775 417 775 494.5 813.5 c 128,-1,3
 572 852 572 852 666 852 c 0,4,5
 826 852 826 852 922 759 c 128,-1,6
 1018 666 1018 666 1018 445 c 2,7,-1
 1018 -250 l 1,8,-1
 776 -250 l 1,9,-1
 776 447 l 2,10,11
 776 564 776 564 726 611 c 128,-1,12
 676 658 676 658 583 658 c 0,13,14
 504 658 504 658 449 620.5 c 128,-1,15
 394 583 394 583 362 522 c 1,16,-1
 362 -250 l 1,17,-1
 122 -250 l 1,18,-1
 122 1286 l 1,19,-1
 362 1286 l 1,0,-1
EndSplineSet
Substitution2: "'unic' Unicase lookup 2 subtable" H
Substitution2: "'smcp' Lowercase to Small Capitals lookup 1 subtable" H.smcp
EndChar

StartChar: hbar
Encoding: 295 295 447
Width: 1168
VWidth: 1798
GlyphClass: 2
Flags: W
AnchorPoint: "Anchor-1" 588 -240 basechar 0
AnchorPoint: "Anchor-0" 501 1361 basechar 0
LayerCount: 2
Fore
SplineSet
661 1141 m 1,0,-1
 661 975 l 1,1,-1
 392 975 l 1,2,-1
 392 707 l 1,3,4
 447 775 447 775 524.5 813.5 c 128,-1,5
 602 852 602 852 696 852 c 0,6,7
 856 852 856 852 952 759 c 128,-1,8
 1048 666 1048 666 1048 445 c 2,9,-1
 1048 -250 l 1,10,-1
 806 -250 l 1,11,-1
 806 447 l 2,12,13
 806 564 806 564 756 611 c 128,-1,14
 706 658 706 658 613 658 c 0,15,16
 534 658 534 658 479 620.5 c 128,-1,17
 424 583 424 583 392 522 c 1,18,-1
 392 -250 l 1,19,-1
 152 -250 l 1,20,-1
 152 975 l 1,21,-1
 -11 975 l 1,22,-1
 -11 1141 l 1,23,-1
 152 1141 l 1,24,-1
 152 1286 l 1,25,-1
 392 1286 l 1,26,-1
 392 1141 l 1,27,-1
 661 1141 l 1,0,-1
EndSplineSet
Substitution2: "'unic' Unicase lookup 2 subtable" Hbar
Substitution2: "'smcp' Lowercase to Small Capitals lookup 1 subtable" Hbar.smcp
EndChar

StartChar: hook
Encoding: 777 777 449
Width: 0
VWidth: 1798
GlyphClass: 4
Flags: W
AnchorPoint: "Anchor-3" -590 1471 basemark 0
AnchorPoint: "Anchor-3" -590 1024 mark 0
AnchorPoint: "Anchor-0" -590 1024 mark 0
LayerCount: 2
Fore
SplineSet
-510 1004 m 1,0,-1
 -689 1004 l 1,1,-1
 -698 1147 l 1,2,3
 -623 1151 -623 1151 -589.5 1166.5 c 128,-1,4
 -556 1182 -556 1182 -556 1218 c 0,5,6
 -556 1259 -556 1259 -600.5 1274.5 c 128,-1,7
 -645 1290 -645 1290 -710 1290 c 1,8,-1
 -703 1411 l 1,9,10
 -533 1411 -533 1411 -445 1359.5 c 128,-1,11
 -357 1308 -357 1308 -357 1220 c 0,12,13
 -357 1147 -357 1147 -405 1113.5 c 128,-1,14
 -453 1080 -453 1080 -510 1072 c 1,15,-1
 -510 1004 l 1,0,-1
EndSplineSet
EndChar

StartChar: hungarumlaut
Encoding: 733 733 450
Width: 808
VWidth: 1798
GlyphClass: 2
Flags: W
LayerCount: 2
Fore
SplineSet
395 983 m 1,0,-1
 623 1285 l 1,1,-1
 856 1285 l 1,2,-1
 589 983 l 1,3,-1
 395 983 l 1,0,-1
75 983 m 1,4,-1
 255 1285 l 1,5,-1
 483 1285 l 1,6,-1
 258 983 l 1,7,-1
 75 983 l 1,4,-1
EndSplineSet
EndChar

StartChar: hyphen
Encoding: 45 45 451
Width: 970
VWidth: 1798
GlyphClass: 2
Flags: W
LayerCount: 2
Fore
SplineSet
841 175 m 1,0,-1
 129 175 l 1,1,-1
 129 362 l 1,2,-1
 841 362 l 1,3,-1
 841 175 l 1,0,-1
EndSplineSet
EndChar

StartChar: hyphendot
Encoding: 8231 8231 453
Width: 463
GlyphClass: 2
Flags: W
LayerCount: 2
Fore
SplineSet
94 623 m 256,0,1
 94 678 94 678 130.5 714.5 c 128,-1,2
 167 751 167 751 231 751 c 0,3,4
 296 751 296 751 333 714.5 c 128,-1,5
 370 678 370 678 370 623 c 256,6,7
 370 568 370 568 333 532 c 128,-1,8
 296 496 296 496 231 496 c 0,9,10
 167 496 167 496 130.5 532 c 128,-1,11
 94 568 94 568 94 623 c 256,0,1
EndSplineSet
EndChar

StartChar: i
Encoding: 105 105 455
Width: 522
VWidth: 1798
GlyphClass: 2
Flags: W
AnchorPoint: "Anchor-1" 249 -240 basechar 0
AnchorPoint: "Anchor-0" 251 1350 basechar 0
LayerCount: 2
Fore
SplineSet
124 1116 m 0,0,1
 124 1171 124 1171 160.5 1207.5 c 128,-1,2
 197 1244 197 1244 262 1244 c 0,3,4
 326 1244 326 1244 363 1207.5 c 128,-1,5
 400 1171 400 1171 400 1116 c 0,6,7
 400 1062 400 1062 363 1026 c 128,-1,8
 326 990 326 990 262 990 c 0,9,10
 197 990 197 990 160.5 1026 c 128,-1,11
 124 1062 124 1062 124 1116 c 0,0,1
382 832 m 1,12,-1
 382 -250 l 1,13,-1
 140 -250 l 1,14,-1
 140 832 l 1,15,-1
 382 832 l 1,12,-1
EndSplineSet
Substitution2: "Single Substitution lookup 3 subtable" uni0069.ccmp
Substitution2: "'unic' Unicase lookup 2 subtable" I
Substitution2: "'smcp' Lowercase to Small Capitals lookup 1 subtable" I.smcp
EndChar

StartChar: infinity
Encoding: 8734 8734 463
Width: 2130
GlyphClass: 2
Flags: W
LayerCount: 2
Fore
SplineSet
97 529 m 2,0,-1
 97 552 l 2,1,2
 97 702 97 702 158.5 827 c 128,-1,3
 220 952 220 952 332.5 1027 c 128,-1,4
 445 1102 445 1102 597 1102 c 0,5,6
 717 1102 717 1102 805.5 1053 c 128,-1,7
 894 1004 894 1004 957 928 c 128,-1,8
 1020 852 1020 852 1061 771 c 1,9,10
 1102 852 1102 852 1165 928 c 128,-1,11
 1228 1004 1228 1004 1317 1053 c 128,-1,12
 1406 1102 1406 1102 1526 1102 c 0,13,14
 1678 1102 1678 1102 1790 1027 c 128,-1,15
 1902 952 1902 952 1964 827 c 128,-1,16
 2026 702 2026 702 2026 552 c 2,17,-1
 2026 529 l 2,18,19
 2026 379 2026 379 1964 254 c 128,-1,20
 1902 129 1902 129 1789.5 54 c 128,-1,21
 1677 -21 1677 -21 1524 -21 c 0,22,23
 1405 -21 1405 -21 1316.5 29 c 128,-1,24
 1228 79 1228 79 1165 156.5 c 128,-1,25
 1102 234 1102 234 1061 316 c 1,26,27
 1020 234 1020 234 957.5 156.5 c 128,-1,28
 895 79 895 79 806.5 29 c 128,-1,29
 718 -21 718 -21 599 -21 c 0,30,31
 446 -21 446 -21 333.5 54 c 128,-1,32
 221 129 221 129 159 254 c 128,-1,33
 97 379 97 379 97 529 c 2,0,-1
334 552 m 2,34,-1
 334 529 l 2,35,36
 334 431 334 431 365.5 350.5 c 128,-1,37
 397 270 397 270 458 222.5 c 128,-1,38
 519 175 519 175 607 175 c 0,39,40
 688 175 688 175 748 219 c 128,-1,41
 808 263 808 263 848 325 c 128,-1,42
 888 387 888 387 910 444 c 128,-1,43
 932 501 932 501 937 527 c 1,44,-1
 937 562 l 1,45,46
 932 587 932 587 910 643 c 128,-1,47
 888 699 888 699 848 760 c 128,-1,48
 808 821 808 821 748 864 c 128,-1,49
 688 907 688 907 605 907 c 0,50,51
 518 907 518 907 457.5 858.5 c 128,-1,52
 397 810 397 810 365.5 729.5 c 128,-1,53
 334 649 334 649 334 552 c 2,34,-1
1789 529 m 2,54,-1
 1789 552 l 2,55,56
 1789 649 1789 649 1757.5 729.5 c 128,-1,57
 1726 810 1726 810 1665.5 858.5 c 128,-1,58
 1605 907 1605 907 1518 907 c 0,59,60
 1435 907 1435 907 1374.5 864 c 128,-1,61
 1314 821 1314 821 1274 760 c 128,-1,62
 1234 699 1234 699 1212.5 643 c 128,-1,63
 1191 587 1191 587 1185 562 c 1,64,-1
 1185 527 l 1,65,66
 1190 501 1190 501 1212 444 c 128,-1,67
 1234 387 1234 387 1274 325 c 128,-1,68
 1314 263 1314 263 1374 219 c 128,-1,69
 1434 175 1434 175 1516 175 c 0,70,71
 1604 175 1604 175 1664.5 222.5 c 128,-1,72
 1725 270 1725 270 1757 350.5 c 128,-1,73
 1789 431 1789 431 1789 529 c 2,54,-1
EndSplineSet
EndChar

StartChar: integral
Encoding: 8747 8747 464
Width: 562
GlyphClass: 2
Flags: W
LayerCount: 2
Fore
SplineSet
398 -77 m 2,0,1
 398 -259 398 -259 304 -348 c 128,-1,2
 210 -437 210 -437 44 -437 c 0,3,4
 -27 -437 -27 -437 -89 -419 c 1,5,-1
 -72 -233 l 1,6,7
 -55 -237 -55 -237 -32.5 -241 c 128,-1,8
 -10 -245 -10 -245 12 -245 c 0,9,10
 82 -245 82 -245 119 -205 c 128,-1,11
 156 -165 156 -165 156 -77 c 2,12,-1
 156 1188 l 2,13,14
 156 1368 156 1368 255 1462.5 c 128,-1,15
 354 1557 354 1557 528 1557 c 0,16,17
 566 1557 566 1557 603.5 1551 c 128,-1,18
 641 1545 641 1545 680 1536 c 1,19,-1
 656 1355 l 1,20,21
 637 1360 637 1360 615 1363 c 128,-1,22
 593 1366 593 1366 562 1366 c 0,23,24
 482 1366 482 1366 440 1319.5 c 128,-1,25
 398 1273 398 1273 398 1188 c 2,26,-1
 398 -77 l 2,0,1
EndSplineSet
EndChar

StartChar: j
Encoding: 106 106 467
Width: 514
VWidth: 1798
GlyphClass: 2
Flags: W
AnchorPoint: "Anchor-1" 190 -709 basechar 0
AnchorPoint: "Anchor-0" 223 1350 basechar 0
LayerCount: 2
Fore
SplineSet
115 1116 m 0,0,1
 115 1171 115 1171 152 1207.5 c 128,-1,2
 189 1244 189 1244 253 1244 c 0,3,4
 318 1244 318 1244 354.5 1207.5 c 128,-1,5
 391 1171 391 1171 391 1116 c 0,6,7
 391 1062 391 1062 354.5 1026 c 128,-1,8
 318 990 318 990 253 990 c 0,9,10
 189 990 189 990 152 1026 c 128,-1,11
 115 1062 115 1062 115 1116 c 0,0,1
136 832 m 1,12,-1
 378 832 l 1,13,-1
 378 -344 l 2,14,15
 378 -510 378 -510 293 -598.5 c 128,-1,16
 208 -687 208 -687 47 -687 c 0,17,18
 -22 -687 -22 -687 -85 -670 c 1,19,-1
 -84 -482 l 1,20,21
 -42 -491 -42 -491 5 -491 c 0,22,23
 69 -491 69 -491 102.5 -457 c 128,-1,24
 136 -423 136 -423 136 -344 c 2,25,-1
 136 832 l 1,12,-1
EndSplineSet
Substitution2: "Single Substitution lookup 3 subtable" uni006A.ccmp
Substitution2: "'unic' Unicase lookup 2 subtable" J
Substitution2: "'smcp' Lowercase to Small Capitals lookup 1 subtable" J.smcp
EndChar

StartChar: k
Encoding: 107 107 469
Width: 1068
VWidth: 1798
GlyphClass: 2
Flags: W
AnchorPoint: "Anchor-1" 529 -179 basechar 0
AnchorPoint: "Anchor-0" 549 1361 basechar 0
LayerCount: 2
Fore
SplineSet
800 -250 m 1,0,-1
 477 217 l 1,1,-1
 367 104 l 1,2,-1
 367 -250 l 1,3,-1
 125 -250 l 1,4,-1
 125 1286 l 1,5,-1
 367 1286 l 1,6,-1
 367 398 l 1,7,-1
 442 491 l 1,8,-1
 748 832 l 1,9,-1
 1039 832 l 1,10,-1
 633 382 l 1,11,-1
 1079 -250 l 1,12,-1
 800 -250 l 1,0,-1
EndSplineSet
Substitution2: "'unic' Unicase lookup 2 subtable" K
Substitution2: "'smcp' Lowercase to Small Capitals lookup 1 subtable" K.smcp
EndChar

StartChar: kgreenlandic
Encoding: 312 312 471
Width: 1178
VWidth: 1798
GlyphClass: 2
Flags: W
AnchorPoint: "Anchor-1" 590 -240 basechar 0
AnchorPoint: "Anchor-0" 590 1040 basechar 0
LayerCount: 2
Fore
SplineSet
826 -250 m 1,0,-1
 498 181 l 1,1,-1
 382 181 l 1,2,-1
 382 -250 l 1,3,-1
 141 -250 l 1,4,-1
 141 832 l 1,5,-1
 382 832 l 1,6,-1
 382 399 l 1,7,-1
 474 399 l 1,8,-1
 807 832 l 1,9,-1
 1107 832 l 1,10,-1
 696 310 l 1,11,-1
 1133 -250 l 1,12,-1
 826 -250 l 1,0,-1
EndSplineSet
EndChar

StartChar: l
Encoding: 108 108 472
Width: 522
VWidth: 1798
GlyphClass: 2
Flags: W
AnchorPoint: "Anchor-1" 249 -240 basechar 0
AnchorPoint: "Anchor-0" 249 1447 basechar 0
LayerCount: 2
Fore
SplineSet
382 1286 m 1,0,-1
 382 -250 l 1,1,-1
 140 -250 l 1,2,-1
 140 1286 l 1,3,-1
 382 1286 l 1,0,-1
EndSplineSet
Substitution2: "'unic' Unicase lookup 2 subtable" L
Substitution2: "'smcp' Lowercase to Small Capitals lookup 1 subtable" L.smcp
EndChar

StartChar: less
Encoding: 60 60 478
Width: 1042
VWidth: 1798
GlyphClass: 2
Flags: W
LayerCount: 2
Fore
SplineSet
905 614 m 1,0,-1
 309 382 l 1,1,-1
 905 154 l 1,2,-1
 905 -83 l 1,3,-1
 62 289 l 1,4,-1
 62 479 l 1,5,-1
 905 850 l 1,6,-1
 905 614 l 1,0,-1
EndSplineSet
EndChar

StartChar: lessequal
Encoding: 8804 8804 479
Width: 1042
GlyphClass: 2
Flags: W
LayerCount: 2
Fore
SplineSet
905 895 m 1,0,-1
 309 692 l 1,1,-1
 905 492 l 1,2,-1
 905 288 l 1,3,-1
 62 612 l 1,4,-1
 62 775 l 1,5,-1
 905 1099 l 1,6,-1
 905 895 l 1,0,-1
912 185 m 1,7,-1
 912 1 l 1,8,-1
 61 1 l 1,9,-1
 61 185 l 1,10,-1
 912 185 l 1,7,-1
EndSplineSet
EndChar

StartChar: lira
Encoding: 8356 8356 480
Width: 1205
GlyphClass: 2
Flags: W
LayerCount: 2
Fore
SplineSet
818 611 m 1,0,-1
 818 469 l 1,1,-1
 517 469 l 1,2,-1
 519 419 l 2,3,4
 520 354 520 354 504 298 c 128,-1,5
 488 242 488 242 453 199 c 1,6,-1
 1145 199 l 1,7,-1
 1146 0 l 1,8,-1
 99 0 l 1,9,-1
 99 199 l 1,10,-1
 186 199 l 1,11,12
 219 207 219 207 236.5 242 c 128,-1,13
 254 277 254 277 260.5 323 c 128,-1,14
 267 369 267 369 267 410 c 2,15,-1
 265 469 l 1,16,-1
 98 469 l 1,17,-1
 98 611 l 1,18,-1
 260 611 l 1,19,-1
 256 735 l 1,20,-1
 98 735 l 1,21,-1
 98 876 l 1,22,-1
 251 876 l 1,23,-1
 246 1039 l 1,24,25
 246 1177 246 1177 303 1274.5 c 128,-1,26
 360 1372 360 1372 461.5 1424 c 128,-1,27
 563 1476 563 1476 694 1476 c 0,28,29
 903 1476 903 1476 1016 1364.5 c 128,-1,30
 1129 1253 1129 1253 1129 1073 c 1,31,-1
 887 1073 l 1,32,33
 887 1185 887 1185 826.5 1231 c 128,-1,34
 766 1277 766 1277 687 1277 c 0,35,36
 605 1277 605 1277 550.5 1216 c 128,-1,37
 496 1155 496 1155 496 1039 c 1,38,-1
 502 876 l 1,39,-1
 818 876 l 1,40,-1
 818 735 l 1,41,-1
 507 735 l 1,42,-1
 512 611 l 1,43,-1
 818 611 l 1,0,-1
EndSplineSet
Substitution2: "'c2sc' Capitals to Small Capitals lookup 0 subtable" lira.smcp
Position2: "'cpsp' Capital Spacing lookup 0 subtable" dx=36 dy=0 dh=72 dv=0
EndChar

StartChar: lira.smcp
Encoding: 65749 -1 481
Width: 1128
GlyphClass: 2
Flags: W
LayerCount: 2
Fore
SplineSet
454 737 m 2,0,-1
 455 700 l 1,1,-1
 841 700 l 1,2,-1
 841 555 l 1,3,-1
 461 555 l 1,4,-1
 464 487 l 2,5,6
 465 476 465 476 465 465 c 1,7,-1
 841 465 l 1,8,-1
 841 322 l 1,9,-1
 446 322 l 1,10,11
 425 248 425 248 381 192 c 1,12,-1
 1051 192 l 1,13,-1
 1051 0 l 1,14,-1
 125 0 l 1,15,-1
 125 192 l 1,16,-1
 135 192 l 1,17,18
 166 200 166 200 184.5 236.5 c 128,-1,19
 203 273 203 273 212 322 c 1,20,-1
 58 322 l 1,21,-1
 58 465 l 1,22,-1
 222 465 l 1,23,24
 222 473 222 473 222 480 c 2,25,-1
 219 555 l 1,26,-1
 58 555 l 1,27,-1
 58 700 l 1,28,-1
 214 700 l 1,29,-1
 213 737 l 2,30,31
 206 948 206 948 316 1064.5 c 128,-1,32
 426 1181 426 1181 613 1181 c 0,33,34
 819 1181 819 1181 921 1073.5 c 128,-1,35
 1023 966 1023 966 1023 791 c 1,36,-1
 782 791 l 1,37,38
 782 900 782 900 734 944.5 c 128,-1,39
 686 989 686 989 615 989 c 0,40,41
 536 989 536 989 493 924.5 c 128,-1,42
 450 860 450 860 454 737 c 2,0,-1
EndSplineSet
EndChar

StartChar: logicalnot
Encoding: 172 172 482
Width: 1131
VWidth: 1798
GlyphClass: 2
Flags: W
LayerCount: 2
Fore
SplineSet
959 552 m 1,0,-1
 959 125 l 1,1,-1
 769 125 l 1,2,-1
 769 387 l 1,3,-1
 127 387 l 1,4,-1
 127 552 l 1,5,-1
 959 552 l 1,0,-1
EndSplineSet
EndChar

StartChar: longs
Encoding: 383 383 483
Width: 519
VWidth: 1798
GlyphClass: 2
Flags: W
AnchorPoint: "Anchor-1" 248 -240 basechar 0
AnchorPoint: "Anchor-0" 428 1504 basechar 0
LayerCount: 2
Fore
SplineSet
378 -250 m 1,0,-1
 137 -250 l 1,1,-1
 137 936 l 2,2,3
 137 1116 137 1116 235.5 1211.5 c 128,-1,4
 334 1307 334 1307 507 1307 c 0,5,6
 546 1307 546 1307 583.5 1301 c 128,-1,7
 621 1295 621 1295 660 1286 c 1,8,-1
 636 1105 l 1,9,10
 617 1110 617 1110 594.5 1112.5 c 128,-1,11
 572 1115 572 1115 541 1115 c 0,12,13
 462 1115 462 1115 420 1068 c 128,-1,14
 378 1021 378 1021 378 936 c 2,15,-1
 378 -250 l 1,0,-1
EndSplineSet
EndChar

StartChar: longst
Encoding: 65750 -1 484
Width: 1295
GlyphClass: 3
Flags: W
LayerCount: 2
Fore
SplineSet
1226 1082 m 1,0,-1
 1226 906 l 1,1,-1
 1033 906 l 1,2,-1
 1033 299 l 2,3,4
 1033 223 1033 223 1065 200.5 c 128,-1,5
 1097 178 1097 178 1149 178 c 0,6,7
 1174 178 1174 178 1197 181 c 128,-1,8
 1220 184 1220 184 1235 187 c 1,9,-1
 1235 3 l 1,10,11
 1206 -6 1206 -6 1166 -13 c 128,-1,12
 1126 -20 1126 -20 1076 -20 c 0,13,14
 951 -20 951 -20 871.5 48.5 c 128,-1,15
 792 117 792 117 792 284 c 2,16,-1
 792 906 l 1,17,-1
 617 906 l 1,18,-1
 617 1082 l 1,19,-1
 792 1082 l 1,20,-1
 792 1333 l 1,21,22
 767 1346 767 1346 715.5 1355.5 c 128,-1,23
 664 1365 664 1365 614 1365 c 0,24,25
 535 1365 535 1365 492.5 1318 c 128,-1,26
 450 1271 450 1271 450 1186 c 2,27,-1
 450 0 l 1,28,-1
 209 0 l 1,29,-1
 209 906 l 1,30,-1
 43 906 l 1,31,-1
 43 1082 l 1,32,-1
 209 1082 l 1,33,-1
 209 1186 l 2,34,35
 209 1366 209 1366 307.5 1461.5 c 128,-1,36
 406 1557 406 1557 580 1557 c 0,37,38
 698 1557 698 1557 818 1526 c 128,-1,39
 938 1495 938 1495 1033 1454 c 1,40,-1
 1033 1082 l 1,41,-1
 1226 1082 l 1,0,-1
EndSplineSet
Ligature2: "'dlig' Discretionary Ligatures lookup 12 subtable" longs t
EndChar

StartChar: lozenge
Encoding: 9674 9674 485
Width: 1038
GlyphClass: 2
Flags: W
LayerCount: 2
Fore
SplineSet
37 727 m 1,0,-1
 420 1456 l 1,1,-1
 619 1456 l 1,2,-1
 1003 727 l 1,3,-1
 621 0 l 1,4,-1
 422 0 l 1,5,-1
 37 727 l 1,0,-1
280 727 m 1,6,-1
 522 251 l 1,7,-1
 760 727 l 1,8,-1
 519 1204 l 1,9,-1
 280 727 l 1,6,-1
EndSplineSet
EndChar

StartChar: lslash
Encoding: 322 322 486
Width: 594
VWidth: 1798
GlyphClass: 2
Flags: W
AnchorPoint: "Anchor-1" 280 -240 basechar 0
AnchorPoint: "Anchor-0" 280 1447 basechar 0
LayerCount: 2
Fore
SplineSet
562 694 m 1,0,-1
 562 550 l 1,1,-1
 412 497 l 1,2,-1
 412 -250 l 1,3,-1
 171 -250 l 1,4,-1
 171 412 l 1,5,-1
 32 363 l 1,6,-1
 32 507 l 1,7,-1
 171 556 l 1,8,-1
 171 1286 l 1,9,-1
 412 1286 l 1,10,-1
 412 641 l 1,11,-1
 562 694 l 1,0,-1
EndSplineSet
Substitution2: "'smcp' Lowercase to Small Capitals lookup 1 subtable" Lslash.smcp
EndChar

StartChar: m
Encoding: 109 109 487
Width: 1784
VWidth: 1798
GlyphClass: 2
Flags: W
AnchorPoint: "Anchor-1" 897 -240 basechar 0
AnchorPoint: "Anchor-0" 911 1040 basechar 0
LayerCount: 2
Fore
SplineSet
577 658 m 0,0,1
 497 658 497 658 445 622.5 c 128,-1,2
 393 587 393 587 365 528 c 1,3,-1
 365 -250 l 1,4,-1
 124 -250 l 1,5,-1
 124 832 l 1,6,-1
 351 832 l 1,7,-1
 359 710 l 1,8,9
 413 777 413 777 492 814.5 c 128,-1,10
 571 852 571 852 675 852 c 0,11,12
 776 852 776 852 853.5 811.5 c 128,-1,13
 931 771 931 771 973 682 c 1,14,15
 1025 759 1025 759 1109 805.5 c 128,-1,16
 1193 852 1193 852 1306 852 c 0,17,18
 1471 852 1471 852 1565.5 759 c 128,-1,19
 1660 666 1660 666 1660 450 c 2,20,-1
 1660 -250 l 1,21,-1
 1418 -250 l 1,22,-1
 1418 451 l 2,23,24
 1418 574 1418 574 1366 616 c 128,-1,25
 1314 658 1314 658 1225 658 c 0,26,27
 1141 658 1141 658 1087 613 c 128,-1,28
 1033 568 1033 568 1012 497 c 0,29,30
 1012 485 1012 485 1012 471 c 2,31,-1
 1012 -250 l 1,32,-1
 771 -250 l 1,33,-1
 771 450 l 2,34,35
 771 568 771 568 718.5 613 c 128,-1,36
 666 658 666 658 577 658 c 0,0,1
EndSplineSet
Substitution2: "'unic' Unicase lookup 2 subtable" M.unic
Substitution2: "'smcp' Lowercase to Small Capitals lookup 1 subtable" M.smcp
EndChar

StartChar: macron
Encoding: 175 175 488
Width: 986
VWidth: 1798
GlyphClass: 2
Flags: W
LayerCount: 2
Fore
SplineSet
836 1200 m 1,0,-1
 836 1046 l 1,1,-1
 157 1046 l 1,2,-1
 157 1200 l 1,3,-1
 836 1200 l 1,0,-1
EndSplineSet
EndChar

StartChar: mu
Encoding: 181 181 491
Width: 1217
VWidth: 1798
GlyphClass: 2
Flags: W
LayerCount: 2
Fore
SplineSet
147 832 m 1,0,-1
 387 832 l 1,1,-1
 387 211 l 2,2,3
 387 91 387 91 413 29 c 128,-1,4
 439 -33 439 -33 484.5 -55.5 c 128,-1,5
 530 -78 530 -78 587 -78 c 0,6,7
 680 -78 680 -78 735 -43.5 c 128,-1,8
 790 -9 790 -9 818 50 c 1,9,-1
 818 832 l 1,10,-1
 1060 832 l 1,11,-1
 1060 -250 l 1,12,-1
 837 -250 l 1,13,-1
 830 -163 l 1,14,15
 787 -214 787 -214 726 -242.5 c 128,-1,16
 665 -271 665 -271 587 -271 c 0,17,18
 464 -271 464 -271 387 -213 c 1,19,-1
 387 -666 l 1,20,-1
 147 -666 l 1,21,-1
 147 832 l 1,0,-1
EndSplineSet
EndChar

StartChar: multiply
Encoding: 215 215 492
Width: 1050
VWidth: 1798
GlyphClass: 2
Flags: W
LayerCount: 2
Fore
SplineSet
392 265 m 1,0,-1
 127 536 l 1,1,-1
 258 672 l 1,2,-1
 525 400 l 1,3,-1
 792 672 l 1,4,-1
 923 536 l 1,5,-1
 658 265 l 1,6,-1
 925 -7 l 1,7,-1
 793 -143 l 1,8,-1
 525 130 l 1,9,-1
 257 -143 l 1,10,-1
 125 -7 l 1,11,-1
 392 265 l 1,0,-1
EndSplineSet
EndChar

StartChar: n
Encoding: 110 110 493
Width: 1140
VWidth: 1798
GlyphClass: 2
Flags: W
AnchorPoint: "Anchor-1" 563 -240 basechar 0
AnchorPoint: "Anchor-0" 573 1040 basechar 0
LayerCount: 2
Fore
SplineSet
583 658 m 0,0,1
 507 658 507 658 451 620 c 128,-1,2
 395 582 395 582 363 519 c 1,3,-1
 363 -250 l 1,4,-1
 122 -250 l 1,5,-1
 122 832 l 1,6,-1
 349 832 l 1,7,-1
 357 702 l 1,8,9
 414 773 414 773 494.5 812.5 c 128,-1,10
 575 852 575 852 674 852 c 0,11,12
 831 852 831 852 924.5 761 c 128,-1,13
 1018 670 1018 670 1018 449 c 2,14,-1
 1018 -250 l 1,15,-1
 776 -250 l 1,16,-1
 776 450 l 2,17,18
 776 566 776 566 726.5 612 c 128,-1,19
 677 658 677 658 583 658 c 0,0,1
EndSplineSet
Substitution2: "'unic' Unicase lookup 2 subtable" N.unic
Substitution2: "'smcp' Lowercase to Small Capitals lookup 1 subtable" N.smcp
EndChar

StartChar: naira
Encoding: 8358 8358 495
Width: 1646
GlyphClass: 2
Flags: W
LayerCount: 2
Fore
SplineSet
1611 653 m 1,0,-1
 1611 498 l 1,1,-1
 1397 498 l 1,2,-1
 1397 0 l 1,3,-1
 1147 0 l 1,4,-1
 835 498 l 1,5,-1
 494 498 l 1,6,-1
 494 0 l 1,7,-1
 243 0 l 1,8,-1
 243 498 l 1,9,-1
 35 498 l 1,10,-1
 35 653 l 1,11,-1
 243 653 l 1,12,-1
 243 809 l 1,13,-1
 35 809 l 1,14,-1
 35 964 l 1,15,-1
 243 964 l 1,16,-1
 243 1456 l 1,17,-1
 494 1456 l 1,18,-1
 802 964 l 1,19,-1
 1149 964 l 1,20,-1
 1149 1456 l 1,21,-1
 1397 1456 l 1,22,-1
 1397 964 l 1,23,-1
 1611 964 l 1,24,-1
 1611 809 l 1,25,-1
 1397 809 l 1,26,-1
 1397 653 l 1,27,-1
 1611 653 l 1,0,-1
494 1043 m 1,28,-1
 494 964 l 1,29,-1
 543 964 l 1,30,-1
 494 1043 l 1,28,-1
494 653 m 1,31,-1
 738 653 l 1,32,-1
 641 809 l 1,33,-1
 494 809 l 1,34,-1
 494 653 l 1,31,-1
997 653 m 1,35,-1
 1149 653 l 1,36,-1
 1149 809 l 1,37,-1
 900 809 l 1,38,-1
 997 653 l 1,35,-1
1149 411 m 1,39,-1
 1149 498 l 1,40,-1
 1094 498 l 1,41,-1
 1149 411 l 1,39,-1
EndSplineSet
EndChar

StartChar: nine
Encoding: 57 57 500
Width: 1164
VWidth: 1798
GlyphClass: 2
Flags: W
LayerCount: 2
Fore
SplineSet
304 -60 m 1,0,-1
 324 -60 l 2,1,2
 494 -60 494 -60 596 -5 c 128,-1,3
 698 50 698 50 746.5 145 c 128,-1,4
 795 240 795 240 803 362 c 1,5,6
 748 303 748 303 673.5 266 c 128,-1,7
 599 229 599 229 513 229 c 0,8,9
 373 229 373 229 279.5 297 c 128,-1,10
 186 365 186 365 139.5 476.5 c 128,-1,11
 93 588 93 588 93 717 c 0,12,13
 93 857 93 857 149 972.5 c 128,-1,14
 205 1088 205 1088 311 1157 c 128,-1,15
 417 1226 417 1226 565 1226 c 0,16,17
 722 1226 722 1226 828.5 1146.5 c 128,-1,18
 935 1067 935 1067 990 933 c 128,-1,19
 1045 799 1045 799 1045 635 c 2,20,-1
 1045 550 l 2,21,22
 1045 389 1045 389 1008 243.5 c 128,-1,23
 971 98 971 98 888 -15.5 c 128,-1,24
 805 -129 805 -129 667 -194 c 128,-1,25
 529 -259 529 -259 326 -259 c 2,26,-1
 304 -259 l 1,27,-1
 304 -60 l 1,0,-1
332 723 m 0,28,29
 332 643 332 643 357.5 572.5 c 128,-1,30
 383 502 383 502 435 459 c 128,-1,31
 487 416 487 416 566 416 c 0,32,33
 649 416 649 416 712 462.5 c 128,-1,34
 775 509 775 509 805 577 c 1,35,-1
 805 673 l 2,36,37
 805 851 805 851 734.5 942.5 c 128,-1,38
 664 1034 664 1034 564 1034 c 0,39,40
 490 1034 490 1034 438 991.5 c 128,-1,41
 386 949 386 949 359 878.5 c 128,-1,42
 332 808 332 808 332 723 c 0,28,29
EndSplineSet
Substitution2: "'ss01' Style Set 1 lookup 35 subtable" uni06F9
Substitution2: "'numr' Numerators lookup 21 subtable" nine.frac
Substitution2: "'dnom' Denominators lookup 20 subtable" nine.sup
Substitution2: "'frac' Diagonal Fractions lookup 19 subtable" nine.frac
Substitution2: "Single Substitution lookup 18 subtable" nine.sup
Substitution2: "'onum' Oldstyle Figures lookup 14 subtable" nine.tnum
Substitution2: "'c2sc' Capitals to Small Capitals lookup 0 subtable" nine.smcp
Position2: "'cpsp' Capital Spacing lookup 0 subtable" dx=36 dy=0 dh=72 dv=0
EndChar

StartChar: nine.onum
Encoding: 65752 -1 502
Width: 1199
GlyphClass: 1
Flags: W
LayerCount: 2
Fore
SplineSet
490 -141 m 0,0,1
 637 -141 637 -141 733.5 -42 c 128,-1,2
 830 57 830 57 854 261 c 1,3,4
 736 165 736 165 560 165 c 0,5,6
 420 165 420 165 319 228 c 128,-1,7
 218 291 218 291 164 404.5 c 128,-1,8
 110 518 110 518 110 667 c 0,9,10
 110 825 110 825 172.5 941 c 128,-1,11
 235 1057 235 1057 343 1121 c 128,-1,12
 451 1185 451 1185 587 1185 c 0,13,14
 737 1185 737 1185 854 1121.5 c 128,-1,15
 971 1058 971 1058 1037.5 931.5 c 128,-1,16
 1104 805 1104 805 1104 616 c 2,17,-1
 1104 409 l 2,18,19
 1104 163 1104 163 1026.5 -2 c 128,-1,20
 949 -167 949 -167 816 -249.5 c 128,-1,21
 683 -332 683 -332 516 -332 c 0,22,23
 444 -332 444 -332 368.5 -317 c 128,-1,24
 293 -302 293 -302 224 -272 c 1,25,-1
 271 -94 l 1,26,27
 320 -112 320 -112 373 -126.5 c 128,-1,28
 426 -141 426 -141 490 -141 c 0,0,1
352 667 m 0,29,30
 352 580 352 580 381 508 c 128,-1,31
 410 436 410 436 466 392.5 c 128,-1,32
 522 349 522 349 601 349 c 0,33,34
 698 349 698 349 763 384.5 c 128,-1,35
 828 420 828 420 862 470 c 1,36,-1
 862 644 l 2,37,38
 862 819 862 819 791 906.5 c 128,-1,39
 720 994 720 994 598 994 c 0,40,41
 489 994 489 994 420.5 905.5 c 128,-1,42
 352 817 352 817 352 667 c 0,29,30
EndSplineSet
EndChar

StartChar: nine.smcp
Encoding: 65753 -1 503
Width: 1053
GlyphClass: 2
Flags: W
LayerCount: 2
Fore
SplineSet
281 180 m 1,0,-1
 300 180 l 2,1,2
 496 180 496 180 594.5 251.5 c 128,-1,3
 693 323 693 323 709 471 c 1,4,5
 664 430 664 430 600.5 403.5 c 128,-1,6
 537 377 537 377 461 377 c 0,7,8
 275 377 275 377 177 486 c 128,-1,9
 79 595 79 595 79 767 c 0,10,11
 79 880 79 880 132 974 c 128,-1,12
 185 1068 185 1068 283 1124.5 c 128,-1,13
 381 1181 381 1181 514 1181 c 0,14,15
 717 1181 717 1181 834.5 1055 c 128,-1,16
 952 929 952 929 952 705 c 2,17,-1
 952 632 l 2,18,19
 952 323 952 323 791.5 155.5 c 128,-1,20
 631 -12 631 -12 302 -12 c 2,21,-1
 281 -12 l 1,22,-1
 281 180 l 1,0,-1
319 767 m 0,23,24
 319 679 319 679 368.5 618 c 128,-1,25
 418 557 418 557 518 557 c 0,26,27
 589 557 589 557 639 588 c 128,-1,28
 689 619 689 619 712 662 c 1,29,-1
 712 750 l 2,30,31
 712 871 712 871 655.5 930 c 128,-1,32
 599 989 599 989 514 989 c 0,33,34
 422 989 422 989 370.5 923.5 c 128,-1,35
 319 858 319 858 319 767 c 0,23,24
EndSplineSet
EndChar

StartChar: nine.sup
Encoding: 65754 -1 504
Width: 757
GlyphClass: 2
Flags: W
LayerCount: 2
Fore
SplineSet
213 135 m 1,0,-1
 226 135 l 2,1,2
 345 135 345 135 411.5 173 c 128,-1,3
 478 211 478 211 490 312 c 1,4,5
 459 285 459 285 418.5 269 c 128,-1,6
 378 253 378 253 332 253 c 0,7,8
 208 253 208 253 139.5 322.5 c 128,-1,9
 71 392 71 392 71 516 c 0,10,11
 71 594 71 594 109 658.5 c 128,-1,12
 147 723 147 723 214.5 761.5 c 128,-1,13
 282 800 282 800 372 800 c 0,14,15
 505 800 505 800 590 719.5 c 128,-1,16
 675 639 675 639 675 477 c 2,17,-1
 675 424 l 2,18,19
 675 195 675 195 555.5 92.5 c 128,-1,20
 436 -10 436 -10 228 -10 c 2,21,-1
 213 -10 l 1,22,-1
 213 135 l 1,0,-1
252 515 m 256,23,24
 252 459 252 459 284 424 c 128,-1,25
 316 389 316 389 378 389 c 0,26,27
 421 389 421 389 450 405.5 c 128,-1,28
 479 422 479 422 493 444 c 1,29,-1
 493 513 l 2,30,31
 493 587 493 587 459.5 620.5 c 128,-1,32
 426 654 426 654 372 654 c 0,33,34
 316 654 316 654 284 612.5 c 128,-1,35
 252 571 252 571 252 515 c 256,23,24
EndSplineSet
EndChar

StartChar: notequal
Encoding: 8800 8800 506
Width: 1152
GlyphClass: 2
Flags: W
LayerCount: 2
Fore
SplineSet
1011 554 m 1,0,-1
 1011 356 l 1,1,-1
 468 356 l 1,2,-1
 340 127 l 1,3,-1
 232 187 l 1,4,-1
 326 356 l 1,5,-1
 143 356 l 1,6,-1
 143 554 l 1,7,-1
 437 554 l 1,8,-1
 563 780 l 1,9,-1
 143 780 l 1,10,-1
 143 978 l 1,11,-1
 674 978 l 1,12,-1
 806 1215 l 1,13,-1
 914 1155 l 1,14,-1
 815 978 l 1,15,-1
 1011 978 l 1,16,-1
 1011 780 l 1,17,-1
 705 780 l 1,18,-1
 578 554 l 1,19,-1
 1011 554 l 1,0,-1
EndSplineSet
EndChar

StartChar: nsuperior
Encoding: 8319 8319 507
Width: 860
GlyphClass: 2
Flags: W
LayerCount: 2
Fore
SplineSet
439 1304 m 0,0,1
 384 1304 384 1304 348.5 1278 c 128,-1,2
 313 1252 313 1252 294 1209 c 1,3,-1
 294 652 l 1,4,-1
 103 652 l 1,5,-1
 103 1453 l 1,6,-1
 252 1453 l 1,7,-1
 282 1330 l 1,8,9
 318 1393 318 1393 374.5 1429.5 c 128,-1,10
 431 1466 431 1466 505 1466 c 0,11,12
 627 1466 627 1466 697.5 1393.5 c 128,-1,13
 768 1321 768 1321 768 1159 c 2,14,-1
 768 652 l 1,15,-1
 576 652 l 1,16,-1
 576 1111 l 2,17,18
 576 1218 576 1218 539.5 1261 c 128,-1,19
 503 1304 503 1304 439 1304 c 0,0,1
EndSplineSet
EndChar

StartChar: numbersign
Encoding: 35 35 509
Width: 1235
VWidth: 1798
GlyphClass: 2
Flags: W
LayerCount: 2
Fore
SplineSet
244 -250 m 1,0,-1
 319 160 l 1,1,-1
 86 160 l 1,2,-1
 86 315 l 1,3,-1
 348 315 l 1,4,-1
 407 635 l 1,5,-1
 162 635 l 1,6,-1
 162 790 l 1,7,-1
 435 790 l 1,8,-1
 512 1206 l 1,9,-1
 676 1206 l 1,10,-1
 599 790 l 1,11,-1
 825 790 l 1,12,-1
 902 1206 l 1,13,-1
 1066 1206 l 1,14,-1
 989 790 l 1,15,-1
 1202 790 l 1,16,-1
 1202 635 l 1,17,-1
 961 635 l 1,18,-1
 902 315 l 1,19,-1
 1127 315 l 1,20,-1
 1127 160 l 1,21,-1
 873 160 l 1,22,-1
 798 -250 l 1,23,-1
 634 -250 l 1,24,-1
 709 160 l 1,25,-1
 483 160 l 1,26,-1
 408 -250 l 1,27,-1
 244 -250 l 1,0,-1
512 315 m 1,28,-1
 738 315 l 1,29,-1
 797 635 l 1,30,-1
 571 635 l 1,31,-1
 512 315 l 1,28,-1
EndSplineSet
EndChar

StartChar: o
Encoding: 111 111 510
Width: 1162
VWidth: 1798
GlyphClass: 2
Flags: W
AnchorPoint: "Anchor-1" 584 -251 basechar 0
AnchorPoint: "Anchor-0" 575 1040 basechar 0
LayerCount: 2
Fore
SplineSet
78 279 m 2,0,-1
 78 302 l 2,1,2
 78 459 78 459 137.5 583.5 c 128,-1,3
 197 708 197 708 309.5 780 c 128,-1,4
 422 852 422 852 580 852 c 0,5,6
 739 852 739 852 852 780 c 128,-1,7
 965 708 965 708 1024.5 583.5 c 128,-1,8
 1084 459 1084 459 1084 302 c 2,9,-1
 1084 279 l 2,10,11
 1084 122 1084 122 1024.5 -2 c 128,-1,12
 965 -126 965 -126 852.5 -198 c 128,-1,13
 740 -270 740 -270 582 -270 c 0,14,15
 423 -270 423 -270 310.5 -198 c 128,-1,16
 198 -126 198 -126 138 -2 c 128,-1,17
 78 122 78 122 78 279 c 2,0,-1
319 302 m 2,18,-1
 319 279 l 2,19,20
 319 181 319 181 346.5 100 c 128,-1,21
 374 19 374 19 432 -29.5 c 128,-1,22
 490 -78 490 -78 582 -78 c 0,23,24
 672 -78 672 -78 729.5 -29.5 c 128,-1,25
 787 19 787 19 815 100 c 128,-1,26
 843 181 843 181 843 279 c 2,27,-1
 843 302 l 2,28,29
 843 398 843 398 815.5 479.5 c 128,-1,30
 788 561 788 561 730 610.5 c 128,-1,31
 672 660 672 660 580 660 c 0,32,33
 489 660 489 660 431.5 610.5 c 128,-1,34
 374 561 374 561 346.5 479.5 c 128,-1,35
 319 398 319 398 319 302 c 2,18,-1
EndSplineSet
Substitution2: "'unic' Unicase lookup 2 subtable" O
Substitution2: "'smcp' Lowercase to Small Capitals lookup 1 subtable" O.smcp
EndChar

StartChar: oe
Encoding: 339 339 515
Width: 1854
VWidth: 1798
GlyphClass: 2
Flags: W
AnchorPoint: "Anchor-1" 945 -251 basechar 0
AnchorPoint: "Anchor-0" 945 1040 basechar 0
LayerCount: 2
Fore
SplineSet
89 279 m 2,0,-1
 89 302 l 2,1,2
 89 459 89 459 147.5 583.5 c 128,-1,3
 206 708 206 708 317.5 780 c 128,-1,4
 429 852 429 852 586 852 c 0,5,6
 713 852 713 852 810 805 c 128,-1,7
 907 758 907 758 970 676 c 1,8,9
 1034 759 1034 759 1126.5 806 c 128,-1,10
 1219 853 1219 853 1330 852 c 0,11,12
 1553 852 1553 852 1667.5 718 c 128,-1,13
 1782 584 1782 584 1782 367 c 2,14,-1
 1782 225 l 1,15,-1
 1097 225 l 1,16,17
 1106 98 1106 98 1175 9.5 c 128,-1,18
 1244 -79 1244 -79 1374 -79 c 0,19,20
 1483 -79 1483 -79 1552.5 -52 c 128,-1,21
 1622 -25 1622 -25 1679 14 c 1,22,-1
 1755 -141 l 1,23,24
 1700 -189 1700 -189 1600.5 -230 c 128,-1,25
 1501 -271 1501 -271 1357 -271 c 0,26,27
 1232 -271 1232 -271 1134 -224 c 128,-1,28
 1036 -177 1036 -177 970 -96 c 1,29,30
 907 -177 907 -177 810.5 -224 c 128,-1,31
 714 -271 714 -271 588 -271 c 0,32,33
 430 -271 430 -271 318 -199 c 128,-1,34
 206 -127 206 -127 147.5 -2.5 c 128,-1,35
 89 122 89 122 89 279 c 2,0,-1
1330 660 m 0,36,37
 1235 660 1235 660 1177 585.5 c 128,-1,38
 1119 511 1119 511 1103 398 c 1,39,-1
 1544 398 l 1,40,-1
 1544 424 l 2,41,42
 1544 522 1544 522 1493 591 c 128,-1,43
 1442 660 1442 660 1330 660 c 0,36,37
331 302 m 2,44,-1
 331 279 l 2,45,46
 331 181 331 181 357 99.5 c 128,-1,47
 383 18 383 18 440 -30.5 c 128,-1,48
 497 -79 497 -79 588 -79 c 256,49,50
 679 -79 679 -79 735 -30.5 c 128,-1,51
 791 18 791 18 817.5 99.5 c 128,-1,52
 844 181 844 181 844 279 c 2,53,-1
 844 302 l 2,54,55
 844 398 844 398 818 479.5 c 128,-1,56
 792 561 792 561 735 610.5 c 128,-1,57
 678 660 678 660 586 660 c 0,58,59
 495 660 495 660 439 610.5 c 128,-1,60
 383 561 383 561 357 479.5 c 128,-1,61
 331 398 331 398 331 302 c 2,44,-1
EndSplineSet
Substitution2: "'unic' Unicase lookup 2 subtable" OE
Substitution2: "'smcp' Lowercase to Small Capitals lookup 1 subtable" OE.smcp
EndChar

StartChar: ogonek
Encoding: 731 731 516
Width: 588
VWidth: 1798
GlyphClass: 2
Flags: W
LayerCount: 2
Fore
SplineSet
278 -192 m 1,0,-1
 393 -250 l 1,1,2
 323 -295 323 -295 277.5 -342.5 c 128,-1,3
 232 -390 232 -390 232 -450 c 0,4,5
 232 -480 232 -480 247.5 -499.5 c 128,-1,6
 263 -519 263 -519 303 -519 c 0,7,8
 333 -519 333 -519 355.5 -510.5 c 128,-1,9
 378 -502 378 -502 392 -495 c 1,10,-1
 415 -634 l 1,11,12
 390 -649 390 -649 351 -663.5 c 128,-1,13
 312 -678 312 -678 252 -678 c 0,14,15
 164 -678 164 -678 102.5 -627 c 128,-1,16
 41 -576 41 -576 41 -478 c 0,17,18
 41 -401 41 -401 94.5 -326.5 c 128,-1,19
 148 -252 148 -252 278 -192 c 1,0,-1
EndSplineSet
EndChar

StartChar: ohorn
Encoding: 417 417 518
Width: 1181
VWidth: 1798
GlyphClass: 2
Flags: W
AnchorPoint: "Anchor-1" 502 -250 basechar 0
AnchorPoint: "Anchor-0" 582 1040 basechar 0
LayerCount: 2
Fore
SplineSet
77 279 m 2,0,-1
 77 302 l 2,1,2
 77 459 77 459 137 583.5 c 128,-1,3
 197 708 197 708 309.5 780 c 128,-1,4
 422 852 422 852 579 852 c 0,5,6
 695 852 695 852 786.5 812.5 c 128,-1,7
 878 773 878 773 943 703 c 1,8,9
 1006 725 1006 725 1026 787.5 c 128,-1,10
 1046 850 1046 850 1046 942 c 1,11,-1
 1207 942 l 1,12,13
 1207 810 1207 810 1163 721 c 128,-1,14
 1119 632 1119 632 1017 596 c 1,15,16
 1083 468 1083 468 1083 302 c 2,17,-1
 1083 279 l 2,18,19
 1083 122 1083 122 1023.5 -2 c 128,-1,20
 964 -126 964 -126 851.5 -198 c 128,-1,21
 739 -270 739 -270 581 -270 c 256,22,23
 423 -270 423 -270 310 -198 c 128,-1,24
 197 -126 197 -126 137 -2 c 128,-1,25
 77 122 77 122 77 279 c 2,0,-1
318 302 m 2,26,-1
 318 279 l 2,27,28
 318 181 318 181 345.5 100 c 128,-1,29
 373 19 373 19 431 -29.5 c 128,-1,30
 489 -78 489 -78 581 -78 c 0,31,32
 671 -78 671 -78 728.5 -29.5 c 128,-1,33
 786 19 786 19 814 100 c 128,-1,34
 842 181 842 181 842 279 c 2,35,-1
 842 302 l 2,36,37
 842 398 842 398 814.5 479.5 c 128,-1,38
 787 561 787 561 729 610.5 c 128,-1,39
 671 660 671 660 579 660 c 0,40,41
 488 660 488 660 430.5 610.5 c 128,-1,42
 373 561 373 561 345.5 479.5 c 128,-1,43
 318 398 318 398 318 302 c 2,26,-1
EndSplineSet
EndChar

StartChar: one
Encoding: 49 49 521
Width: 1164
VWidth: 1798
GlyphClass: 2
Flags: W
LayerCount: 2
Fore
SplineSet
768 1211 m 1,0,-1
 768 -250 l 1,1,-1
 527 -250 l 1,2,-1
 527 925 l 1,3,-1
 170 804 l 1,4,-1
 170 1003 l 1,5,-1
 739 1211 l 1,6,-1
 768 1211 l 1,0,-1
EndSplineSet
Substitution2: "'ss01' Style Set 1 lookup 35 subtable" uni06F1
Substitution2: "'numr' Numerators lookup 21 subtable" onesuperior
Substitution2: "'dnom' Denominators lookup 20 subtable" one.sup
Substitution2: "'frac' Diagonal Fractions lookup 19 subtable" onesuperior
Substitution2: "Single Substitution lookup 18 subtable" one.sup
Substitution2: "'onum' Oldstyle Figures lookup 14 subtable" one.tnum
Substitution2: "'c2sc' Capitals to Small Capitals lookup 0 subtable" one.smcp
Position2: "'cpsp' Capital Spacing lookup 0 subtable" dx=36 dy=0 dh=72 dv=0
EndChar

StartChar: one.onum
Encoding: 65756 -1 522
Width: 1064
GlyphClass: 1
Flags: W
LayerCount: 2
Fore
SplineSet
746 1165 m 1,0,-1
 746 0 l 1,1,-1
 505 0 l 1,2,-1
 505 880 l 1,3,-1
 150 756 l 1,4,-1
 150 956 l 1,5,-1
 715 1165 l 1,6,-1
 746 1165 l 1,0,-1
EndSplineSet
EndChar

StartChar: one.smcp
Encoding: 65757 -1 523
Width: 1053
GlyphClass: 2
Flags: W
LayerCount: 2
Fore
SplineSet
709 1165 m 1,0,-1
 709 0 l 1,1,-1
 468 0 l 1,2,-1
 468 885 l 1,3,-1
 152 802 l 1,4,-1
 152 992 l 1,5,-1
 682 1165 l 1,6,-1
 709 1165 l 1,0,-1
EndSplineSet
EndChar

StartChar: one.sup
Encoding: 65758 -1 524
Width: 757
GlyphClass: 2
Flags: W
LayerCount: 2
Fore
SplineSet
513 788 m 1,0,-1
 513 0 l 1,1,-1
 332 0 l 1,2,-1
 332 576 l 1,3,-1
 130 527 l 1,4,-1
 130 670 l 1,5,-1
 494 788 l 1,6,-1
 513 788 l 1,0,-1
EndSplineSet
EndChar

StartChar: onesuperior
Encoding: 185 185 529
Width: 757
VWidth: 1798
GlyphClass: 2
Flags: W
LayerCount: 2
Fore
SplineSet
513 1205 m 1,0,-1
 513 417 l 1,1,-1
 332 417 l 1,2,-1
 332 993 l 1,3,-1
 130 944 l 1,4,-1
 130 1087 l 1,5,-1
 494 1205 l 1,6,-1
 513 1205 l 1,0,-1
EndSplineSet
EndChar

StartChar: ordfeminine
Encoding: 170 170 530
Width: 912
VWidth: 1798
GlyphClass: 2
Flags: W
LayerCount: 2
Fore
SplineSet
612 456 m 1,0,1
 601 490 601 490 595 527 c 1,2,3
 564 492 564 492 513.5 467 c 128,-1,4
 463 442 463 442 391 442 c 0,5,6
 271 442 271 442 206.5 503.5 c 128,-1,7
 142 565 142 565 142 668 c 0,8,9
 142 778 142 778 226.5 838.5 c 128,-1,10
 311 899 311 899 482 899 c 2,11,-1
 588 899 l 1,12,-1
 588 952 l 2,13,14
 588 1083 588 1083 467 1083 c 0,15,16
 400 1083 400 1083 361.5 1056.5 c 128,-1,17
 323 1030 323 1030 323 980 c 1,18,-1
 158 994 l 1,19,20
 158 1095 158 1095 242.5 1161 c 128,-1,21
 327 1227 327 1227 467 1227 c 0,22,23
 597 1227 597 1227 676.5 1157.5 c 128,-1,24
 756 1088 756 1088 756 951 c 2,25,-1
 756 637 l 2,26,27
 756 588 756 588 762 544 c 128,-1,28
 768 500 768 500 782 456 c 1,29,-1
 612 456 l 1,0,1
432 581 m 0,30,31
 474 581 474 581 517.5 600.5 c 128,-1,32
 561 620 561 620 588 646 c 1,33,-1
 588 786 l 1,34,-1
 483 786 l 2,35,36
 394 786 394 786 352 752.5 c 128,-1,37
 310 719 310 719 310 672 c 0,38,39
 310 581 310 581 432 581 c 0,30,31
EndSplineSet
EndChar

StartChar: ordmasculine
Encoding: 186 186 531
Width: 935
VWidth: 1798
GlyphClass: 2
Flags: W
LayerCount: 2
Fore
SplineSet
121 793 m 2,0,-1
 121 873 l 2,1,2
 121 1028 121 1028 214 1127.5 c 128,-1,3
 307 1227 307 1227 465 1227 c 0,4,5
 625 1227 625 1227 716.5 1127.5 c 128,-1,6
 808 1028 808 1028 808 873 c 2,7,-1
 808 793 l 2,8,9
 808 639 808 639 716.5 540 c 128,-1,10
 625 441 625 441 467 441 c 0,11,12
 307 441 307 441 214 540 c 128,-1,13
 121 639 121 639 121 793 c 2,0,-1
289 873 m 2,14,-1
 289 793 l 2,15,16
 289 702 289 702 332.5 642 c 128,-1,17
 376 582 376 582 467 582 c 0,18,19
 555 582 555 582 598.5 642 c 128,-1,20
 642 702 642 702 642 793 c 2,21,-1
 642 873 l 2,22,23
 642 962 642 962 598 1022.5 c 128,-1,24
 554 1083 554 1083 465 1083 c 256,25,26
 376 1083 376 1083 332.5 1022.5 c 128,-1,27
 289 962 289 962 289 873 c 2,14,-1
EndSplineSet
EndChar

StartChar: oslash
Encoding: 248 248 532
Width: 1158
VWidth: 1798
GlyphClass: 2
Flags: W
AnchorPoint: "Anchor-0" 537 1039 basechar 0
LayerCount: 2
Fore
SplineSet
78 279 m 2,0,-1
 78 302 l 2,1,2
 78 459 78 459 137.5 583.5 c 128,-1,3
 197 708 197 708 309.5 780 c 128,-1,4
 422 852 422 852 580 852 c 0,5,6
 685 852 685 852 774 818 c 1,7,-1
 845 963 l 1,8,-1
 988 963 l 1,9,-1
 886 756 l 1,10,11
 982 682 982 682 1033 564.5 c 128,-1,12
 1084 447 1084 447 1084 302 c 2,13,-1
 1084 279 l 2,14,15
 1084 122 1084 122 1024.5 -2 c 128,-1,16
 965 -126 965 -126 852.5 -198 c 128,-1,17
 740 -270 740 -270 582 -270 c 0,18,19
 483 -270 483 -270 398 -240 c 1,20,-1
 325 -389 l 1,21,-1
 182 -389 l 1,22,-1
 284 -180 l 1,23,24
 185 -108 185 -108 131.5 11.5 c 128,-1,25
 78 131 78 131 78 279 c 2,0,-1
319 302 m 2,26,-1
 319 279 l 2,27,28
 319 204 319 204 335 138 c 128,-1,29
 351 72 351 72 384 23 c 1,30,-1
 685 638 l 1,31,32
 638 660 638 660 580 660 c 0,33,34
 489 660 489 660 431.5 610.5 c 128,-1,35
 374 561 374 561 346.5 479.5 c 128,-1,36
 319 398 319 398 319 302 c 2,26,-1
843 302 m 2,37,38
 843 372 843 372 828.5 435 c 128,-1,39
 814 498 814 498 784 547 c 1,40,-1
 486 -61 l 1,41,42
 529 -78 529 -78 582 -78 c 0,43,44
 672 -78 672 -78 729.5 -29.5 c 128,-1,45
 787 19 787 19 815 100 c 128,-1,46
 843 181 843 181 843 279 c 2,47,-1
 843 302 l 2,37,38
EndSplineSet
Substitution2: "'unic' Unicase lookup 2 subtable" Oslash
Substitution2: "'smcp' Lowercase to Small Capitals lookup 1 subtable" Oslash.smcp
EndChar

StartChar: p
Encoding: 112 112 535
Width: 1151
VWidth: 1798
GlyphClass: 2
Flags: W
AnchorPoint: "Anchor-1" 231 -657 basechar 0
AnchorPoint: "Anchor-0" 629 1030 basechar 0
LayerCount: 2
Fore
SplineSet
1071 301 m 2,0,-1
 1071 280 l 2,1,2
 1071 123 1071 123 1022.5 -1.5 c 128,-1,3
 974 -126 974 -126 880 -198 c 128,-1,4
 786 -270 786 -270 651 -270 c 0,5,6
 559 -270 559 -270 488 -238.5 c 128,-1,7
 417 -207 417 -207 366 -149 c 1,8,-1
 366 -666 l 1,9,-1
 125 -666 l 1,10,-1
 125 832 l 1,11,-1
 347 832 l 1,12,-1
 357 719 l 1,13,14
 409 783 409 783 481.5 817.5 c 128,-1,15
 554 852 554 852 649 852 c 0,16,17
 786 852 786 852 880 783 c 128,-1,18
 974 714 974 714 1022.5 590 c 128,-1,19
 1071 466 1071 466 1071 301 c 2,0,-1
830 280 m 2,20,-1
 830 301 l 2,21,22
 830 400 830 400 805 481 c 128,-1,23
 780 562 780 562 725.5 610 c 128,-1,24
 671 658 671 658 584 658 c 0,25,26
 502 658 502 658 449 623 c 128,-1,27
 396 588 396 588 366 529 c 1,28,-1
 366 52 l 1,29,30
 396 -6 396 -6 449 -42 c 128,-1,31
 502 -78 502 -78 586 -78 c 0,32,33
 673 -78 673 -78 726.5 -29 c 128,-1,34
 780 20 780 20 805 101.5 c 128,-1,35
 830 183 830 183 830 280 c 2,20,-1
EndSplineSet
Substitution2: "'unic' Unicase lookup 2 subtable" P
Substitution2: "'smcp' Lowercase to Small Capitals lookup 1 subtable" P.smcp
EndChar

StartChar: paragraph
Encoding: 182 182 536
Width: 1002
VWidth: 1798
GlyphClass: 2
Flags: W
LayerCount: 2
Fore
SplineSet
852 -250 m 1,0,-1
 651 -250 l 1,1,-1
 651 270 l 1,2,-1
 565 270 l 2,3,4
 406 270 406 270 296.5 330.5 c 128,-1,5
 187 391 187 391 130 497 c 128,-1,6
 73 603 73 603 73 738 c 0,7,8
 73 872 73 872 130 978 c 128,-1,9
 187 1084 187 1084 296.5 1145 c 128,-1,10
 406 1206 406 1206 565 1206 c 2,11,-1
 852 1206 l 1,12,-1
 852 -250 l 1,0,-1
EndSplineSet
EndChar

StartChar: parenleft
Encoding: 40 40 537
Width: 711
VWidth: 1798
GlyphClass: 2
Flags: W
LayerCount: 2
Fore
SplineSet
344 341 m 0,0,1
 344 159 344 159 381 -16.5 c 128,-1,2
 418 -192 418 -192 491 -334 c 128,-1,3
 564 -476 564 -476 673 -559 c 1,4,-1
 625 -697 l 1,5,6
 513 -641 513 -641 422 -537 c 128,-1,7
 331 -433 331 -433 266 -294.5 c 128,-1,8
 201 -156 201 -156 166.5 5.5 c 128,-1,9
 132 167 132 167 132 339 c 256,10,11
 132 511 132 511 166.5 673 c 128,-1,12
 201 835 201 835 266 974.5 c 128,-1,13
 331 1114 331 1114 422 1218.5 c 128,-1,14
 513 1323 513 1323 625 1379 c 1,15,-1
 673 1241 l 1,16,17
 564 1159 564 1159 491 1017 c 128,-1,18
 418 875 418 875 381 699.5 c 128,-1,19
 344 524 344 524 344 341 c 0,0,1
EndSplineSet
Position2: "Single Positioning lookup 9 subtable" dx=0 dy=0 dh=80 dv=0
Position2: "Single Positioning lookup 8 subtable" dx=0 dy=0 dh=160 dv=0
EndChar

